<svg xmlns="http://www.w3.org/2000/svg" viewBox="0 0 97.08 97.24"><title>ICONES_Fichier 15</title><g id="Calque_2" data-name="Calque 2"><g id="Calque_1-2" data-name="Calque 1"><path d="M52.53,97.24l-3.18-.76h-3l-1.9-3L37.36,90.8l-1.88.84-5,0L19.1,86.8,19,84.3l-3-1.42,8-21.61V51.8L17.73,45,17.61,40,11.55,34.7.6,29.16l2.88-1.31L0,25.09l3.54-3,8.77-.9,3,4h9.21L23.27,14l6-.29v3.82l5.84,1.28,3.1-.67v-2.3l9.91-4.3,1.5-9.16L58.33,0V4.3l3,.75V7.68L68,10.17V13l2.07,1.35,3.27-3v4.51l4.84,3.54h4.5l4.13,4.13L97.08,26,93.6,30.79v9.83L92,42.34h-2.8L89.12,44l-7,7.62-1.77,4.54,1.78.08L82.87,53h3.77l2.69,6.18-2.22,2,2.39,4.66L85.6,68l3,3.67-1.35,3.57L90,77.85h4.32v3.65L84.05,89.89l-6.49.26-5.67-5.3-2.17,2.53-6.14-3.13L56,89.84v5.89Zm-5.79-1.51h2.74l3,.72,2.77-1.22V89.46l8.28-6.08,6,3.08,2.3-2.68,6,5.62,5.93-.24,9.82-8V78.6H89.73l-3.4-3.13,1.38-3.64-3.25-4,4-2.28L86.18,61l2.25-2-2.28-5.24H83.46L82.72,57l-3.44-.16,2.25-5.69,6.87-7.48.14-2.08H91.7l1.16-1.26V30.54l3-4.12-9.37-2.25-4.06-4.06H78L72.61,16.2V13l-2.44,2.23-2.9-1.88V10.68L60.57,8.2V5.62l-3-.75V1L50.28,3l-1.48,9.09L39,16.38V18.8l-3.85.83-6.58-1.45V14.54l-4.43.21,1.24,11.19H14.93l-3-4-8.12.84L1.18,25.07,4.9,28,2.32,29.19,12,34.11l6.33,5.57.12,5,6.34,6.83,0,10L17,82.51l2.75,1.31.12,2.47,10.89,4.6H35.4l1.93-.9,7.59,2.83Z" style="fill:#fff"/><path d="M53.79,11.2a6.86,6.86,0,0,0-6.56,7.14c0,5.35,6.56,13.25,6.56,13.25s6.56-7.9,6.56-13.25A6.86,6.86,0,0,0,53.79,11.2Zm0,18.3s-5.55-6.68-5.55-11.21a5.57,5.57,0,1,1,11.1,0C59.32,22.83,53.77,29.51,53.77,29.51Z" style="fill:#fff"/><circle cx="53.79" cy="17.66" r="2.54" style="fill:#fff"/></g></g></svg>