<svg xmlns="http://www.w3.org/2000/svg" viewBox="0 0 29.5 28.67"><title>ICONES_Fichier 48</title><g id="Calque_2" data-name="Calque 2"><g id="Calque_1-2" data-name="Calque 1"><path d="M15.17,0h-.42V20.24a8.21,8.21,0,0,0,6.44-3.75h0a1.65,1.65,0,0,1,2.87,1.61h0l0,0a1.65,1.65,0,0,1-.28.39,10.36,10.36,0,0,1-8.5,4.66h-.51v5.47h.42A14.33,14.33,0,1,0,15.17,0Zm4.48,12.06A2.38,2.38,0,1,1,22,9.69,2.38,2.38,0,0,1,19.65,12.07Z" style="fill:#cccc02"/><path d="M14.49,23.2h-.14a10.35,10.35,0,0,1-8.64-4.66,1.65,1.65,0,0,1-.28-.39l0,0h0a1.64,1.64,0,0,1-.18-.73,1.65,1.65,0,0,1,3-.88h0a8.21,8.21,0,0,0,6.47,3.76h0V0h-.42a14.33,14.33,0,1,0,0,28.67h.42V23.2Zm-5-15.88A2.38,2.38,0,1,1,7.08,9.69,2.38,2.38,0,0,1,9.46,7.31Z" style="fill:#d6d634"/></g></g></svg>