<?xml version="1.0" encoding="utf-8"?>
<!-- Generator: Adobe Illustrator 23.0.6, SVG Export Plug-In . SVG Version: 6.00 Build 0)  -->
<svg version="1.1" xmlns="http://www.w3.org/2000/svg" xmlns:xlink="http://www.w3.org/1999/xlink" x="0px" y="0px"
	 viewBox="0 0 124.2 49" style="enable-background:new 0 0 124.2 49;" xml:space="preserve">
<style type="text/css">
	.st0{display:none;}
	.st1{fill:#F7F7F7;}
	.st2{fill:#E7E200;}
	.st3{enable-background:new    ;}
</style>
<g id="Calque_3" class="st0">
	
		<image style="display:inline;overflow:visible;" width="175" height="69" xlink:href="logo-visa-en-ligne.png"  transform="matrix(0.7096 0 0 0.7096 0 0)">
	</image>
</g>
<g id="Fond">
	<path class="st1" d="M124.2,16.7V49H0V16.7c2.9-0.8,6.3-2.6,8.4-6.1C12.6,3.5,22,0,22,0h80.2c0,0,9.4,3.5,13.6,10.6
		C117.9,14.1,121.3,15.8,124.2,16.7z"/>
</g>
<g id="Calque_1">
	<g>
		<g id="Calque_1-2">
			<path d="M44,26.5h-7.6L29.2,4.2h7.2L39.8,18c0.2,0.8,0.4,1.6,0.4,2.5h0.2c0.1-0.9,0.3-1.8,0.5-2.6l3.3-13.7h7L44,26.5z"/>
			<path d="M80.7,19.7c0,1.4-0.4,2.7-1.2,3.9c-0.8,1.1-2,2-3.3,2.5c-1.7,0.6-3.4,0.9-5.2,0.8c-2.2,0-4.4-0.4-6.4-1.2v-6.1
				c1,0.7,2,1.3,3.1,1.7c1,0.4,2.1,0.6,3.2,0.6c0.6,0,1.2-0.1,1.7-0.4c0.4-0.2,0.6-0.7,0.6-1.2c0-0.4-0.1-0.7-0.3-1
				c-0.3-0.3-0.6-0.6-0.9-0.8c-0.7-0.4-1.5-0.7-2.3-1c-3.6-1.3-5.4-3.6-5.4-6.6c-0.1-2,0.9-4,2.5-5.2c1.9-1.4,4.2-2.1,6.6-1.9
				c0.8,0,1.5,0,2.2,0.1C76.3,4,76.8,4,77.4,4.1c0.5,0.1,1.3,0.3,2.3,0.5v5.7c-1.7-1-3.6-1.5-5.5-1.5c-0.6,0-1.3,0.1-1.8,0.4
				c-0.4,0.2-0.7,0.7-0.7,1.2c0,0.5,0.2,0.9,0.5,1.2c0.7,0.5,1.5,0.9,2.3,1.2c1.7,0.6,3.3,1.6,4.7,3C80.2,16.9,80.7,18.3,80.7,19.7z
				"/>
			<path d="M97.6,26.5l-1-4.1H90l-1.1,4.1h-7.3l7.7-22.3h8.3l7.2,22.3H97.6z M93.4,9h-0.2c0,0.4-0.1,0.8-0.2,1.2
				c-0.1,0.6-0.8,3-1.9,7.3h4.3l-1.5-6.1C93.6,10.7,93.5,9.9,93.4,9z"/>
			<polygon points="53.8,11.7 53.8,26.5 60.6,26.5 60.6,9.3 			"/>
			<polygon class="st2" points="53.8,4.2 53.8,9.6 60.6,7.1 60.6,4.2 			"/>
			<g class="st3">
				<path d="M47,36.5c0,0.3,0.2,0.5,0.4,0.6c0.3,0.1,0.6,0.2,1,0.2c0.6,0,1.1-0.1,1.7-0.3v1.6c-0.6,0.2-1.3,0.4-2.2,0.4
					c-1,0-1.9-0.3-2.4-0.8s-1-1.4-1-2.3c0-0.6,0.1-1.2,0.4-1.7c0.3-0.5,0.6-0.9,1.1-1.2s1.1-0.4,1.7-0.4c0.6,0,1.2,0.1,1.6,0.4
					c0.4,0.2,0.8,0.6,1,1c0.2,0.4,0.3,1,0.3,1.5v0.9H47V36.5z M48.5,35.2c0-0.7-0.2-1-0.7-1c-0.2,0-0.4,0.1-0.5,0.3
					c-0.2,0.1-0.3,0.4-0.3,0.7H48.5z"/>
				<path d="M55.4,38.8v-3.3c0-0.4-0.1-0.6-0.2-0.8c-0.1-0.2-0.3-0.2-0.5-0.2s-0.4,0.1-0.5,0.3C54.1,35,54,35.2,54,35.4v3.4h-2.5v-6
					H54v0.9l0,0c0.2-0.3,0.5-0.6,0.8-0.8c0.3-0.2,0.7-0.3,1.1-0.3c1.3,0,2,0.8,2,2.5v3.7H55.4z"/>
				<path d="M62.4,38.8v-8.9h2.5v8.9H62.4z"/>
				<path d="M68.8,31.1c0,0.4-0.1,0.6-0.4,0.9c-0.3,0.2-0.6,0.3-1,0.3s-0.7-0.1-1-0.3c-0.3-0.2-0.4-0.5-0.4-0.9
					c0-0.3,0.1-0.6,0.4-0.8c0.3-0.2,0.6-0.3,1-0.3s0.8,0.1,1,0.3C68.6,30.5,68.8,30.8,68.8,31.1z M66.1,38.8v-6h2.5v6H66.1z"/>
				<path d="M76.3,37.9c0,1.2-0.4,2.1-1.1,2.7c-0.7,0.6-1.8,1-3.2,1c-0.4,0-0.7,0-1.1-0.1s-0.6-0.1-0.8-0.2v-2
					c0.3,0.2,0.5,0.3,0.9,0.4s0.6,0.1,0.9,0.1c0.6,0,1-0.1,1.3-0.4c0.3-0.3,0.5-0.6,0.5-1.1v-0.4l0,0c-0.2,0.3-0.4,0.5-0.7,0.7
					s-0.7,0.2-1,0.2c-0.8,0-1.4-0.3-1.8-0.8c-0.5-0.5-0.7-1.3-0.7-2.2c0-0.7,0.1-1.2,0.4-1.7c0.2-0.5,0.6-0.9,1-1.1
					c0.4-0.3,0.9-0.4,1.4-0.4c0.7,0,1.2,0.3,1.6,0.8l0,0v-0.6h2.5L76.3,37.9L76.3,37.9z M73.9,35.6c0-0.4-0.1-0.6-0.2-0.8
					c-0.2-0.2-0.4-0.3-0.6-0.3c-0.3,0-0.5,0.1-0.7,0.4c-0.2,0.3-0.3,0.6-0.3,1c0,0.4,0.1,0.7,0.2,0.9c0.1,0.2,0.4,0.3,0.7,0.3
					s0.5-0.1,0.7-0.3c0.2-0.2,0.2-0.5,0.2-0.9C73.9,35.9,73.9,35.6,73.9,35.6z"/>
				<path d="M81.5,38.8v-3.3c0-0.4-0.1-0.6-0.2-0.8c-0.1-0.2-0.3-0.2-0.5-0.2c-0.2,0-0.4,0.1-0.5,0.3s-0.2,0.4-0.2,0.6v3.4h-2.5v-6
					h2.5v0.9l0,0c0.2-0.3,0.5-0.6,0.8-0.8c0.3-0.2,0.7-0.3,1.1-0.3c1.3,0,2,0.8,2,2.5v3.7H81.5z"/>
				<path d="M87.2,36.5c0,0.3,0.2,0.5,0.4,0.6c0.2,0.1,0.6,0.2,1,0.2c0.6,0,1.1-0.1,1.7-0.3v1.6C89.7,38.8,89,39,88.1,39
					c-1,0-1.9-0.3-2.4-0.8c-0.6-0.5-0.9-1.3-0.9-2.2c0-0.6,0.1-1.2,0.4-1.7c0.3-0.5,0.6-0.9,1.1-1.2s1.1-0.4,1.7-0.4
					s1.2,0.1,1.6,0.4c0.4,0.2,0.8,0.6,1,1c0.2,0.4,0.3,1,0.3,1.5v0.9H87.2z M88.7,35.2c0-0.7-0.2-1-0.7-1c-0.2,0-0.4,0.1-0.5,0.3
					c-0.1,0.2-0.2,0.4-0.2,0.8L88.7,35.2L88.7,35.2z"/>
			</g>
		</g>
	</g>
</g>
</svg>
