<svg xmlns="http://www.w3.org/2000/svg" viewBox="0 0 22.58 31.71"><title>ICONES_Fichier 50</title><g id="Calque_2" data-name="Calque 2"><g id="Calque_1-2" data-name="Calque 1"><path d="M0,13.83v5.48A19.77,19.77,0,0,0,1.47,27c1,2.37,2.51,4.75,4.59,4.75H8V13.83Z" style="fill:#e0e066"/><path d="M16,13.83V19.5a19,19,0,0,1-1.19,6.75c-1,2.58-2.58,5.46-4.88,5.46H8V13.83Z" style="fill:#cccc02"/><path d="M9.46.5S12.29,2.67,11,5s-2.64,4.67-.57,6.33" style="fill:none;stroke:#cccc02;stroke-linecap:round;stroke-miterlimit:10"/><path d="M5.21,5.92S6.62,7,6,8.17s-1.32,2.33-.29,3.17" style="fill:none;stroke:#e0e066;stroke-linecap:round;stroke-miterlimit:10"/><path d="M17.6,14.33V16a5.79,5.79,0,0,1-1.41,10.8,17.18,17.18,0,0,1-.83,1.75A7.37,7.37,0,0,0,17.6,14.33Z" style="fill:#cccc02;stroke:#cccc02;stroke-miterlimit:10;stroke-width:0.5px"/></g></g></svg>