<svg xmlns="http://www.w3.org/2000/svg" xmlns:xlink="http://www.w3.org/1999/xlink" viewBox="0 0 31.25 23.13"><defs><clipPath id="clip-path" transform="translate(0 -1.51)"><polygon points="9.29 19.03 33.11 0 36.99 20.13 32.33 29.97 10.61 29.97 4.77 25.44 7.49 19.63 9.29 19.03" style="fill:none"/></clipPath></defs><title>ICONES_Fichier 47</title><g id="Calque_2" data-name="Calque 2"><g id="Calque_1-2" data-name="Calque 1"><polygon points="14.45 16.67 11.1 13.59 31.25 0 0 9 9.38 14.51 9.38 23.13 11.5 23.13 16.7 18.82 22.75 22.38 31.25 0 14.45 16.67" style="fill:#e0e066"/><g style="clip-path:url(#clip-path)"><polygon points="14.45 16.67 11.1 13.59 31.25 0 0 9 9.38 14.51 9.38 23.13 11.5 23.13 16.7 18.82 22.75 22.38 31.25 0 14.45 16.67" style="fill:#cccc02"/></g></g></g></svg>