<?xml version="1.0" encoding="utf-8"?>
<!-- Generator: Adobe Illustrator 23.0.6, SVG Export Plug-In . SVG Version: 6.00 Build 0)  -->
<svg version="1.1" id="Calque_1" xmlns="http://www.w3.org/2000/svg" xmlns:xlink="http://www.w3.org/1999/xlink" x="0px" y="0px"
	 viewBox="0 0 645 117" style="enable-background:new 0 0 645 117;" xml:space="preserve">
<style type="text/css">
	.st0{fill:#CCCC02;}
	.st1{fill:#F8F8F8;}
	.st2{fill:#ADADAD;}
</style>
<title>AVIS02Fichier 153</title>
<g>
	<g id="Calque_1-2">
		<rect class="st0" width="116.9" height="117"/>
		<polygon class="st1" points="58.4,12.2 69.6,46.7 105.9,46.7 76.6,68.1 87.8,102.6 58.4,81.3 29.1,102.6 40.3,68.1 11,46.7 
			47.2,46.7 		"/>
		<rect x="132" class="st0" width="116.9" height="117"/>
		<polygon class="st1" points="190.5,12.2 201.7,46.7 237.9,46.7 208.6,68.1 219.8,102.6 190.5,81.3 161.1,102.6 172.3,68.1 
			143,46.7 179.3,46.7 		"/>
		<rect x="264.1" class="st2" width="116.9" height="117"/>
		<polygon class="st1" points="322.5,12.2 333.7,46.7 370,46.7 340.6,68.1 351.8,102.6 322.5,81.3 293.2,102.6 304.4,68.1 275,46.7 
			311.3,46.7 		"/>
		<rect x="396.1" class="st2" width="116.9" height="117"/>
		<polygon class="st1" points="454.5,12.2 465.7,46.7 502,46.7 472.7,68.1 483.9,102.6 454.5,81.3 425.2,102.6 436.4,68.1 
			407.1,46.7 443.3,46.7 		"/>
		<rect x="528.1" class="st2" width="116.9" height="117"/>
		<polygon class="st1" points="586.6,12.2 597.8,46.7 634,46.7 604.7,68.1 615.9,102.6 586.6,81.3 557.2,102.6 568.4,68.1 
			539.1,46.7 575.4,46.7 		"/>
	</g>
</g>
</svg>
