<svg xmlns="http://www.w3.org/2000/svg" viewBox="0 0 645 117"><title>AVIS02Fichier 153</title><g id="Calque_2" data-name="Calque 2"><g id="Calque_1-2" data-name="Calque 1"><rect width="116.86" height="117" style="fill:#cccc02"/><polygon points="58.43 12.21 69.64 46.73 105.9 46.73 76.56 68.07 87.77 102.6 58.43 81.26 29.1 102.6 40.3 68.07 10.96 46.73 47.23 46.73 58.43 12.21" style="fill:#f8f8f8"/><rect x="132.03" width="116.86" height="117" style="fill:#cccc02"/><polygon points="190.47 12.21 201.67 46.73 237.93 46.73 208.6 68.07 219.8 102.6 190.47 81.26 161.13 102.6 172.34 68.07 143 46.73 179.26 46.73 190.47 12.21" style="fill:#f8f8f8"/><rect x="264.07" width="116.86" height="117" style="fill:#cccc02"/><polygon points="322.5 12.21 333.7 46.73 369.97 46.73 340.63 68.07 351.84 102.6 322.5 81.26 293.16 102.6 304.37 68.07 275.03 46.73 311.3 46.73 322.5 12.21" style="fill:#f8f8f8"/><rect x="396.1" width="116.86" height="117" style="fill:#cccc02"/><polygon points="454.53 12.21 465.74 46.73 502 46.73 472.67 68.07 483.87 102.6 454.53 81.26 425.2 102.6 436.4 68.07 407.07 46.73 443.33 46.73 454.53 12.21" style="fill:#f8f8f8"/><rect x="528.14" width="116.86" height="117" style="fill:#cccc02"/><polygon points="586.57 12.21 597.77 46.73 634.03 46.73 604.7 68.07 615.9 102.6 586.57 81.26 557.23 102.6 568.44 68.07 539.1 46.73 575.36 46.73 586.57 12.21" style="fill:#f8f8f8"/></g></g></svg>