<svg xmlns="http://www.w3.org/2000/svg" viewBox="0 0 42.73 44.6"><title>ICONES_Fichier 36</title><g id="Calque_2" data-name="Calque 2"><g id="Calque_1-2" data-name="Calque 1"><path d="M40.27,4.75c-2.94,0-2.19,1.88-6.5,1.88s-7.56-3.19-9.44-5.06A4.49,4.49,0,0,0,21.4,0h-.06A4.49,4.49,0,0,0,18.4,1.56C16.52,3.44,13.27,6.63,9,6.63S5.4,4.75,2.46,4.75C-.11,4.75,0,8.47,0,9.64v5.13a17.47,17.47,0,0,0,.56,4.5C2.3,25.32,9.65,41.42,21.34,44.59V42.12h.06v2.46c12.67-3.21,19-19.27,20.77-25.32a17.47,17.47,0,0,0,.56-4.5V9.64C42.73,8.47,42.84,4.75,40.27,4.75Zm-22.35,6.4c0-1.32,1.75-2.51,1.75-2.51a16.62,16.62,0,0,0,4.42.62,1.48,1.48,0,0,1,1.49,1,2.17,2.17,0,0,1-.19,1.51,3.58,3.58,0,0,1-1.93,2.09V15a4.14,4.14,0,0,1-1.82,2.42S19.9,16.27,19.9,15V13.93S17.92,12.48,17.92,11.15Zm3.72-5.57a3.88,3.88,0,0,1,4,3.34c-.57-.73-1.5-.85-2.92-.83a10.61,10.61,0,0,1-3.41-.83,3,3,0,0,1-1.67,1.67A3.88,3.88,0,0,1,21.64,5.59ZM27.18,23.2l-.08,0v0H16.19v0l-.08,0a2,2,0,0,1-1.16-2c0-5.21,4.14-5.32,4.18-5.32h.06V16c0,1.3,2.19,2.51,2.45,2.65.26-.14,2.45-1.35,2.45-2.65v-.06h.06s4.18.11,4.18,5.32A2,2,0,0,1,27.18,23.2Z" style="fill:#fff"/><rect x="24.18" y="23.78" width="2.36" height="15.94" transform="translate(24.39 -8.87) rotate(37.25)" style="fill:#cc0"/><polygon points="21.1 35.54 15.78 30.22 14.11 31.89 19.66 37.44 21.1 35.54" style="fill:#cc0"/><polygon points="21.29 44.58 21.36 44.6 21.45 44.57 21.53 44.42 21.22 44.41 21.29 44.58" style="fill:#fff"/><rect x="21.1" y="41.85" width="0.66" height="2.56" style="fill:#fff"/></g></g></svg>