<svg xmlns="http://www.w3.org/2000/svg" viewBox="0 0 27.88 12.76"><title>ICONES_Fichier 31</title><g id="Calque_2" data-name="Calque 2"><g id="Calque_1-2" data-name="Calque 1"><path d="M13.94,8.12a27.75,27.75,0,0,0-7.1-.67C.17,7.45,0,11.4,0,11.4s0,0,.07,0L0,11.4v1s.7-1.32,5.51-1.32H6.63a25.62,25.62,0,0,1,7.31,1Z" style="fill:#f2ec00"/><path d="M13.94,12.09a27.75,27.75,0,0,0,7.1.67c6.67,0,6.83-3.95,6.83-3.95s0,0-.07,0l.07,0v-1s-.7,1.32-5.51,1.32H21.25a25.62,25.62,0,0,1-7.31-1Z" style="fill:#f2ec00"/><path d="M13.94.67A27.75,27.75,0,0,0,6.83,0C.17,0,0,3.95,0,3.95s0,0,.07,0L0,3.95V5S.7,3.63,5.51,3.63H6.63a25.62,25.62,0,0,1,7.31,1Z" style="fill:#fff"/><path d="M13.94,4.64a27.75,27.75,0,0,0,7.1.67c6.67,0,6.83-3.95,6.83-3.95s0,0-.07,0l.07,0v-1s-.7,1.32-5.51,1.32H21.25a25.62,25.62,0,0,1-7.31-1Z" style="fill:#fff"/></g></g></svg>