<svg xmlns="http://www.w3.org/2000/svg" viewBox="0 0 28 13"><title>VAGUEFichier 127</title><g id="Calque_2" data-name="Calque 2"><g id="Calque_1-2" data-name="Calque 1"><path d="M22.47,9.3H21.35a25.41,25.41,0,0,1-7.35-1h0a27.5,27.5,0,0,0-7.14-.68c-6.7,0-6.86,4-6.86,4s0,0,.07,0l-.07,0v1s.71-1.35,5.53-1.35H6.65a25.41,25.41,0,0,1,7.35,1h0a27.5,27.5,0,0,0,7.14.68C27.83,13,28,9,28,9s0,0-.07,0L28,9V8S27.29,9.3,22.47,9.3Z" style="fill:#f2ec00"/><path d="M22.47,1.72H21.35A25.41,25.41,0,0,1,14,.68h0A27.5,27.5,0,0,0,6.86,0C.17,0,0,4,0,4S0,4,.07,4L0,4V5S.71,3.7,5.53,3.7H6.65a25.41,25.41,0,0,1,7.35,1h0a27.5,27.5,0,0,0,7.14.68c6.7,0,6.86-4,6.86-4s0,0-.07,0l.07,0v-1S27.29,1.71,22.47,1.72Z" style="fill:#fff"/></g></g></svg>