<?xml version="1.0" encoding="iso-8859-1"?>
<!-- Generator: Adobe Illustrator 19.0.0, SVG Export Plug-In . SVG Version: 6.00 Build 0)  -->
<svg version="1.1" id="Capa_1" xmlns="http://www.w3.org/2000/svg" xmlns:xlink="http://www.w3.org/1999/xlink" x="0px" y="0px"
	 viewBox="0 0 512 512" style="enable-background:new 0 0 512 512;" xml:space="preserve">
<g>
	<g>
		<path d="M452,120h-60c-19.468,0-37.405,9.716-48.003,23.789L294.324,210H270c-16.538,0-30,13.462-30,30c0,16.538,13.462,30,30,30
			h54.324L362,219.741V512h45V330h30v182h45V331.846l9.99-3.545C503.958,324.053,512,312.686,512,300V180
			C512,146.909,485.091,120,452,120z"/>
	</g>
</g>
<g>
	<g>
		<circle cx="437" cy="45" r="45"/>
	</g>
</g>
<g>
	<g>
		<circle cx="75" cy="45" r="45"/>
	</g>
</g>
<g>
	<g>
		<path d="M218.344,210h-0.668l-49.673-66.211C157.405,129.716,139.468,120,120,120H60c-33.091,0-60,26.909-60,60v120
			c0,12.686,8.042,24.053,20.01,28.301l9.99,3.545V512h45V330h30v182h45V219.741L187.676,270h30.668
			c-5.167-8.86-8.344-19.023-8.344-30S213.177,218.86,218.344,210z"/>
	</g>
</g>
<g>
</g>
<g>
</g>
<g>
</g>
<g>
</g>
<g>
</g>
<g>
</g>
<g>
</g>
<g>
</g>
<g>
</g>
<g>
</g>
<g>
</g>
<g>
</g>
<g>
</g>
<g>
</g>
<g>
</g>
</svg>
