<?xml version="1.0" encoding="utf-8"?>
<!-- Generator: Adobe Illustrator 21.1.0, SVG Export Plug-In . SVG Version: 6.00 Build 0)  -->
<svg version="1.1" id="Calque_1" xmlns="http://www.w3.org/2000/svg" xmlns:xlink="http://www.w3.org/1999/xlink" x="0px" y="0px"
	 viewBox="0 0 64.1 66.1" style="enable-background:new 0 0 64.1 66.1;" xml:space="preserve">
<g>
	<path d="M62.9,29.3c0,5.9-1.2,10.7-3.5,14.3C57,47.2,53.8,49,49.7,49c-2.3,0-4.2-0.7-5.6-2.1s-2.3-3.3-2.5-5.7h-0.2
		c-1.1,2.6-2.7,4.6-4.8,5.9c-2.1,1.3-4.6,2-7.4,2c-3.9,0-6.8-1.3-8.9-3.8c-2.1-2.5-3.2-6-3.2-10.6c0-5.3,1.6-9.6,4.7-12.9
		c3.1-3.3,7.2-5,12.3-5c3.6,0,7.3,0.5,11.2,1.6l-0.9,18.1v1.2c0,2.7,0.5,4.7,1.4,6.1c0.9,1.4,2.4,2.1,4.5,2.1c2.7,0,4.9-1.5,6.6-4.6
		c1.7-3,2.6-7,2.6-11.9c0-5.1-1-9.5-3.1-13.3c-2.1-3.8-5-6.7-8.8-8.8c-3.8-2-8.2-3.1-13.1-3.1c-6,0-11.3,1.3-15.8,3.9
		c-4.6,2.6-8.1,6.3-10.5,11c-2.5,4.7-3.7,10.2-3.7,16.3c0,8.4,2.2,14.9,6.5,19.4c4.3,4.6,10.5,6.9,18.5,6.9c2.4,0,4.9-0.2,7.4-0.7
		c2.5-0.5,5.5-1.4,9-2.7v3.9c-5.3,2.1-10.7,3.1-16.2,3.1c-9.1,0-16.2-2.6-21.3-7.8C3.3,52.2,0.8,45,0.8,35.7C0.8,29,2.2,23,5,17.7
		c2.8-5.3,6.8-9.5,12-12.4c5.2-2.9,11-4.4,17.5-4.4c5.6,0,10.6,1.2,14.9,3.5c4.3,2.3,7.6,5.6,10,9.9C61.7,18.6,62.9,23.6,62.9,29.3z
		 M21.1,34.5c0,3.7,0.7,6.5,2.1,8.4c1.4,1.9,3.7,2.8,6.8,2.8c6.6,0,10.2-4.5,10.7-13.5l0.6-11.4c-2.1-0.7-4.6-1.1-7.5-1.1
		c-3.9,0-7,1.3-9.3,4C22.3,26.5,21.1,30.1,21.1,34.5z"/>
</g>
</svg>
