<?xml version="1.0"?>
<svg xmlns="http://www.w3.org/2000/svg" id="Layer_1" data-name="Layer 1" viewBox="0 0 512 512" width="512" height="512"><title>security check</title><path d="M481.94,316l-86.193-45.93a7,7,0,0,0-6.656.039l-83.807,45.93a7,7,0,0,0-3.636,6.139v33.962l-56.931-18.457V305.366a102.7,102.7,0,0,0,48.22-68.845l4.157-14.295a32.868,32.868,0,0,0,21.759-39.064,26.186,26.186,0,0,0-17.059-18.723V117.763a109.763,109.763,0,1,0-219.526,0v46.66a26.183,26.183,0,0,0-17.1,18.74,32.867,32.867,0,0,0,21.759,39.063l4.156,14.294A102.7,102.7,0,0,0,139.3,305.366v32.319L68.474,360.648c-19.783,6.414-34.784,21.862-40.126,41.319-.209.76-.4,1.525-.582,2.291a57.079,57.079,0,0,0-1.414,13.125v51.6a7,7,0,0,0,7,7H343.23a127.231,127.231,0,0,0,34.5,22.368l11.631,5.07a7.006,7.006,0,0,0,5.573.01l13.1-5.657a126.683,126.683,0,0,0,77.617-116.788v-58.8A7,7,0,0,0,481.94,316ZM200.894,119.792c8.93,9.5,36.973,34.724,86.9,39.854v3.6c-19.341-.475-76.523-4.717-121.935-36.891l.628-.082A298.465,298.465,0,0,0,200.894,119.792ZM96.268,117.763a95.763,95.763,0,1,1,191.526,0v27.785c-36.665-4.161-60.156-20.4-71.319-30.247,18.724-6.145,34.673-14.222,47.671-24.19A7,7,0,0,0,255.626,80c-26.564,20.373-63.982,28.839-90.695,32.353a327.193,327.193,0,0,1-52.851,2.737,7,7,0,0,0-7.351,6.673l-1.7,37.313a6.665,6.665,0,0,1-3.541,5.646,7,7,0,0,1-3.22.837Zm8.508,115.83a6.74,6.74,0,0,0-.158-.66l-5.145-17.7a7,7,0,0,0-5.692-5.7,18.855,18.855,0,0,1-15.017-23.04,12.137,12.137,0,0,1,8.566-8.981,20.763,20.763,0,0,0,29.686-17.8l1.386-30.464c6.031.056,15.593-.057,27.29-.89,31.215,26.77,69.542,38.646,96.494,43.9,29.768,5.8,51.948,5.03,52.876,5,.157-.006.31-.025.464-.041a12.249,12.249,0,0,1,9.729,9.273,19,19,0,0,1,.539,4.5,18.782,18.782,0,0,1-15.557,18.542,7,7,0,0,0-5.691,5.7l-5.146,17.7q-.094.326-.158.66a88.762,88.762,0,0,1-174.466,0Zm87.233,86.36a102.406,102.406,0,0,0,38.708-7.582v26.2a90.033,90.033,0,0,1-77.415,0v-26.2A102.4,102.4,0,0,0,192.009,319.953ZM40.352,417.383a43.4,43.4,0,0,1,1.047-9.946q.207-.884.448-1.76c4.091-14.9,15.66-26.755,30.945-31.71l72.783-23.6a103.985,103.985,0,0,0,92.867,0l63.206,20.493v11.315A126.584,126.584,0,0,0,330,461.979H40.352Zm431.3-36.4a112.711,112.711,0,0,1-69.093,103.9l-.05.02-10.335,4.463-8.834-3.85a112.926,112.926,0,0,1-67.688-103.343v-55.85L392.5,284.207l79.146,42.175Z"/><path d="M362.884,377.63a7,7,0,0,0-10.647,9.092L374.9,413.266a7,7,0,0,0,9.742.883L437.435,371.2a7,7,0,0,0-8.836-10.859l-47.487,38.634Z"/></svg>
