<svg xmlns="http://www.w3.org/2000/svg" viewBox="0 0 25.38 26"><title>ICONES_Fichier 39</title><g id="Calque_2" data-name="Calque 2"><g id="Calque_1-2" data-name="Calque 1"><path d="M6,8.67A3.42,3.42,0,0,1,8.23,5.81c2-.58,2.35-1.25,2.52-2.25s3.75,3.31,3.62,5.11" style="fill:none;stroke:#000;stroke-miterlimit:10;stroke-width:0.75px"/><path d="M13.67,15.09s5.75-3.43,11.33,0a12.94,12.94,0,0,1-5.67,10.47S13,21.91,13.67,15.09Z" style="fill:none;stroke:#000;stroke-miterlimit:10;stroke-width:0.75px"/><path d="M7.67,10.87s.08,3.69-3.42,3.69S.38,17.65.38,19.1" style="fill:none;stroke:#000;stroke-miterlimit:10;stroke-width:0.75px"/><line x1="12.01" y1="11.48" x2="13.04" y2="12.71" style="fill:none;stroke:#000;stroke-miterlimit:10"/><polygon points="10.2 15.39 8.88 19.1 11.38 19.1 10.2 15.39"/><polygon points="9.25 13.79 10.2 15.39 11.16 13.79 9.25 13.79"/><path d="M14.28,1.39A6,6,0,0,0,10.17,0a5.9,5.9,0,0,0-4,1.36A4.82,4.82,0,0,0,4.72,5.06c0,4.62,3.88,7.17,4.66,7.64a1.53,1.53,0,0,0,1.58,0c.79-.47,4.73-3.06,4.73-7.64A4.8,4.8,0,0,0,14.28,1.39ZM10.57,12.05a.79.79,0,0,1-.81,0c-.72-.43-4.29-2.78-4.29-7A4.11,4.11,0,0,1,6.64,1.92,5.13,5.13,0,0,1,10,.76h0l.19,0,.19,0a5.18,5.18,0,0,1,3.4,1.18,4.08,4.08,0,0,1,1.17,3.12C14.94,9.23,11.3,11.62,10.57,12.05Z"/><path d="M9.63.78a8.72,8.72,0,0,1,1.15,0c.72,0-.15-.23-.15-.23L9.81.47Z"/><path d="M9.6,0a6.75,6.75,0,0,1,1.09,0c.44.05-.27.19-.27.19l-.6.11L9.63.13Z"/></g></g></svg>