<svg xmlns="http://www.w3.org/2000/svg" xmlns:xlink="http://www.w3.org/1999/xlink" viewBox="0 0 28.61 29.13"><defs><clipPath id="clip-path" transform="translate(-7.39 -11.59)"><path d="M9.17,26.33S17,26.58,18.92,25s8.49-2.75,12.18-2.75a11,11,0,0,0,6.23-.87L36.75,8.17,23.83,0,6.17,8.67,0,17.74l5.08,8Z" style="fill:none"/></clipPath></defs><title>ICONES_Fichier 8</title><g id="Calque_2" data-name="Calque 2"><g id="Calque_1-2" data-name="Calque 1"><rect x="11.95" y="16.67" width="21.09" height="21.09" rx="3.13" ry="3.13" transform="translate(-19.23 7.36) rotate(-36.89)" style="fill:#d8d8d8"/><rect x="10.36" y="14.56" width="21.09" height="21.09" rx="3.13" ry="3.13" transform="translate(-18.28 5.98) rotate(-36.89)" style="fill:#cc0"/><g style="clip-path:url(#clip-path)"><rect x="10.36" y="14.56" width="21.09" height="21.09" rx="3.13" ry="3.13" transform="translate(-18.28 5.98) rotate(-36.89)" style="fill:#d6d633"/></g><text transform="translate(5.83 13.87)" style="font-size:7.423210144042969px;fill:#fff;font-family:SegoeUIBlack, Segoe UI;letter-spacing:-0.009998201392635988em">PDF</text><path d="M11.83,16.38h.34a.55.55,0,0,1,.55.55v6.79a.72.72,0,0,1-.72.72h0a.72.72,0,0,1-.72-.72V16.94A.56.56,0,0,1,11.83,16.38Z" style="fill:#fff"/><path d="M20.88,30.94h.34a.55.55,0,0,1,.55.55v4.57a.72.72,0,0,1-.72.72h0a.72.72,0,0,1-.72-.72V31.5a.56.56,0,0,1,.56-.56Z" transform="translate(25.32 -15.86) rotate(48.87)" style="fill:#fff"/><path d="M17.74,30.94h0a.72.72,0,0,1,.72.72v4.57a.55.55,0,0,1-.55.55h-.34a.56.56,0,0,1-.56-.56V31.66a.72.72,0,0,1,.72-.72Z" transform="translate(47.52 31.19) rotate(131.13)" style="fill:#fff"/></g></g></svg>