<svg xmlns="http://www.w3.org/2000/svg" viewBox="0 0 35 40"><title>CHRONOMETREFichier 134</title><g id="Calque_2" data-name="Calque 2"><g id="Calque_1-2" data-name="Calque 1"><path d="M29.64,10.22l3.12-3.09L31.15,5.53,27.89,8.76a17.48,17.48,0,0,0-8.49-3.31V2.25h5V0H10.32V2.25h5V5.49A17.33,17.33,0,1,0,35,22.67,17.19,17.19,0,0,0,29.64,10.22ZM17.5,37.2A14.53,14.53,0,1,1,32.17,22.67,14.62,14.62,0,0,1,17.5,37.2Z" style="fill:#dbd600"/><polygon points="18.79 11.46 15.96 11.46 15.96 24.87 15.96 24.87 15.96 24.91 26.23 24.91 26.23 22.11 18.79 22.11 18.79 11.46" style="fill:#dbd600"/></g></g></svg>