<svg xmlns="http://www.w3.org/2000/svg" viewBox="0 0 33.64 35.08"><title>ICONES_Fichier 43</title><g id="Calque_2" data-name="Calque 2"><g id="Calque_1-2" data-name="Calque 1"><path d="M33.64,4.13H28a2,2,0,0,1-.53-.07c-1-.28-4.61-1.41-6.7-3.54A1.62,1.62,0,0,0,19.62,0h-2.8V1.62h2.5a2.86,2.86,0,0,1,1.43.66c1.44,1,5,3.22,6.8,3.22h6.09Z"/><path d="M0,4.13H5.64a2,2,0,0,0,.53-.07c1-.28,4.61-1.41,6.7-3.54A1.62,1.62,0,0,1,14,0h2.8V1.62h-2.5a2.86,2.86,0,0,0-1.43.66c-1.44,1-5,3.22-6.8,3.22H0Z"/><path d="M32,5.49V15.6a5.94,5.94,0,0,1-.37,2.09C30.56,20.51,26.94,28,16.82,33.33,6.7,28,3.08,20.51,2,17.68a5.94,5.94,0,0,1-.37-2.09V5.49H0v9.92a6.58,6.58,0,0,0,.42,2.31c1.17,3.13,5.18,11.39,16.41,17.36,11.23-6,15.24-14.22,16.41-17.36a6.58,6.58,0,0,0,.42-2.31V5.49Z"/></g></g></svg>