<svg xmlns="http://www.w3.org/2000/svg" viewBox="0 0 14.93 14.93"><title>ICONES_Fichier 22</title><g id="Calque_2" data-name="Calque 2"><g id="Calque_1-2" data-name="Calque 1"><path d="M14.45,2.46,11.72,5.19a1.13,1.13,0,0,1-1.59,0l-.57-.57A1.13,1.13,0,0,1,9.55,3L12.23.35a4.43,4.43,0,0,0-4.86.95L.2,8.46a.69.69,0,0,0,0,1l5.29,5.29a.69.69,0,0,0,1,0l7.17-7.17A4.42,4.42,0,0,0,14.45,2.46Z" style="fill:#cccc02"/><rect x="12.32" y="-0.48" width="0.85" height="5.33" rx="0.4" ry="0.4" transform="translate(5.28 -8.37) rotate(45)" style="fill:#cccc02"/></g></g></svg>