<?xml version="1.0" encoding="utf-8"?>
<!-- Generator: Adobe Illustrator 23.1.1, SVG Export Plug-In . SVG Version: 6.00 Build 0)  -->
<svg version="1.1" id="Calque_1" xmlns="http://www.w3.org/2000/svg" xmlns:xlink="http://www.w3.org/1999/xlink" x="0px" y="0px"
	 viewBox="0 0 506.5 509" style="enable-background:new 0 0 506.5 509;" xml:space="preserve">
<style type="text/css">
	.st0{fill:#CCCC00;}
</style>
<title>PERSROUEFichier 165</title>
<g>
	<g id="Calque_1-2">
		<path class="st0" d="M476.2,399.2c0-5-0.5-10.1-1.4-15l31.7-12.4l-12.4-31.9l-32.9,12.8c-5.2-7.2-11.7-13.5-19-18.6l13-33.2
			l-31.9-12.4l-12.8,32.8c-9.2-1.6-18.6-1.5-27.8,0.2l-12.9-33L338,301l13.3,34c-7.3,5.2-13.6,11.7-18.7,19l-32.7-12.7l-12.4,31.9
			l32,12.5c-1.6,9-1.6,18.2,0,27.2l-32,12.5l12.4,31.9l32.7-12.7c5,7.1,11.1,13.4,18.2,18.6L338,495.5l31.9,12.4l12.1-31.2
			c9.5,1.9,19.2,2,28.8,0.3l12.5,32l31.9-12.4L442.4,464c7.8-5.5,14.6-12.3,20-20.2l31.7,12.3l12.4-31.9L475.2,412
			C475.9,407.8,476.2,403.5,476.2,399.2z M397.2,448.7c-27.3,0-49.5-22.2-49.5-49.5s22.2-49.5,49.5-49.5s49.5,22.2,49.5,49.5l0,0
			C446.8,426.5,424.6,448.7,397.2,448.7z"/>
		<path class="st0" d="M314.9,274.5c-18.5-17.3-40.2-30.6-64-39.3c37.9-23.1,60.9-64.3,60.8-108.6C311.7,56.8,256.5,0,188.6,0
			S65.4,56.8,65.4,126.6c-0.1,44.4,23,85.5,60.9,108.6c-61,22.1-107.8,75.4-121.8,141.4c0,0-4.5,14.5-4.5,35.2h29.3
			c0,0-1.3-9.8,6.3-35.2c18-69.9,79.4-121.8,152.9-121.8c40.8,0,77.8,16,105.8,42.1C300.2,288.6,307.1,281,314.9,274.5z M95.7,153.3
			c-10-36.9,1.6-76.2,30-101.7l0.9-0.8l0.7-0.6c17.2-14.8,39.2-22.9,61.9-22.9c53.5,0,96.9,44.6,96.9,99.5s-43.4,99.5-96.9,99.5
			C144.6,226.3,107,195.4,95.7,153.3z"/>
	</g>
</g>
</svg>
