<svg xmlns="http://www.w3.org/2000/svg" viewBox="0 0 43.43 19.79"><title>ICONES_Fichier 38</title><g id="Calque_2" data-name="Calque 2"><g id="Calque_1-2" data-name="Calque 1"><rect x="26.6" y="1.88" width="16.83" height="1.5"/><rect y="18.29" width="17.15" height="1.5"/><rect x="23.1" y="1.88" width="1.74" height="1.5"/><rect x="26.6" y="5.83" width="16.83" height="1.5"/><rect x="23.1" y="5.83" width="1.74" height="1.5"/><rect x="26.6" y="9.79" width="16.83" height="1.5"/><rect x="23.1" y="9.79" width="1.74" height="1.5"/><ellipse cx="8.68" cy="4.57" rx="3.94" ry="4.57"/><path d="M15.43,12.14a3.2,3.2,0,0,0-3-2.06l-.31,0a3.89,3.89,0,0,1-3.45,2.41,3.89,3.89,0,0,1-3.44-2.4,3.18,3.18,0,0,0-3.15,1.37h0S.72,13.08.72,18.29h15.7A14.84,14.84,0,0,0,15.43,12.14Z"/></g></g></svg>