<?xml version="1.0" encoding="utf-8"?>
<!-- Generator: Adobe Illustrator 23.1.1, SVG Export Plug-In . SVG Version: 6.00 Build 0)  -->
<svg version="1.1" id="Calque_1" xmlns="http://www.w3.org/2000/svg" xmlns:xlink="http://www.w3.org/1999/xlink" x="0px" y="0px"
	 viewBox="0 0 16.8 27.2" style="enable-background:new 0 0 16.8 27.2;" xml:space="preserve">
<style type="text/css">
	.st0{fill:none;stroke:#CCCC00;stroke-miterlimit:10;}
	.st1{fill:#CCCC00;}
</style>
<title>ICONES_Fichier 21</title>
<g>
	<g id="Calque_1-2">
		<circle class="st0" cx="8.2" cy="3.7" r="3.2"/>
		<path class="st0" d="M8.2,14.7L8.2,14.7c1.7,0,3.2,1.4,3.2,3.2v5.7c0,1.8-1.4,3.2-3.2,3.2l0,0c-1.7,0-3.2-1.4-3.2-3.2v-5.7
			C5.1,16.1,6.5,14.7,8.2,14.7z"/>
		<rect y="2.1" class="st1" width="5.4" height="1.6"/>
		<rect x="11.4" y="2.1" class="st1" width="5.4" height="1.6"/>
		<path class="st1" d="M12.3,6.3H3.9C2,6.3,0.6,7.8,0.6,9.6V19c0,1.8,1.5,3.3,3.3,3.3c0,0,0,0,0,0h1.2v-1H3.9c-1.3,0-2.3-1-2.3-2.3
			l0,0V9.6c0-1.3,1-2.3,2.3-2.3h8.4c1.3,0,2.3,1,2.3,2.3V19c0,1.3-1,2.3-2.3,2.3l0,0h-0.8v1h0.8c1.8,0,3.3-1.5,3.3-3.3c0,0,0,0,0,0
			V9.6C15.5,7.8,14.1,6.3,12.3,6.3z"/>
	</g>
</g>
</svg>
