<svg xmlns="http://www.w3.org/2000/svg" viewBox="0 0 16.8 27.25"><title>ICONES_Fichier 21</title><g id="Calque_2" data-name="Calque 2"><g id="Calque_1-2" data-name="Calque 1"><circle cx="8.25" cy="3.67" r="3.17" style="fill:none;stroke:#000;stroke-miterlimit:10"/><rect x="5.08" y="14.67" width="6.33" height="12.08" rx="3.17" ry="3.17" style="fill:none;stroke:#000;stroke-miterlimit:10"/><rect y="2.08" width="5.38" height="1.58"/><rect x="11.42" y="2.08" width="5.38" height="1.58"/><path d="M12.26,6.33H3.86A3.28,3.28,0,0,0,.58,9.61V19a3.28,3.28,0,0,0,3.28,3.28H5.08v-1H3.86A2.28,2.28,0,0,1,1.58,19V9.61A2.28,2.28,0,0,1,3.86,7.33h8.4a2.28,2.28,0,0,1,2.28,2.28V19a2.28,2.28,0,0,1-2.28,2.28h-.84v1h.84A3.28,3.28,0,0,0,15.54,19V9.61A3.28,3.28,0,0,0,12.26,6.33Z"/></g></g></svg>