<?xml version="1.0" encoding="utf-8"?>
<!-- Generator: Adobe Illustrator 23.1.1, SVG Export Plug-In . SVG Version: 6.00 Build 0)  -->
<svg version="1.1" id="Capa_1" xmlns="http://www.w3.org/2000/svg" xmlns:xlink="http://www.w3.org/1999/xlink" x="0px" y="0px"
	 viewBox="0 0 124 124" style="enable-background:new 0 0 124 124;" xml:space="preserve">
<style type="text/css">
	.st0{fill:#CCCC00;}
</style>
<g>
	<path class="st0" d="M101.2,16.7L52,22.3c-5,0.6-7.3,6.9-3.7,10.5l7.3,7.3c2.3,2.3,2.8,5.9,0.5,8.3L12.6,91.8
		c-2.3,2.3-2.5,5.9-0.1,8.3L24,111.6c2.3,2.3,6.2,2.3,8.5,0l43.5-43.5c2.3-2.3,5.7-2,8.1,0.3l7.3,7.3c3.5,3.5,9.8,1.3,10.3-3.7
		l6.1-48.5C108.3,19.6,105.1,16.2,101.2,16.7z"/>
</g>
</svg>
