<?xml version="1.0" encoding="utf-8"?>
<!-- Generator: Adobe Illustrator 23.1.1, SVG Export Plug-In . SVG Version: 6.00 Build 0)  -->
<svg version="1.1" id="Capa_1" xmlns="http://www.w3.org/2000/svg" xmlns:xlink="http://www.w3.org/1999/xlink" x="0px" y="0px"
	 viewBox="0 0 31.5 31.5" style="enable-background:new 0 0 31.5 31.5;" xml:space="preserve">
<style type="text/css">
	.st0{fill:#1E201D;}
</style>
<path class="st0" d="M10.2,22.7L9,24.1l-1.5-1.6l0,0l0.2-0.2C8.6,22.1,9.6,22.1,10.2,22.7z"/>
<path class="st0" d="M10.2,22.7L9,24.1l-0.1,0.1c-0.4,0.5-1.1,0.5-1.5,0.1c-0.5-0.4-0.5-1.1-0.1-1.6l0.2-0.2l0.2-0.2
	C8.6,22.1,9.6,22.1,10.2,22.7z"/>
<path class="st0" d="M27.2,5.4v14.1c0,0.6-0.5,1.1-1.1,1.1c-0.6,0-1.1-0.5-1.1-1.1V8.1l-16,16l0,0l1.3-1.4c-0.7-0.6-1.6-0.6-2.6-0.4
	L23.4,6.5H14c0-0.9-0.6-1.6-1.5-2.2h13.6C26.7,4.3,27.2,4.8,27.2,5.4z"/>
<path class="st0" d="M14,6.5h-2c-0.6,0-1.1-0.5-1.1-1.1c0-0.6,0.5-1.1,1.1-1.1h0.5C13.4,4.9,14,5.6,14,6.5z"/>
</svg>
