<?xml version="1.0" encoding="utf-8"?>
<!-- Generator: Adobe Illustrator 23.1.1, SVG Export Plug-In . SVG Version: 6.00 Build 0)  -->
<svg version="1.1" id="Capa_1" xmlns="http://www.w3.org/2000/svg" xmlns:xlink="http://www.w3.org/1999/xlink" x="0px" y="0px"
	 viewBox="0 0 512 512" style="enable-background:new 0 0 512 512;" xml:space="preserve">
<style type="text/css">
	.st0{fill:#9E9E9E;}
</style>
<g>
	<g>
		<path class="st0" d="M318.8,429.2v-0.4c0.4-0.2,0.7-0.6,0.7-1.1V405c0-0.7-0.6-1.3-1.3-1.3h-12.6L285,331.5c5.4-4.3,9-11,9-18.5
			c0-10.1-6.3-18.6-15.1-22.1c-7.9-55-11.9-144.3-13.5-189.6c4.2-4.1,7-10.9,7-18.7V54.3c0-10.5-5.2-19.3-12.1-21.9v-29
			c0-1.8-2-3.3-4.4-3.3c-2.5,0-4.5,1.5-4.5,3.3v29.2c-6.8,2.8-11.8,11.4-11.8,21.8v28.4c0,7.7,2.8,14.5,7,18.6
			c-1.6,45.2-5.5,134.4-13.4,189.4c-9.2,3.3-15.9,12-15.9,22.3c0,7.8,3.8,14.6,9.6,19l-20.5,71.8H194c-0.7,0-1.3,0.6-1.3,1.3v22.7
			c0,0.4,0.2,0.8,0.5,1v0.5L147.1,512h46.1c0,0,4.7-60.8,62.8-61.4c58.2,0.7,62.9,61.4,62.9,61.4H365L318.8,429.2z"/>
	</g>
</g>
</svg>
