<?xml version="1.0" encoding="utf-8"?>
<!-- Generator: Adobe Illustrator 21.1.0, SVG Export Plug-In . SVG Version: 6.00 Build 0)  -->
<svg version="1.1" id="Calque_1" xmlns="http://www.w3.org/2000/svg" xmlns:xlink="http://www.w3.org/1999/xlink" x="0px" y="0px"
	 viewBox="0 0 30 30" style="enable-background:new 0 0 30 30;" xml:space="preserve">
<style type="text/css">
	.st0{fill:#FBFBFB;}
	.st1{fill:url(#SVGID_1_);}
	.st2{fill:#EBEBEB;}
</style>
<title>ICONES_Fichier 60</title>
<g id="Calque_2">
	<g id="Calque_1-2">
		<path class="st0" d="M0.5,142.5H662l0,0v68.6c0,7.1-5.8,12.9-12.9,12.9l0,0H13.4c-7.1,0-12.9-5.8-12.9-12.9c0,0,0,0,0,0V142.5
			L0.5,142.5z"/>
		
			<linearGradient id="SVGID_1_" gradientUnits="userSpaceOnUse" x1="28.5275" y1="195.7178" x2="10.0275" y2="216.0078" gradientTransform="matrix(1 0 0 -1 0 225)">
			<stop  offset="0.66" style="stop-color:#F0F0F0"/>
			<stop  offset="1" style="stop-color:#2A2A28;stop-opacity:0.5"/>
		</linearGradient>
		<path class="st1" d="M30.5,0L0,29.4l0.3,0.1c5.9-2.9,12.1-5.3,18.5-7.1h0.2c0.4-0.1,0.7-0.2,1.1-0.3c1.5-0.4,3-0.6,4.5-0.8l0,0
			c2.2-0.3,4.4-1.1,4.5-5C29.1,9.2,27.3,3.8,30.5,0z"/>
		<path class="st2" d="M649.1,0H30.5l-1,1h619.6c6.9,0,12.4,5.6,12.4,12.4v197.6c0,6.9-5.6,12.4-12.4,12.4H13.4
			c-6.9,0-12.4-5.6-12.4-12.4V28.5l-1,1v181.6c0,7.4,6,13.4,13.4,13.4h635.6c7.4,0,13.4-6,13.4-13.4V13.4C662.5,6,656.5,0,649.1,0z"
			/>
	</g>
</g>
</svg>
