<svg xmlns="http://www.w3.org/2000/svg" xmlns:xlink="http://www.w3.org/1999/xlink" viewBox="0 0 662.5 224.5"><defs><linearGradient id="Dégradé_sans_nom_43" x1="28.53" y1="29.28" x2="10.03" y2="8.99" gradientUnits="userSpaceOnUse"><stop offset="0.66" stop-color="#f0f0f0"/><stop offset="1" stop-color="#2a2a28" stop-opacity="0.5"/></linearGradient></defs><title>ICONES_Fichier 60</title><g id="Calque_2" data-name="Calque 2"><g id="Calque_1-2" data-name="Calque 1"><path d="M.5,142.5H662a0,0,0,0,1,0,0v68.56A12.94,12.94,0,0,1,649.06,224H13.44A12.94,12.94,0,0,1,.5,211.06V142.5A0,0,0,0,1,.5,142.5Z" style="fill:#fbfbfb"/><path d="M30.5,0,0,29.44l.27.06a111.2,111.2,0,0,1,18.46-7.08l.2,0A5,5,0,0,0,20,22.11a37.77,37.77,0,0,1,4.47-.8h0c2.19-.26,4.41-1.09,4.5-5C29.13,9.22,27.31,3.75,30.5,0Z" style="fill:url(#Dégradé_sans_nom_43)"/><path d="M649.06,0H30.5l-1,1H649.06A12.46,12.46,0,0,1,661.5,13.44V211.06a12.46,12.46,0,0,1-12.44,12.44H13.44A12.46,12.46,0,0,1,1,211.06V28.46l-1,1V211.06A13.46,13.46,0,0,0,13.44,224.5H649.06a13.46,13.46,0,0,0,13.44-13.44V13.44A13.46,13.46,0,0,0,649.06,0Z" style="fill:#ebebeb"/></g></g></svg>