<?xml version="1.0" encoding="utf-8"?>
<!-- Generator: Adobe Illustrator 23.1.1, SVG Export Plug-In . SVG Version: 6.00 Build 0)  -->
<svg version="1.1" id="Calque_1" xmlns="http://www.w3.org/2000/svg" xmlns:xlink="http://www.w3.org/1999/xlink" x="0px" y="0px"
	 viewBox="0 0 96 140" style="enable-background:new 0 0 96 140;" xml:space="preserve">
<style type="text/css">
	.st0{fill:#CCCC00;}
</style>
<title>CALCULETTEFichier 168</title>
<g>
	<g id="Calque_1-2">
		<rect x="15.8" y="57" class="st0" width="13" height="13"/>
		<rect x="41.1" y="57" class="st0" width="13" height="13"/>
		<rect x="66.5" y="57" class="st0" width="13" height="13"/>
		<rect x="15.8" y="84.4" class="st0" width="13" height="13"/>
		<rect x="41.1" y="84.4" class="st0" width="13" height="13"/>
		<rect x="66.5" y="84.4" class="st0" width="13" height="13"/>
		<rect x="15.8" y="111.7" class="st0" width="13" height="13"/>
		<rect x="41.1" y="111.7" class="st0" width="13" height="13"/>
		<rect x="66.5" y="111.7" class="st0" width="13" height="13"/>
		<path class="st0" d="M0,0v140h96V0H0z M91,135H5V5h86V135z"/>
		<path class="st0" d="M79.2,15.2H15.8v26.9h63.4V15.2z M74.2,37.2H20.8v-17h53.5L74.2,37.2z"/>
	</g>
</g>
</svg>
