<svg xmlns="http://www.w3.org/2000/svg" viewBox="0 0 97 74"><title>CONVFichier 112</title><g id="Calque_2" data-name="Calque 2"><g id="Calque_1-2" data-name="Calque 1"><path d="M28.54,21.33C12.78,21.33,0,31.31,0,43.62,0,50.2,3.65,56.11,9.46,60.19,8.84,71.86,3.69,74,3.69,74c6.12,0,10.79-6.23,13.09-10.07a35.28,35.28,0,0,0,11.76,2c15.76,0,28.54-10,28.54-22.29S44.3,21.33,28.54,21.33Zm0,37.89c-11,0-20-7-20-15.6S17.51,28,28.54,28s20,7,20,15.6S39.57,59.22,28.54,59.22Z" style="fill:#cccc02"/><path d="M87.54,38.86c5.81-4.08,9.46-10,9.46-16.57C97,10,84.22,0,68.46,0,53.23,0,40.79,9.32,40,21.06A31.33,31.33,0,0,1,48.81,25a12.33,12.33,0,0,1-.32-2.68c0-8.61,8.94-15.6,20-15.6s20,7,20,15.6-8.94,15.6-20,15.6a24.07,24.07,0,0,1-10.67-2.43,17.84,17.84,0,0,1,1.29,6.63c0,.41,0,.83,0,1.24a35.77,35.77,0,0,0,9.43,1.25,35.29,35.29,0,0,0,11.76-2c2.3,3.85,7,10.07,13.09,10.07C93.31,52.67,88.16,50.53,87.54,38.86Z" style="fill:#cccc02"/></g></g></svg>