<svg xmlns="http://www.w3.org/2000/svg" viewBox="0 0 336 93"><title>ETIQUETTE02Fichier 115</title><g id="Calque_2" data-name="Calque 2"><g id="Calque_1-2" data-name="Calque 1"><path d="M336,0H117.85A46.51,46.51,0,0,0,71.33,46.5h0A46.51,46.51,0,0,0,117.85,93H336V0ZM277.41,70.87H126.59V24.29H277.41Z" style="fill:#f4f4f4"/><path d="M80.81,50.74H58.43c-12.84,0-19.36-8.67-25.11-16.32-2.51-3.34-4.88-6.49-7.49-8.43-7.89-5.86-23.5,1.81-23.66,1.88A1.5,1.5,0,0,1,.83,25.2c.71-.35,17.41-8.57,26.78-1.61,3,2.19,5.45,5.52,8.1,9,5.59,7.44,11.38,15.13,22.72,15.13H80.81a1.5,1.5,0,1,1,0,3Z" style="fill:#cdcccc"/><path d="M82.89,50.74H60.51c-12.66,0-19.17-5.87-24.92-11A36.29,36.29,0,0,0,28.12,34C20,29.95,4.22,35.22,4.06,35.28a1.5,1.5,0,1,1-1-2.84c.7-.24,17.18-5.73,26.37-1.1a38.39,38.39,0,0,1,8.12,6.14C42.94,42.29,49,47.75,60.51,47.75H82.89a1.5,1.5,0,1,1,0,3Z" style="fill:#cdcccc"/><ellipse cx="92.14" cy="49.24" rx="11.33" ry="11.32" style="fill:#fff"/><circle cx="92.14" cy="49.24" r="6.24" style="fill:#ccc"/><rect x="126.59" y="24.29" width="150.81" height="46.58" style="fill:#fff"/></g></g></svg>