<?xml version="1.0" encoding="utf-8"?>
<!-- Generator: Adobe Illustrator 21.1.0, SVG Export Plug-In . SVG Version: 6.00 Build 0)  -->
<svg version="1.1" id="Capa_1" xmlns="http://www.w3.org/2000/svg" xmlns:xlink="http://www.w3.org/1999/xlink" x="0px" y="0px"
	 viewBox="0 0 510 510" style="enable-background:new 0 0 510 510;" xml:space="preserve">
<style type="text/css">
	.st0{fill:#DAD500;}
</style>
<g>
	<g id="help">
		<path class="st0" d="M255,0C114.8,0,0,114.7,0,255s114.8,255,255,255s255-114.8,255-255S395.2,0,255,0z M280.5,433.5h-51v-51h51
			V433.5z M334,237.1l-22.9,23c-20.4,17.9-30.6,33.1-30.6,71.4h-51v-12.8c0-28,10.2-53.5,30.6-71.4l30.6-33.2
			c10.2-7.6,15.3-20.4,15.3-35.7c0-28.1-23-51-51-51s-51,22.9-51,51h-51c0-56.1,45.9-102,102-102s102,45.9,102,102
			C357,201.4,346.8,221.8,334,237.1z"/>
	</g>
</g>
</svg>
