<?xml version="1.0" encoding="utf-8"?>
<!-- Generator: Adobe Illustrator 21.1.0, SVG Export Plug-In . SVG Version: 6.00 Build 0)  -->
<svg version="1.1" id="Capa_1" xmlns="http://www.w3.org/2000/svg" xmlns:xlink="http://www.w3.org/1999/xlink" x="0px" y="0px"
	 viewBox="0 0 512 512" style="enable-background:new 0 0 512 512;" xml:space="preserve">
<style type="text/css">
	.st0{fill:#E2DD00;}
</style>
<g>
	<g>
		<g>
			<path class="st0" d="M256,0C156.2,0,75.3,80.9,75.3,180.7c0,65.9,35.3,123.5,87.9,155.1h61l-43.2-118c-2.4-6.6,1-14,7.6-16.4
				c6.6-2.4,14,1,16.4,7.6l46.5,126.8h9.1L307,209c2.4-6.6,9.8-10.1,16.4-7.6c6.6,2.4,10.1,9.8,7.6,16.4l-43.2,118h61
				c52.7-31.6,87.9-89.2,87.9-155.1C436.8,80.9,355.8,0,256,0z"/>
			<path class="st0" d="M179.7,466c0,7.1,5.7,12.8,12.8,12.8h28.9v7.7c0,14.1,11.4,25.6,25.6,25.6h18c14.1,0,25.6-11.4,25.6-25.6
				v-7.7h28.9c7.1,0,12.8-5.7,12.8-12.8V355.7H179.7V466z"/>
		</g>
	</g>
</g>
</svg>
