<?xml version="1.0" encoding="utf-8"?>
<!-- Generator: Adobe Illustrator 23.0.6, SVG Export Plug-In . SVG Version: 6.00 Build 0)  -->
<svg version="1.1" id="Calque_1" xmlns="http://www.w3.org/2000/svg" xmlns:xlink="http://www.w3.org/1999/xlink" x="0px" y="0px"
	 viewBox="0 0 12.4 14.4" style="enable-background:new 0 0 12.4 14.4;" xml:space="preserve">
<style type="text/css">
	.st0{fill:none;stroke:#ACADAC;stroke-miterlimit:10;}
	.st1{fill:#ACADAC;}
</style>
<title>ICONES_Fichier 6</title>
<g>
	<g id="Calque_1-2">
		<circle class="st0" cx="6.2" cy="8.2" r="5.7"/>
		<line class="st0" x1="6.2" y1="3.9" x2="6.2" y2="8.7"/>
		<line class="st0" x1="9.3" y1="8.2" x2="5.7" y2="8.2"/>
		<path class="st1" d="M9.3,0C8.5,0.2,7.9,0.7,7.5,1.4c1.7,0.4,3.2,1.4,4.2,2.8c0.9-1.1,0.9-2.7-0.2-3.6C10.9,0.1,10.1-0.2,9.3,0z"
			/>
		<path class="st1" d="M0,2.1c-0.1,0.7,0.1,1.5,0.6,2.1c1-1.5,2.5-2.5,4.3-2.8C4.2,0.1,2.7-0.4,1.4,0.2C0.7,0.6,0.1,1.3,0,2.1z"/>
	</g>
</g>
</svg>
