<?xml version="1.0" encoding="utf-8"?>
<!-- Generator: Adobe Illustrator 23.0.6, SVG Export Plug-In . SVG Version: 6.00 Build 0)  -->
<svg version="1.1" id="Layer_1" xmlns="http://www.w3.org/2000/svg" xmlns:xlink="http://www.w3.org/1999/xlink" x="0px" y="0px"
	 viewBox="0 0 485 485" style="enable-background:new 0 0 485 485;" xml:space="preserve">
<style type="text/css">
	.st0{fill:#ADADAD;}
</style>
<g>
	<path class="st0" d="M414,71C368.2,25.2,307.3,0,242.5,0S116.8,25.2,71,71S0,177.7,0,242.5S25.2,368.2,71,414s106.7,71,171.5,71
		s125.7-25.2,171.5-71s71-106.7,71-171.5S459.8,116.8,414,71z M242.5,455C125.3,455,30,359.7,30,242.5S125.3,30,242.5,30
		S455,125.3,455,242.5S359.7,455,242.5,455z"/>
	<polygon class="st0" points="297.8,114.4 170.2,242.5 297.8,370.6 319.1,349.4 212.5,242.5 319.1,135.6 	"/>
</g>
</svg>
