<svg xmlns="http://www.w3.org/2000/svg" viewBox="0 0 22.74 20.46"><title>ICONES_Fichier 4</title><g id="Calque_2" data-name="Calque 2"><g id="Calque_1-2" data-name="Calque 1"><circle cx="11.04" cy="7.5" r="3.69" style="fill:none;stroke:#dad500;stroke-miterlimit:10"/><path d="M5.9,15.67a5.31,5.31,0,0,1,10.28,0h1a6.33,6.33,0,0,0-12.37,0Z" style="fill:#dad500"/><rect width="1.5" height="4.58" style="fill:#dad500"/><rect x="1.54" y="-1.54" width="1.5" height="4.58" transform="translate(1.54 3.04) rotate(-90)" style="fill:#dad500"/><rect x="1.54" y="17.42" width="1.5" height="4.58" transform="translate(-17.42 22) rotate(-90)" style="fill:#dad500"/><rect y="15.88" width="1.5" height="4.58" transform="translate(1.5 36.33) rotate(180)" style="fill:#dad500"/><rect x="21.24" y="15.88" width="1.5" height="4.58" transform="translate(43.98 36.33) rotate(180)" style="fill:#dad500"/><rect x="19.7" y="17.42" width="1.5" height="4.58" transform="translate(40.15 -0.74) rotate(90)" style="fill:#dad500"/><rect x="19.7" y="-1.54" width="1.5" height="4.58" transform="translate(21.2 -19.7) rotate(90)" style="fill:#dad500"/><rect x="21.24" width="1.5" height="4.58" style="fill:#dad500"/></g></g></svg>