<?xml version="1.0" encoding="utf-8"?>
<!-- Generator: Adobe Illustrator 21.1.0, SVG Export Plug-In . SVG Version: 6.00 Build 0)  -->
<svg version="1.1" id="Calque_1" xmlns="http://www.w3.org/2000/svg" xmlns:xlink="http://www.w3.org/1999/xlink" x="0px" y="0px"
	 viewBox="0 0 8 12" style="enable-background:new 0 0 8 12;" xml:space="preserve">
<style type="text/css">
	.st0{fill:#E5E5E5;}
</style>
<title>LOCALISATIONFichier 120</title>
<g id="Calque_2">
	<g id="Calque_1-2">
		<path class="st0" d="M4,0C1.7,0.1-0.1,1.9,0,4.2c0,0,0,0,0,0C0,7.3,4,12,4,12s4-4.7,4-7.8C8.1,1.9,6.3,0.1,4,0C4,0,4,0,4,0z
			 M4,5.7C3.2,5.7,2.6,5,2.6,4.2c0-0.8,0.6-1.5,1.4-1.5c0.8,0,1.4,0.7,1.4,1.5C5.4,5,4.8,5.7,4,5.7z"/>
	</g>
</g>
</svg>
