<?xml version="1.0" encoding="utf-8"?>
<!-- Generator: Adobe Illustrator 21.1.0, SVG Export Plug-In . SVG Version: 6.00 Build 0)  -->
<svg version="1.1" id="Calque_1" xmlns="http://www.w3.org/2000/svg" xmlns:xlink="http://www.w3.org/1999/xlink" x="0px" y="0px"
	 viewBox="0 0 8.5 12.2" style="enable-background:new 0 0 8.5 12.2;" xml:space="preserve">
<style type="text/css">
	.st0{fill:#FFFFFF;}
</style>
<title>ICONES_Fichier 18</title>
<g id="Calque_2">
	<g id="Calque_1-2">
		<path class="st0" d="M4.3,0C1.9,0,0,1.9,0,4.2c0,0,0,0,0,0c0,3.2,4.3,7.9,4.3,7.9s4.3-4.7,4.3-7.9C8.5,1.9,6.6,0,4.3,0
			C4.3,0,4.3,0,4.3,0z M4.3,5.8c-0.8,0-1.5-0.7-1.5-1.5s0.7-1.5,1.5-1.5s1.5,0.7,1.5,1.5l0,0C5.8,5.1,5.1,5.8,4.3,5.8z"/>
	</g>
</g>
</svg>
