<?xml version="1.0" encoding="utf-8"?>
<!-- Generator: Adobe Illustrator 21.1.0, SVG Export Plug-In . SVG Version: 6.00 Build 0)  -->
<svg version="1.1" id="Calque_1" xmlns="http://www.w3.org/2000/svg" xmlns:xlink="http://www.w3.org/1999/xlink" x="0px" y="0px"
	 viewBox="0 0 76 38" style="enable-background:new 0 0 76 38;" xml:space="preserve">
<style type="text/css">
	.st0{fill:#FFFFFF;}
	.st1{enable-background:new    ;}
</style>
<title>LOGO_02Fichier 96</title>
<g id="Calque_2">
	<g id="Calque_1-2">
		<path class="st0" d="M11.8,14c-0.2,0.8-0.4,1.7-0.5,2.6h-0.2c-0.1-0.8-0.2-1.7-0.4-2.5L7.3,0.4H0l7.2,22.3h7.6l7.3-22.3h-7
			L11.8,14z"/>
		<path class="st0" d="M45.3,8.9c-0.8-0.3-1.6-0.7-2.3-1.2c-0.4-0.3-0.6-0.7-0.5-1.2c0-0.5,0.3-0.9,0.7-1.2C43.7,5.1,44.3,5,44.9,5
			c2,0,3.9,0.6,5.6,1.5V0.9c-1-0.3-1.7-0.4-2.3-0.5c-0.5-0.1-1.1-0.2-1.8-0.2C45.8,0,45.1,0,44.3,0c-2.4-0.1-4.7,0.6-6.6,1.9
			c-1.6,1.2-2.5,3.2-2.5,5.2c0,3.1,1.8,5.3,5.4,6.7c0.8,0.3,1.6,0.6,2.3,1c0.4,0.2,0.7,0.5,0.9,0.8c0.2,0.3,0.3,0.6,0.3,1
			c0,0.5-0.2,0.9-0.6,1.2c-0.5,0.3-1.1,0.4-1.7,0.4c-1.1,0-2.2-0.2-3.2-0.6c-1.1-0.4-2.2-1-3.1-1.7V22c2,0.8,4.2,1.2,6.4,1.2
			c1.8,0,3.5-0.2,5.2-0.8c1.3-0.5,2.5-1.3,3.3-2.5c0.8-1.1,1.2-2.5,1.2-3.9c0-1.5-0.5-2.9-1.4-4C48.9,10.6,47.2,9.6,45.3,8.9z"/>
		<path class="st0" d="M68.7,0.4h-8.4l-7.7,22.3H60l1-4.1h6.7l1,4.1H76L68.7,0.4z M62.2,13.8C63.3,9.5,63.9,7,64,6.5
			c0.1-0.4,0.2-0.8,0.2-1.2h0.2c0.1,0.8,0.2,1.7,0.4,2.5l1.6,6.1L62.2,13.8z"/>
		<polygon class="st0" points="24.7,22.7 31.5,22.7 31.5,5.5 24.7,7.9 		"/>
		<polygon class="st0" points="24.7,5.8 31.5,3.3 31.5,0.4 24.7,0.4 		"/>
		<g class="st1">
			<path class="st0" d="M16.6,32.7c0,0.3,0.2,0.5,0.4,0.6c0.3,0.1,0.6,0.2,1,0.2c0.6,0,1.1-0.1,1.7-0.3v1.6
				c-0.6,0.2-1.3,0.4-2.2,0.4c-1,0-1.9-0.3-2.4-0.8c-0.6-0.5-0.9-1.3-0.9-2.2c0-0.6,0.1-1.2,0.4-1.7c0.3-0.5,0.6-0.9,1.1-1.2
				c0.5-0.3,1.1-0.4,1.7-0.4c0.6,0,1.2,0.1,1.6,0.4s0.8,0.6,1,1c0.2,0.4,0.3,1,0.3,1.5v0.9H16.6z M18.1,31.4c0-0.7-0.2-1-0.7-1
				c-0.2,0-0.4,0.1-0.5,0.3c-0.1,0.2-0.2,0.4-0.2,0.8H18.1z"/>
			<path class="st0" d="M25.1,35v-3.3c0-0.4-0.1-0.6-0.2-0.8c-0.1-0.2-0.3-0.2-0.5-0.2c-0.2,0-0.4,0.1-0.5,0.3
				c-0.1,0.2-0.2,0.4-0.2,0.6V35h-2.5v-6h2.5v0.9h0c0.2-0.3,0.5-0.6,0.8-0.8c0.3-0.2,0.7-0.3,1.1-0.3c1.3,0,2,0.8,2,2.5V35H25.1z"/>
			<path class="st0" d="M32,35v-8.9h2.5V35H32z"/>
			<path class="st0" d="M38.4,27.3c0,0.4-0.1,0.6-0.4,0.9c-0.3,0.2-0.6,0.3-1,0.3c-0.4,0-0.7-0.1-1-0.3c-0.3-0.2-0.4-0.5-0.4-0.8
				c0-0.3,0.1-0.6,0.4-0.8c0.3-0.2,0.6-0.3,1-0.3c0.4,0,0.8,0.1,1,0.3C38.3,26.7,38.4,27,38.4,27.3z M35.7,35v-6h2.5v6H35.7z"/>
			<path class="st0" d="M46,34.1c0,1.2-0.4,2.1-1.1,2.7c-0.7,0.6-1.8,1-3.2,1c-0.4,0-0.7,0-1.1-0.1c-0.4-0.1-0.6-0.1-0.8-0.2v-2
				c0.3,0.2,0.5,0.3,0.9,0.4c0.3,0.1,0.6,0.1,0.9,0.1c0.6,0,1-0.1,1.3-0.4c0.3-0.3,0.5-0.6,0.5-1.1v-0.4h0c-0.2,0.3-0.4,0.5-0.7,0.7
				c-0.3,0.2-0.7,0.2-1,0.2c-0.8,0-1.4-0.3-1.8-0.8c-0.5-0.5-0.7-1.3-0.7-2.2c0-0.7,0.1-1.2,0.4-1.7c0.2-0.5,0.6-0.9,1-1.1
				s0.9-0.4,1.4-0.4c0.7,0,1.2,0.3,1.5,0.8h0V29H46V34.1z M43.5,31.8c0-0.4-0.1-0.6-0.2-0.8c-0.2-0.2-0.4-0.3-0.6-0.3
				c-0.3,0-0.5,0.1-0.7,0.4c-0.2,0.3-0.3,0.6-0.3,1c0,0.4,0.1,0.7,0.2,0.9c0.1,0.2,0.4,0.3,0.7,0.3c0.3,0,0.5-0.1,0.7-0.3
				c0.2-0.2,0.2-0.5,0.2-0.9V31.8z"/>
			<path class="st0" d="M51.1,35v-3.3c0-0.4-0.1-0.6-0.2-0.8c-0.1-0.2-0.3-0.2-0.5-0.2c-0.2,0-0.4,0.1-0.5,0.3
				c-0.1,0.2-0.2,0.4-0.2,0.6V35h-2.5v-6h2.5v0.9h0c0.2-0.3,0.5-0.6,0.8-0.8c0.3-0.2,0.7-0.3,1.1-0.3c1.3,0,2,0.8,2,2.5V35H51.1z"/>
			<path class="st0" d="M56.9,32.7c0,0.3,0.2,0.5,0.4,0.6s0.6,0.2,1,0.2c0.6,0,1.1-0.1,1.7-0.3v1.6c-0.6,0.2-1.3,0.4-2.2,0.4
				c-1,0-1.9-0.3-2.4-0.8c-0.6-0.5-0.9-1.3-0.9-2.2c0-0.6,0.1-1.2,0.4-1.7s0.6-0.9,1.1-1.2c0.5-0.3,1.1-0.4,1.7-0.4
				c0.6,0,1.2,0.1,1.6,0.4s0.8,0.6,1,1c0.2,0.4,0.3,1,0.3,1.5v0.9H56.9z M58.4,31.4c0-0.7-0.2-1-0.7-1c-0.2,0-0.4,0.1-0.5,0.3
				c-0.1,0.2-0.2,0.4-0.2,0.8H58.4z"/>
		</g>
	</g>
</g>
</svg>
