<?xml version="1.0" encoding="utf-8"?>
<!-- Generator: Adobe Illustrator 21.1.0, SVG Export Plug-In . SVG Version: 6.00 Build 0)  -->
<svg version="1.1" id="Calque_1" xmlns="http://www.w3.org/2000/svg" xmlns:xlink="http://www.w3.org/1999/xlink" x="0px" y="0px"
	 viewBox="0 0 77 38" style="enable-background:new 0 0 77 38;" xml:space="preserve">
<style type="text/css">
	.st0{fill:#FFFFFF;}
	.st1{fill:#E7E200;}
	.st2{enable-background:new    ;}
</style>
<title>LOGO_01Fichier 95</title>
<g id="Calque_2">
	<g id="Calque_1-2">
		<path class="st0" d="M14.8,22.7H7.2L0,0.4h7.2l3.4,13.8c0.2,0.8,0.4,1.6,0.4,2.5h0.2c0.1-0.9,0.3-1.8,0.5-2.6L15,0.4h7L14.8,22.7z
			"/>
		<path class="st0" d="M51.5,15.9c0,1.4-0.4,2.7-1.2,3.9c-0.8,1.1-2,2-3.3,2.5c-1.7,0.6-3.4,0.9-5.2,0.8c-2.2,0-4.4-0.4-6.4-1.2
			v-6.1c1,0.7,2,1.3,3.1,1.7c1,0.4,2.1,0.6,3.2,0.6c0.6,0,1.2-0.1,1.7-0.4c0.4-0.2,0.6-0.7,0.6-1.2c0-0.4-0.1-0.7-0.3-1
			c-0.3-0.3-0.6-0.6-0.9-0.8c-0.7-0.4-1.5-0.7-2.3-1c-3.6-1.3-5.4-3.6-5.4-6.6c-0.1-2,0.9-4,2.5-5.2c1.9-1.4,4.2-2.1,6.6-1.9
			c0.8,0,1.5,0,2.2,0.1s1.2,0.1,1.8,0.2c0.5,0.1,1.3,0.3,2.3,0.5v5.7c-1.7-1-3.6-1.5-5.5-1.5c-0.6,0-1.3,0.1-1.8,0.4
			c-0.4,0.2-0.7,0.7-0.7,1.2c0,0.5,0.2,0.9,0.5,1.2c0.7,0.5,1.5,0.9,2.3,1.2C47,9.6,48.6,10.6,50,12C51,13.1,51.5,14.5,51.5,15.9z"
			/>
		<path class="st0" d="M68.4,22.7l-1-4.1h-6.6l-1.1,4.1h-7.3l7.7-22.3h8.3l7.2,22.3L68.4,22.7z M64.2,5.2H64c0,0.4-0.1,0.8-0.2,1.2
			c-0.1,0.6-0.8,3-1.9,7.3h4.3l-1.5-6.1C64.4,6.9,64.3,6.1,64.2,5.2z"/>
		<polygon class="st0" points="24.6,7.9 24.6,22.7 31.4,22.7 31.4,5.5 		"/>
		<polygon class="st1" points="24.6,0.4 24.6,5.8 31.4,3.3 31.4,0.4 		"/>
		<g class="st2">
			<path class="st0" d="M4,32.7c0,0.3,0.2,0.5,0.4,0.6c0.3,0.1,0.6,0.2,1,0.2c0.6,0,1.1-0.1,1.7-0.3v1.6c-0.6,0.2-1.3,0.4-2.2,0.4
				c-1,0-1.9-0.3-2.4-0.8S1.5,33,1.5,32.1c0-0.6,0.1-1.2,0.4-1.7c0.3-0.5,0.6-0.9,1.1-1.2c0.5-0.3,1.1-0.4,1.7-0.4
				c0.6,0,1.2,0.1,1.6,0.4c0.4,0.2,0.8,0.6,1,1c0.2,0.4,0.3,1,0.3,1.5v0.9H4z M5.5,31.4c0-0.7-0.2-1-0.7-1c-0.2,0-0.4,0.1-0.5,0.3
				C4.1,30.8,4,31.1,4,31.4H5.5z"/>
			<path class="st0" d="M12.4,35v-3.3c0-0.4-0.1-0.6-0.2-0.8c-0.1-0.2-0.3-0.2-0.5-0.2c-0.2,0-0.4,0.1-0.5,0.3
				c-0.1,0.2-0.2,0.4-0.2,0.6V35H8.5v-6H11v0.9h0c0.2-0.3,0.5-0.6,0.8-0.8s0.7-0.3,1.1-0.3c1.3,0,2,0.8,2,2.5V35H12.4z"/>
			<path class="st0" d="M19.4,35v-8.9h2.5V35H19.4z"/>
			<path class="st0" d="M25.8,27.3c0,0.4-0.1,0.6-0.4,0.9c-0.3,0.2-0.6,0.3-1,0.3c-0.4,0-0.7-0.1-1-0.3C23.1,28,23,27.7,23,27.3
				c0-0.3,0.1-0.6,0.4-0.8s0.6-0.3,1-0.3c0.4,0,0.8,0.1,1,0.3S25.8,27,25.8,27.3z M23.1,35v-6h2.5v6H23.1z"/>
			<path class="st0" d="M33.3,34.1c0,1.2-0.4,2.1-1.1,2.7c-0.7,0.6-1.8,1-3.2,1c-0.4,0-0.7,0-1.1-0.1c-0.4-0.1-0.6-0.1-0.8-0.2v-2
				c0.3,0.2,0.5,0.3,0.9,0.4s0.6,0.1,0.9,0.1c0.6,0,1-0.1,1.3-0.4c0.3-0.3,0.5-0.6,0.5-1.1v-0.4h0c-0.2,0.3-0.4,0.5-0.7,0.7
				c-0.3,0.2-0.7,0.2-1,0.2c-0.8,0-1.4-0.3-1.8-0.8c-0.5-0.5-0.7-1.3-0.7-2.2c0-0.7,0.1-1.2,0.4-1.7c0.2-0.5,0.6-0.9,1-1.1
				c0.4-0.3,0.9-0.4,1.4-0.4c0.7,0,1.2,0.3,1.6,0.8h0V29h2.5V34.1z M30.9,31.8c0-0.4-0.1-0.6-0.2-0.8c-0.2-0.2-0.4-0.3-0.6-0.3
				c-0.3,0-0.5,0.1-0.7,0.4s-0.3,0.6-0.3,1c0,0.4,0.1,0.7,0.2,0.9c0.1,0.2,0.4,0.3,0.7,0.3c0.3,0,0.5-0.1,0.7-0.3
				c0.2-0.2,0.2-0.5,0.2-0.9V31.8z"/>
			<path class="st0" d="M38.5,35v-3.3c0-0.4-0.1-0.6-0.2-0.8c-0.1-0.2-0.3-0.2-0.5-0.2c-0.2,0-0.4,0.1-0.5,0.3
				c-0.1,0.2-0.2,0.4-0.2,0.6V35h-2.5v-6h2.5v0.9h0c0.2-0.3,0.5-0.6,0.8-0.8s0.7-0.3,1.1-0.3c1.3,0,2,0.8,2,2.5V35H38.5z"/>
			<path class="st0" d="M44.2,32.7c0,0.3,0.2,0.5,0.4,0.6s0.6,0.2,1,0.2c0.6,0,1.1-0.1,1.7-0.3v1.6c-0.6,0.2-1.3,0.4-2.2,0.4
				c-1,0-1.9-0.3-2.4-0.8c-0.6-0.5-0.9-1.3-0.9-2.2c0-0.6,0.1-1.2,0.4-1.7c0.3-0.5,0.6-0.9,1.1-1.2c0.5-0.3,1.1-0.4,1.7-0.4
				c0.6,0,1.2,0.1,1.6,0.4c0.4,0.2,0.8,0.6,1,1c0.2,0.4,0.3,1,0.3,1.5v0.9H44.2z M45.7,31.4c0-0.7-0.2-1-0.7-1
				c-0.2,0-0.4,0.1-0.5,0.3c-0.1,0.2-0.2,0.4-0.2,0.8H45.7z"/>
		</g>
		<g class="st2">
			<path class="st1" d="M51.5,33.9c0,0.4-0.1,0.6-0.4,0.9c-0.3,0.2-0.6,0.3-1,0.3c-0.4,0-0.7-0.1-1-0.3c-0.3-0.2-0.4-0.5-0.4-0.8
				c0-0.3,0.1-0.6,0.4-0.8c0.3-0.2,0.6-0.3,1-0.3c0.4,0,0.8,0.1,1,0.3C51.4,33.3,51.5,33.6,51.5,33.9z"/>
			<path class="st1" d="M57.6,34.8c-0.2,0.1-0.4,0.2-0.8,0.2c-0.3,0.1-0.7,0.1-1.2,0.1c-0.6,0-1.2-0.1-1.7-0.4
				c-0.5-0.3-0.9-0.6-1.2-1.1c-0.3-0.5-0.4-1-0.4-1.6c0-0.7,0.1-1.3,0.4-1.8c0.3-0.5,0.7-0.9,1.2-1.1c0.5-0.3,1.2-0.4,1.9-0.4
				c0.4,0,0.7,0,1.1,0.1s0.5,0.1,0.6,0.2V31c-0.1-0.1-0.3-0.2-0.5-0.3s-0.5-0.1-0.7-0.1c-0.5,0-0.9,0.1-1.1,0.3
				c-0.3,0.2-0.4,0.6-0.4,1c0,0.4,0.1,0.7,0.4,1c0.2,0.2,0.6,0.3,1,0.3c0.5,0,0.9-0.1,1.3-0.3V34.8z"/>
			<path class="st1" d="M65.3,31.9c0,1-0.3,1.8-0.9,2.4c-0.6,0.6-1.5,0.9-2.6,0.9c-1.1,0-1.9-0.3-2.6-0.8c-0.6-0.6-0.9-1.3-0.9-2.3
				c0-0.6,0.1-1.2,0.4-1.7s0.7-0.8,1.2-1.1c0.5-0.3,1.1-0.4,1.8-0.4c0.7,0,1.3,0.1,1.9,0.4c0.5,0.3,0.9,0.6,1.2,1.1
				C65.2,30.8,65.3,31.3,65.3,31.9z M62.8,31.9c0-0.8-0.3-1.2-0.9-1.2c-0.6,0-0.9,0.4-0.9,1.3c0,0.9,0.3,1.4,1,1.4
				C62.5,33.3,62.8,32.8,62.8,31.9z"/>
			<path class="st1" d="M74,35v-3.5c0-0.3-0.1-0.5-0.2-0.7s-0.3-0.2-0.5-0.2c-0.2,0-0.4,0.1-0.5,0.3c-0.1,0.2-0.2,0.4-0.2,0.7V35
				h-2.5v-3.4c0-0.6-0.2-0.9-0.6-0.9c-0.3,0-0.4,0.1-0.6,0.3c-0.1,0.2-0.2,0.4-0.2,0.8V35h-2.5v-6h2.5v1h0c0.1-0.2,0.2-0.3,0.4-0.5
				c0.2-0.2,0.4-0.3,0.7-0.4c0.3-0.1,0.5-0.2,0.8-0.2c0.4,0,0.8,0.1,1.1,0.3c0.3,0.2,0.5,0.4,0.7,0.8c0.2-0.3,0.5-0.6,0.8-0.8
				s0.7-0.3,1.2-0.3c0.6,0,1.1,0.2,1.5,0.6c0.3,0.4,0.5,1,0.5,1.8V35H74z"/>
		</g>
	</g>
</g>
</svg>
