<?xml version="1.0" encoding="utf-8"?>
<!-- Generator: Adobe Illustrator 23.1.1, SVG Export Plug-In . SVG Version: 6.00 Build 0)  -->
<svg version="1.1" id="Calque_1" xmlns="http://www.w3.org/2000/svg" xmlns:xlink="http://www.w3.org/1999/xlink" x="0px" y="0px"
	 viewBox="0 0 44.7 42.2" style="enable-background:new 0 0 44.7 42.2;" xml:space="preserve">
<style type="text/css">
	.st0{fill:#CCCC00;}
	.st1{fill:none;stroke:#CCCC00;stroke-miterlimit:10;}
	.st2{font-family:'SegoeUIBlack';}
	.st3{font-size:7.269px;}
</style>
<title>ICONES_Fichier 46</title>
<g>
	<g id="Calque_1-2">
		<polygon class="st0" points="25.5,39.5 1,39.5 1,1 34.8,1 34.8,18.4 35.8,18.4 35.8,0 0,0 0,40.5 25.5,40.5 		"/>
		<line class="st1" x1="6.2" y1="12.5" x2="30.7" y2="12.5"/>
		<text transform="matrix(1 0 0 1 12.31 9.49)" class="st0 st2 st3">Bill</text>
		<path class="st0" d="M43.7,18.4h-17c-0.6,0-1.1,0.5-1.1,1.1v21.7c0,0.6,0.5,1.1,1.1,1.1l0,0h17c0.6,0,1.1-0.5,1.1-1.1c0,0,0,0,0,0
			V19.5C44.7,18.9,44.2,18.4,43.7,18.4L43.7,18.4z M32.1,40h-3.4v-2.4h3.4V40z M32.1,35.6h-3.4v-2.4h3.4V35.6z M32.1,31h-3.4v-2.5
			h3.4V31z M37.1,40h-3.4v-2.5h3.4L37.1,40z M37.1,35.6h-3.4v-2.5h3.4L37.1,35.6z M37.1,31h-3.4v-2.5h3.4L37.1,31z M42.1,40h-3.4
			v-2.5h3.4L42.1,40z M42.1,35.6h-3.4v-2.5h3.4L42.1,35.6z M42.1,31h-3.4v-2.5h3.4L42.1,31z M43,25.2H27.9v-5h15.1L43,25.2z"/>
	</g>
</g>
</svg>
