<svg height="472pt" viewBox="0 -6 472.68344 472" width="472pt" xmlns="http://www.w3.org/2000/svg"><path d="m6.277344 358.222656 92.386718-160-27.035156-15.617187 71.753906-30.648438 9.335938 77.464844-27.03125-15.609375-92.378906 160c-2.828125 4.792969-2.851563 10.738281-.0625 15.554688 2.699218 4.910156 7.878906 7.9375 13.480468 7.878906h100.464844v32l-100.664062-.761719c-16.679688-.109375-32.042969-9.082031-40.332032-23.554687-8.289062-14.476563-8.257812-32.265626.082032-46.707032zm0 0"/><path d="m424.628906 429.246094h-189.4375v32l-64-48 64-48v32h189.4375c5.707032.050781 10.996094-2.976563 13.839844-7.921875 2.976562-4.910157 3.003906-11.058594.082031-16l-55.609375-96.3125 28.417969-16.40625 55.03125 96.878906c8.46875 14.867187 8.382813 33.117187-.21875 47.902344-8.605469 14.789062-24.433594 23.878906-41.542969 23.859375zm0 0"/><path d="m275.191406 23.796875 92.375 160 27.03125-15.605469-9.335937 77.460938-71.75-30.648438 27.03125-15.597656-92.382813-160c-2.738281-4.847656-7.875-7.839844-13.441406-7.832031-5.597656-.113281-10.804688 2.859375-13.550781 7.734375l-54.265625 93.9375-27.710938-16 54.992188-93.730469c8.429687-14.402344 23.890625-23.230469 40.582031-23.171875 16.691406.054688 32.09375 8.992188 40.425781 23.453125zm0 0"/></svg>