<svg xmlns="http://www.w3.org/2000/svg" viewBox="0 0 44.71 42.25"><title>ICONES_Fichier 46</title><g id="Calque_2" data-name="Calque 2"><g id="Calque_1-2" data-name="Calque 1"><polygon points="25.54 39.5 1 39.5 1 1 34.75 1 34.75 18.42 35.75 18.42 35.75 0 0 0 0 40.5 25.54 40.5 25.54 39.5"/><line x1="6.25" y1="12.5" x2="30.67" y2="12.5" style="fill:none;stroke:#000;stroke-miterlimit:10"/><text transform="translate(12.31 9.49)" style="font-size:7.268970012664795px;font-family:SegoeUI, Segoe UI;letter-spacing:0.039968158245777805em">Bill</text><path d="M43.65,18.42h-17a1.06,1.06,0,0,0-1.06,1.06V41.19a1.06,1.06,0,0,0,1.06,1.06h17a1.06,1.06,0,0,0,1.06-1.06V19.48A1.06,1.06,0,0,0,43.65,18.42ZM32.14,40H28.72V37.56h3.42Zm0-4.41H28.72V33.15h3.42Zm0-4.58H28.72V28.56h3.42Zm5,9H33.71V37.56h3.42Zm0-4.41H33.71V33.15h3.42Zm0-4.58H33.71V28.56h3.42Zm5,9H38.7V37.56h3.42Zm0-4.41H38.7V33.15h3.42Zm0-4.58H38.7V28.56h3.42Zm.82-5.81H27.88V20.25H42.94Z"/></g></g></svg>