<?xml version="1.0" encoding="utf-8"?>
<!-- Generator: Adobe Illustrator 23.1.1, SVG Export Plug-In . SVG Version: 6.00 Build 0)  -->
<svg version="1.1" id="Calque_1" xmlns="http://www.w3.org/2000/svg" xmlns:xlink="http://www.w3.org/1999/xlink" x="0px" y="0px"
	 viewBox="0 0 472 472" style="enable-background:new 0 0 472 472;" xml:space="preserve">
<style type="text/css">
	.st0{fill:#CCCC00;}
</style>
<path class="st0" d="M6.3,364l92.3-159.8l-27-15.6l71.7-30.6l9.3,77.4l-27-15.6L33.3,379.6c-2.8,4.8-2.8,10.7-0.1,15.5
	c2.7,4.9,7.9,7.9,13.5,7.9H147v32l-100.5-0.8c-16.7-0.1-32-9.1-40.3-23.5C-2.1,396.2-2.1,378.5,6.3,364z"/>
<path class="st0" d="M424,435H234.9v32L170.9,419l63.9-47.9v32H424c5.7,0.1,11-3,13.8-7.9c3-4.9,3-11,0.1-16l-55.5-96.2l28.4-16.4
	l55,96.7c8.5,14.8,8.4,33.1-0.2,47.8C456.9,425.9,441.1,435,424,435z"/>
<path class="st0" d="M274.8,30.1L367,189.9l27-15.6l-9.3,77.3L313.1,221l27-15.6L247.8,45.7c-2.7-4.8-7.9-7.8-13.4-7.8
	c-5.6-0.1-10.8,2.9-13.5,7.7l-54.2,93.8l-27.7-16l54.9-93.6c8.4-14.4,23.9-23.2,40.5-23.1C251.1,6.7,266.5,15.7,274.8,30.1z"/>
</svg>
