<?xml version="1.0" encoding="utf-8"?>
<!-- Generator: Adobe Illustrator 23.1.1, SVG Export Plug-In . SVG Version: 6.00 Build 0)  -->
<svg version="1.1" id="Calque_1" xmlns="http://www.w3.org/2000/svg" xmlns:xlink="http://www.w3.org/1999/xlink" x="0px" y="0px"
	 viewBox="0 0 31.1 39.6" style="enable-background:new 0 0 31.1 39.6;" xml:space="preserve">
<style type="text/css">
	.st0{fill:#CCCC00;}
	.st1{fill:none;stroke:#CCCC00;stroke-miterlimit:10;}
	.st2{fill:none;stroke:#CCCC00;stroke-width:1.5;stroke-miterlimit:10;}
</style>
<title>ICONES_Fichier 23</title>
<g>
	<g id="Calque_1-2">
		<path class="st0" d="M7,15.9c-0.5-0.2-1-0.3-1.6-0.4c-2.6,0-4.7,2.8-4.7,6.1s2.1,6.1,4.7,6.1c0.5,0,1.1-0.1,1.6-0.4V15.9z"/>
		<path class="st0" d="M9.4,35.8h7.8c1.1,0,1.9,0.9,1.9,1.9l0,0c0,1.1-0.9,1.9-1.9,1.9H9.4l0,0V35.8L9.4,35.8z"/>
		<path class="st1" d="M1.8,24.7c0,0-1.4,13,7.6,13"/>
		<path class="st2" d="M15.6,0.8c0,0-14.9-0.4-14.9,16.1v4.9"/>
		<path class="st0" d="M24.1,15.9c0.5-0.2,1-0.3,1.6-0.4c2.6,0,4.7,2.8,4.7,6.1s-2.1,6.1-4.7,6.1c-0.5,0-1.1-0.1-1.6-0.4V15.9z"/>
		<path class="st2" d="M15.5,0.8c0,0,14.9-0.4,14.9,16.1v4.9"/>
	</g>
</g>
</svg>
