<svg xmlns="http://www.w3.org/2000/svg" viewBox="0 0 31.12 39.62"><title>ICONES_Fichier 23</title><g id="Calque_2" data-name="Calque 2"><g id="Calque_1-2" data-name="Calque 1"><path d="M7,15.93a3.76,3.76,0,0,0-1.57-.35c-2.61,0-4.73,2.75-4.73,6.15s2.12,6.15,4.73,6.15A3.76,3.76,0,0,0,7,27.52Z"/><path d="M9.45,35.79h7.83A1.92,1.92,0,0,1,19.2,37.7v0a1.92,1.92,0,0,1-1.92,1.92H9.45a0,0,0,0,1,0,0V35.79a0,0,0,0,1,0,0Z"/><path d="M1.8,24.67s-1.39,13,7.65,13" style="fill:none;stroke:#000;stroke-miterlimit:10"/><path d="M15.6.75S.75.37.75,16.87v4.85" style="fill:none;stroke:#000;stroke-miterlimit:10;stroke-width:1.5px"/><path d="M24.08,15.93a3.76,3.76,0,0,1,1.57-.35c2.61,0,4.73,2.75,4.73,6.15s-2.12,6.15-4.73,6.15a3.76,3.76,0,0,1-1.57-.35Z"/><path d="M15.52.75S30.38.37,30.38,16.87v4.85" style="fill:none;stroke:#000;stroke-miterlimit:10;stroke-width:1.5px"/></g></g></svg>