<?xml version="1.0" encoding="utf-8"?>
<!-- Generator: Adobe Illustrator 23.1.1, SVG Export Plug-In . SVG Version: 6.00 Build 0)  -->
<svg version="1.1" id="Calque_1" xmlns="http://www.w3.org/2000/svg" xmlns:xlink="http://www.w3.org/1999/xlink" x="0px" y="0px"
	 viewBox="0 0 26.2 18.9" style="enable-background:new 0 0 26.2 18.9;" xml:space="preserve">
<style type="text/css">
	.st0{fill:#CCCC00;}
</style>
<title>ICONES_Fichier 41</title>
<g>
	<g id="Calque_1-2">
		<path class="st0" d="M13.7,4.6l-2.3,2.3H2.2v9.7H24V7.1h-4.7l2.3-2.5H25c0.7,0,1.2,0.5,1.2,1.2v11.9c0,0.7-0.5,1.2-1.2,1.2H1.2
			c-0.7,0-1.2-0.5-1.2-1.2V5.8c0-0.7,0.5-1.2,1.2-1.2H13.7z"/>
		<path class="st0" d="M9.1,12.9L9.1,12.9c-0.4-0.4-0.2-0.7,0.1-1L20.8,0.2c0.4-0.3,1-0.2,1.3,0.2l0,0c0.4,0.3,0.5,0.9,0.2,1.3
			L10.2,13.2C9.9,13.4,9.5,13.3,9.1,12.9z"/>
		<polygon class="st0" points="9.4,14 9.4,14 8.4,13 8.1,14.3 9.4,14 		"/>
	</g>
</g>
</svg>
