<?xml version="1.0"?>
<svg xmlns="http://www.w3.org/2000/svg" xmlns:xlink="http://www.w3.org/1999/xlink" version="1.1" id="Capa_1" x="0px" y="0px" viewBox="0 0 512 512" style="enable-background:new 0 0 512 512;" xml:space="preserve" width="512px" height="512px" class=""><g><path style="fill:#CCCC02" d="M437.472,160.96l-352-128c-4.896-1.792-10.368-1.056-14.656,1.92S64,42.784,64,48v256  c0,5.216,2.56,10.112,6.816,13.088C73.536,319.008,76.768,320,80,320c1.856,0,3.68-0.32,5.472-0.96l352-128  C443.776,188.736,448,182.72,448,176S443.776,163.264,437.472,160.96z" data-original="#FFC107" class="active-path" data-old_color="#cccc02"/><path style="fill:#CCCC02" d="M80,512c-8.832,0-16-7.168-16-16V16c0-8.832,7.168-16,16-16s16,7.168,16,16v480  C96,504.832,88.832,512,80,512z" data-original="#455A64" class="" data-old_color="#cccc02"/></g> </svg>
