<?xml version="1.0" encoding="utf-8"?>
<!-- Generator: Adobe Illustrator 21.1.0, SVG Export Plug-In . SVG Version: 6.00 Build 0)  -->
<svg version="1.1" id="Calque_1" xmlns="http://www.w3.org/2000/svg" xmlns:xlink="http://www.w3.org/1999/xlink" x="0px" y="0px"
	 viewBox="0 0 17.4 17.9" style="enable-background:new 0 0 17.4 17.9;" xml:space="preserve">
<title>Fichier 1</title>
<g id="Calque_2">
	<g id="Calque_1-2">
		<g id="Calque_2-2">
			<g id="Calque_1-2-2">
				<path d="M15.5,13.6l-2.1,2.1c-0.2,0.2-0.5,0.2-0.7,0L3.4,6.2C3.2,6,3.2,5.7,3.4,5.5l2.1-2.1c0.2-0.2,0.5-0.2,0.7,0l9.3,9.5
					C15.7,13.1,15.7,13.4,15.5,13.6z"/>
				<path d="M3.1,0.3L4.8,2l0,0L2,4.8l0,0L0.2,3c-0.3-0.3-0.3-0.9,0-1.2l1.5-1.5C2.1-0.1,2.7-0.1,3.1,0.3z"/>
				<path d="M17.2,15.7c-0.2-0.2-0.4-0.2-0.6,0l-1.4,1.5c-0.1,0.1-0.1,0.2-0.1,0.3c0,0.2,0.2,0.4,0.4,0.4h1.8V16
					C17.3,15.9,17.3,15.8,17.2,15.7z"/>
			</g>
		</g>
	</g>
</g>
</svg>
