<?xml version="1.0" encoding="utf-8"?>
<!-- Generator: Adobe Illustrator 21.1.0, SVG Export Plug-In . SVG Version: 6.00 Build 0)  -->
<svg version="1.1" id="Capa_1" xmlns="http://www.w3.org/2000/svg" xmlns:xlink="http://www.w3.org/1999/xlink" x="0px" y="0px"
	 viewBox="0 0 372.8 595.2" style="enable-background:new 0 0 372.8 595.2;" xml:space="preserve">
<style type="text/css">
	.st0{fill:#FFFFFF;}
</style>
<g transform="matrix(1 0 0 1 0 0)">
	<g>
		<path class="st0" d="M371.9,542.6l-55.6-140.3c-2.6-6.5-9.9-9.6-16.3-7.1l-73.7,29.2c-12.3-9.9-43.6-39.6-67.9-100.8
			c-25.2-63.6-24.1-115.6-23.1-130l73.3-29c3.1-1.2,5.6-3.6,6.9-6.7s1.4-6.5,0.1-9.6L160,7.9c-2.6-6.5-9.9-9.6-16.3-7.1l-82,32.5
			c-1.1,0.4-2.1,1-3,1.7l-0.2,0.1c-69.8,36.3-78.3,181.3-19.4,330C81.1,471,150,557.4,214.7,585.4c23.1,10,44.6,12.4,64,7l1.7-0.3
			c0.8-0.1,1.5-0.4,2.2-0.7l82.1-32.6c3.1-1.2,5.6-3.6,6.9-6.7C373.1,549.1,373.1,545.7,371.9,542.6z"/>
	</g>
</g>
</svg>
