<svg xmlns="http://www.w3.org/2000/svg" viewBox="0 0 39.39 35.89"><title>ICONES_Fichier 20</title><g id="Calque_2" data-name="Calque 2"><g id="Calque_1-2" data-name="Calque 1"><path d="M16.89,35.89,0,33.18V3.63L16.89,0l22.5,3.57v29.6ZM1.3,32.07l15.62,2.5L38.09,32V4.68L16.92,1.32,1.3,4.68Z"/><polygon points="25.58 34.23 24.93 34.23 24.93 18.84 33.21 19.37 33.21 33.31 32.56 33.31 32.56 19.98 25.58 19.54 25.58 34.23"/><rect x="1.02" y="8.98" width="15.98" height="0.65" transform="translate(-1.31 1.48) rotate(-8.76)"/><polygon points="16.92 7.76 16.58 7.8 16.58 35.23 17.23 35.23 17.23 8.45 38.7 11.06 38.78 10.42 16.92 7.76"/></g></g></svg>