<?xml version="1.0" encoding="utf-8"?>
<!-- Generator: Adobe Illustrator 23.1.1, SVG Export Plug-In . SVG Version: 6.00 Build 0)  -->
<svg version="1.1" id="Calque_1" xmlns="http://www.w3.org/2000/svg" xmlns:xlink="http://www.w3.org/1999/xlink" x="0px" y="0px"
	 viewBox="0 0 39.4 35.9" style="enable-background:new 0 0 39.4 35.9;" xml:space="preserve">
<style type="text/css">
	.st0{fill:#CCCC00;}
</style>
<title>ICONES_Fichier 20</title>
<g>
	<g id="Calque_1-2">
		<path class="st0" d="M16.9,35.9L0,33.2V3.6L16.9,0l22.5,3.6v29.6L16.9,35.9z M1.3,32.1l15.6,2.5L38.1,32V4.7L16.9,1.3L1.3,4.7
			V32.1z"/>
		<polygon class="st0" points="25.6,34.2 24.9,34.2 24.9,18.8 33.2,19.4 33.2,33.3 32.6,33.3 32.6,20 25.6,19.5 		"/>
		<rect x="1" y="9" transform="matrix(0.9883 -0.1523 0.1523 0.9883 -1.3119 1.481)" class="st0" width="16" height="0.6"/>
		<polygon class="st0" points="16.9,7.8 16.6,7.8 16.6,35.2 17.2,35.2 17.2,8.4 38.7,11.1 38.8,10.4 		"/>
	</g>
</g>
</svg>
