<?xml version="1.0" encoding="utf-8"?>
<!-- Generator: Adobe Illustrator 23.0.6, SVG Export Plug-In . SVG Version: 6.00 Build 0)  -->
<svg version="1.1" id="Calque_1" xmlns="http://www.w3.org/2000/svg" xmlns:xlink="http://www.w3.org/1999/xlink" x="0px" y="0px"
	 viewBox="0 0 15.8 15.8" style="enable-background:new 0 0 15.8 15.8;" xml:space="preserve">
<style type="text/css">
	.st0{fill:#E8E8E8;}
</style>
<title>ICONES_Fichier 19</title>
<g>
	<g id="Calque_1-2">
		<path class="st0" d="M10.6,9.3H9.9L9.7,9.1c2-2.3,1.7-5.8-0.6-7.8S3.3-0.4,1.3,1.9s-1.7,5.8,0.6,7.8c2.1,1.8,5.1,1.8,7.2,0
			l0.2,0.2v0.7l4.2,4.2l1.3-1.3L10.6,9.3z M5.5,9.3c-2.1,0-3.8-1.7-3.8-3.8s1.7-3.8,3.8-3.8s3.8,1.7,3.8,3.8l0,0
			C9.3,7.6,7.6,9.3,5.5,9.3z"/>
		<polygon class="st0" points="9.3,10.6 14.5,15.8 15.8,14.5 10.6,9.3 		"/>
	</g>
</g>
</svg>
