<?xml version="1.0" encoding="utf-8"?>
<!-- Generator: Adobe Illustrator 21.1.0, SVG Export Plug-In . SVG Version: 6.00 Build 0)  -->
<svg version="1.1" id="Calque_1" xmlns="http://www.w3.org/2000/svg" xmlns:xlink="http://www.w3.org/1999/xlink" x="0px" y="0px"
	 viewBox="0 0 16 16" style="enable-background:new 0 0 16 16;" xml:space="preserve">
<title>SEARCH01Fichier 121</title>
<g id="Calque_2">
	<g id="Calque_1-2">
		<path d="M0,14.7L1.3,16l5.3-5.3v-0.7l0.2-0.2c2.1,1.8,5.2,1.8,7.3,0c2.3-2,2.6-5.5,0.6-7.9S9.1-0.7,6.8,1.3S4.2,6.9,6.2,9.2
			L5.9,9.4H5.2L1,13.7l0,0L0,14.7z M6.5,5.6L6.5,5.6c0-2.1,1.7-3.9,3.9-3.9s3.9,1.7,3.9,3.9s-1.7,3.9-3.9,3.9S6.5,7.7,6.5,5.6z"/>
	</g>
</g>
</svg>
