<?xml version="1.0" encoding="utf-8"?>
<!-- Generator: Adobe Illustrator 21.1.0, SVG Export Plug-In . SVG Version: 6.00 Build 0)  -->
<svg version="1.1" id="Calque_1" xmlns="http://www.w3.org/2000/svg" xmlns:xlink="http://www.w3.org/1999/xlink" x="0px" y="0px"
	 viewBox="0 0 31 30" style="enable-background:new 0 0 31 30;" xml:space="preserve">
<style type="text/css">
	.st0{fill:#FFFFFF;}
</style>
<title>SHAREFichier 117</title>
<g id="Calque_2">
	<g id="Calque_1-2">
		<path class="st0" d="M25.9,19.8c-1.6,0-3.1,0.7-4,2L9.9,16c0.2-0.8,0.2-1.6,0-2.4l11.9-5.5c1.6,2.3,4.7,2.9,6.9,1.3
			c1.4-1,2.2-2.6,2.2-4.3C31,2.3,28.8,0,26,0s-5.1,2.2-5.1,5c0,0.4,0,0.9,0.1,1.3L9.1,11.7C7.5,9.4,4.3,8.9,2,10.6s-2.8,4.8-1.1,7.1
			s4.8,2.8,7.1,1.1c0.4-0.3,0.8-0.6,1.1-1.1l12,5.9c-0.6,2.7,1,5.4,3.7,6c2.7,0.6,5.4-1,6-3.7c0.6-2.7-1-5.4-3.7-6
			C26.7,19.9,26.3,19.8,25.9,19.8L25.9,19.8z"/>
	</g>
</g>
</svg>
