<svg xmlns="http://www.w3.org/2000/svg" viewBox="0 0 66 53"><title>ETIQUETTE01Fichier 114</title><g id="Calque_2" data-name="Calque 2"><g id="Calque_1-2" data-name="Calque 1"><path d="M59.77,13.52a21,21,0,0,0-5.46-3.9L54.87,0H28.26L0,28.07,25.1,53l7.33-7.28a21.41,21.41,0,0,0,27.35-2.29A21.07,21.07,0,0,0,59.77,13.52ZM4.26,28.07,29.51,3H51.68l-.31,5.42a21.64,21.64,0,0,0-6.09-1l-.17,3a18.53,18.53,0,0,1,6.08,1.18l-.69,12L25.1,48.77ZM57.64,41.31a18.39,18.39,0,0,1-23.05,2.26L53.44,24.85l.68-11.91a18,18,0,0,1,3.52,28.37Z"/></g></g></svg>