<?xml version="1.0" encoding="utf-8"?>
<!-- Generator: Adobe Illustrator 21.1.0, SVG Export Plug-In . SVG Version: 6.00 Build 0)  -->
<svg version="1.1" id="Calque_1" xmlns="http://www.w3.org/2000/svg" xmlns:xlink="http://www.w3.org/1999/xlink" x="0px" y="0px"
	 viewBox="0 0 36 55" style="enable-background:new 0 0 36 55;" xml:space="preserve">
<title>PALMIERFichier 90</title>
<g id="Calque_2">
	<g id="Calque_1-2">
		<path d="M35.5,52.3c-2.8-2-13.9-8-14.5-8.3c-0.2-0.1-0.3-0.1-0.5-0.1c1-17.1-2.2-25.8-3.3-28.3c0.2-0.7,1.4-3.8,2.4-3.2
			s5.3,2.5,5.8,4.1c0,0,2.4-2.9,0-4.4c-2.7-1.5-5.7-2.1-8.8-1.9c0,0,0.3-9,5.4-9.4c-1.9-1.1-4.3-1-6.1,0.4c-3,2.4-3.5,7.1-2.9,9.4
			c0,0-10-1.6-11.9,0.4c-0.5,0.9-0.8,1.7-1.1,2.7c0,0,8.5-2.2,11.1-1.3c0,0-4.9,2.1-5,4.2s-0.3,6.8,0,7.6s4.8-8.4,6.3-8.4
			c1,0,2.1,0.1,3.1,0.2c1.1,9.3,1.4,18.8,0.9,28.2c-3.1,1.2-15.4,5.8-15.8,7C0.2,52.5,2.7,55,7.9,55h21.2
			C29.1,55,38.3,54.3,35.5,52.3z"/>
	</g>
</g>
</svg>
