<svg xmlns="http://www.w3.org/2000/svg" viewBox="0 0 72 106"><title>EXITFichier 111</title><g id="Calque_2" data-name="Calque 2"><g id="Calque_1-2" data-name="Calque 1"><path d="M31.74,23.44A11.73,11.73,0,1,0,20.77,11,11.76,11.76,0,0,0,31.74,23.44Z"/><path d="M71.83,41a5.28,5.28,0,0,0-6.54-3.66l-8.88,2.35a1.83,1.83,0,0,1-1.74-.45l-8-7.71a13.83,13.83,0,0,0-8.81-3.89L26.3,26.87a13.41,13.41,0,0,0-8.71,2.38L6.25,36.72a5.18,5.18,0,0,0-2.1,2.86L.2,52.89a5.36,5.36,0,0,0,3.49,6.55A5.39,5.39,0,0,0,10.27,56L13.51,45.1a1.82,1.82,0,0,1,.74-1l3.61-2.39a1.83,1.83,0,0,1,2.83,1.64L19,67.81l-.07.3c-.15,1.82-.3,3.7-.46,5.53l-.72,7.87L16.35,98.78a6.13,6.13,0,0,0,12.21,1L30.28,78.2v-.08L30.65,73a1.82,1.82,0,0,1,2.39,0l13,11a2.61,2.61,0,0,1,.45.58l.18.36,0,14.44c0,3.79,2.52,6.77,5.74,6.72s5.77-3.06,5.77-6.85l0-18.51h0c0-.19-.65-1.53-.74-1.71l-.69-1.39a5.86,5.86,0,0,0-1.59-2L41.43,64.07a1.82,1.82,0,0,1-.64-1.53l1.34-16.69a1.83,1.83,0,0,1,3.1-1.16l5,4.91a5.16,5.16,0,0,0,5,1.29l12.9-3.45.25-.08A5.27,5.27,0,0,0,71.83,41Z"/></g></g></svg>