<svg xmlns="http://www.w3.org/2000/svg" viewBox="0 0 14.44 20.59"><defs><style>.cls-1{fill:#ddd;fill-rule:evenodd;}</style></defs><title>Fichier 8</title><g id="Calque_2" data-name="Calque 2"><g id="Calque_1-2" data-name="Calque 1"><g id="RS_vert2" data-name="RS vert2"><path class="cls-1" d="M8.7,20.14A5,5,0,0,1,7,19.2,18.42,18.42,0,0,1,.53,8.8,10.33,10.33,0,0,1,.15,4,5,5,0,0,1,3.48.08a2.86,2.86,0,0,1,2.4.56,2.42,2.42,0,0,1,.2.61c0,1.4.07,2.72.1,4.06A.93.93,0,0,1,5.82,6a7.12,7.12,0,0,1-1.6,1,.69.69,0,0,0-.47.9,12.37,12.37,0,0,0,3.82,7.28.72.72,0,0,0,.95.15c.64-.34,1.28-.71,1.9-1.09a.78.78,0,0,1,1,.14c.68.71,1.34,1.43,2,2.11a5.6,5.6,0,0,0,.47.49c.67.76.65.81.19,1.67-.81,1.74-2.53,2.1-4.26,1.91A3.34,3.34,0,0,1,8.7,20.14Z"/></g></g></g></svg>