<?xml version="1.0" encoding="utf-8"?>
<!-- Generator: Adobe Illustrator 21.1.0, SVG Export Plug-In . SVG Version: 6.00 Build 0)  -->
<svg version="1.1" id="Calque_1" xmlns="http://www.w3.org/2000/svg" xmlns:xlink="http://www.w3.org/1999/xlink" x="0px" y="0px"
	 viewBox="0 0 45 45" style="enable-background:new 0 0 45 45;" xml:space="preserve">
<style type="text/css">
	.st0{fill:#A6A6A6;}
</style>
<title>BOUCLIER03Fichier 80</title>
<g id="Calque_2">
	<g id="Calque_1-2">
		<path class="st0" d="M42.6,4.1c-1.3,0-3.5,2.2-5.9,2.2S32.6,7,28.5,3.7c-1.4-1.2-2.9-2.2-4.4-3.2c-1-0.6-2.2-0.6-3.2,0
			c-1.5,1-3,2-4.4,3.2C12.4,7,10.6,6.3,8.3,6.3S3.6,4.1,2.4,4.1S0,5.9,0,10.6s2.2,26.5,21.6,34.2c0.6,0.2,1.3,0.2,1.9,0
			C42.8,37.1,45,15.3,45,10.6S43.9,4.1,42.6,4.1z"/>
	</g>
</g>
</svg>
