<?xml version="1.0" encoding="utf-8"?>
<!-- Generator: Adobe Illustrator 21.1.0, SVG Export Plug-In . SVG Version: 6.00 Build 0)  -->
<svg version="1.1" id="Calque_1" xmlns="http://www.w3.org/2000/svg" xmlns:xlink="http://www.w3.org/1999/xlink" x="0px" y="0px"
	 viewBox="0 0 85 10" style="enable-background:new 0 0 85 10;" xml:space="preserve">
<style type="text/css">
	.st0{fill:#A6A6A6;}
</style>
<title>HAVANAFichier 139</title>
<g id="Calque_2">
	<g id="Calque_1-2">
		<rect x="12.3" y="2.3" class="st0" width="12.3" height="1"/>
		<rect x="12.3" y="5.4" class="st0" width="12.3" height="1"/>
		<rect x="12.3" y="8.5" class="st0" width="12.3" height="1"/>
		<path class="st0" d="M5.6,6.1c1.3-0.4,2.2-1.6,2.2-3C7.8,1.4,6.4,0,4.7,0C3,0,1.6,1.4,1.6,3.1c0,1.4,0.9,2.6,2.2,3
			C1.9,6.5,0.4,8,0,9.9h9.4C9,8,7.5,6.5,5.6,6.1z"/>
		<path class="st0" d="M38.4,2.9c0.2,0,0.3-0.1,0.3-0.3c0-0.3-0.4-0.3-0.5-0.3h-3.7c0,0-0.5,0-0.5,0.3c0,0.1,0.1,0.2,0.3,0.3
			c0.5,0.1,0.4,0.2,0.4,0.5v2.3h-1.2v0.6h1.1v2.5c0,0.4,0,0.4-0.4,0.6c-0.2,0-0.3,0.1-0.3,0.3c0,0.3,0.4,0.3,0.5,0.3h3.7
			c0,0,0.5,0,0.5-0.3c0-0.1-0.1-0.2-0.3-0.3c-0.5-0.1-0.4-0.2-0.4-0.6V3.5C37.9,3.1,37.9,3,38.4,2.9z"/>
		<path class="st0" d="M33.5,9.4C33,9.3,33,9.2,33,8.9V3.5c0-0.4,0-0.4,0.4-0.5c0.2,0,0.3-0.1,0.3-0.3c0-0.3-0.4-0.3-0.5-0.3h-3.7
			c0,0-0.5,0-0.5,0.3c0,0.1,0.1,0.2,0.3,0.3c0.5,0.1,0.4,0.2,0.4,0.5v5.4c0,0.4,0,0.4-0.4,0.6c-0.2,0-0.3,0.1-0.3,0.3
			c0,0.3,0.4,0.3,0.5,0.3h3.7c0,0,0.5,0,0.5-0.3C33.7,9.5,33.6,9.4,33.5,9.4z"/>
		<path class="st0" d="M48.3,9.4c-0.4-0.1-0.4-0.3-0.5-0.6l-2-6.5H43l-0.2,0.5l1.3,4.5h-1.6L42.4,8h1.9l0.3,0.8
			c0.1,0.4,0.1,0.5-0.3,0.6C44.1,9.5,44,9.5,44,9.7s0.4,0.3,0.6,0.3h3.2c0.3,0,0.7,0,0.7-0.3S48.5,9.5,48.3,9.4z"/>
		<path class="st0" d="M42.1,9.4c-0.4-0.1-0.6-0.3-0.4-1l1.2-3.5l-0.3-1.2l0,0L41,8.3c-0.1,0.5-0.4,0.9-0.9,1.1
			c-0.3,0.1-0.5,0.1-0.5,0.4s0.5,0.3,0.7,0.3h1.5c0.3,0,0.7,0,0.7-0.3S42.3,9.5,42.1,9.4z"/>
		<path class="st0" d="M57.3,2.6c0-0.3-0.5-0.3-0.8-0.3h-1.4c-0.3,0-0.7,0-0.7,0.3s0.2,0.3,0.4,0.3s0.5,0.3,0.5,0.5
			c0,0.1,0,0.3-0.1,0.4l-0.8,2.3l0.4,1.1l0,0l1.1-3.2c0.1-0.2,0.2-0.5,0.3-0.7c0.2-0.2,0.4-0.4,0.7-0.4C57.1,2.9,57.3,2.8,57.3,2.6z
			"/>
		<path class="st0" d="M52.8,3.3c0-0.4,0.6-0.3,0.6-0.7s-0.6-0.3-0.9-0.3h-2.8c-0.3,0-0.8,0-0.8,0.3c0,0.1,0.1,0.2,0.3,0.3
			c0.3,0.1,0.3,0.2,0.4,0.5L52,10h1.9l0.7-2l-1.6-4.4C52.9,3.5,52.8,3.4,52.8,3.3z"/>
		<path class="st0" d="M65.2,9.4c-0.4-0.1-0.4-0.3-0.4-0.6l-2-6.5H60l-0.2,0.5l1.3,4.5h-1.6L59.3,8h1.9l0.3,0.8
			c0.1,0.4,0.1,0.5-0.3,0.6C61.1,9.5,61,9.6,61,9.7s0.4,0.3,0.6,0.3h3.2c0.3,0,0.7,0,0.7-0.3S65.4,9.5,65.2,9.4z"/>
		<path class="st0" d="M59,9.4c-0.4-0.1-0.6-0.3-0.4-1l1.2-3.5l-0.3-1.2l0,0l-1.5,4.6c-0.1,0.5-0.5,0.9-0.9,1.1
			c-0.3,0.1-0.5,0.1-0.5,0.4S57,10,57.2,10h1.5c0.3,0,0.7,0,0.7-0.3S59.3,9.5,59,9.4z"/>
		<path class="st0" d="M74.8,2.3H73c-0.1,0-0.6,0-0.6,0.3c0,0.5,1.1,0.1,1.1,1.5v1.5l0.7,1l0,0V4.2c0-1.5,1.1-1.1,1.1-1.5
			C75.3,2.3,74.9,2.3,74.8,2.3z"/>
		<path class="st0" d="M68.2,8.4V5.3l-0.7-1l0,0v4.1c-0.2,1.3-1,0.9-1,1.3S67,10,67.2,10h1.4c0.1,0,0.7,0,0.7-0.3S68.4,9.7,68.2,8.4
			z"/>
		<path class="st0" d="M67.1,2.3c-0.3,0-0.7,0-0.7,0.3s0.2,0.3,0.4,0.3c0.4,0.1,0.5,0.3,0.7,0.5l4.8,6.5h1.9V7.5l-3.8-5.2L67.1,2.3z
			"/>
		<path class="st0" d="M84.7,9.4c-0.4-0.1-0.4-0.3-0.4-0.6l-2-6.5h-2.9l-0.2,0.5l1.3,4.5H79L78.8,8h1.9L81,8.8
			c0.1,0.4,0.1,0.5-0.3,0.6c-0.2,0.1-0.3,0.1-0.3,0.3s0.4,0.3,0.6,0.3h3.2c0.3,0,0.7,0,0.7-0.3S84.9,9.5,84.7,9.4z"/>
		<path class="st0" d="M78.5,9.4c-0.4-0.1-0.6-0.3-0.4-1l1.2-3.5L79,3.8l0,0l-1.7,4.5c-0.1,0.5-0.4,0.9-0.9,1.1
			C76.2,9.4,76,9.4,76,9.7s0.5,0.3,0.7,0.3h1.5c0.3,0,0.7,0,0.7-0.3S78.7,9.5,78.5,9.4z"/>
	</g>
</g>
</svg>
