<?xml version="1.0" encoding="utf-8"?>
<!-- Generator: Adobe Illustrator 21.1.0, SVG Export Plug-In . SVG Version: 6.00 Build 0)  -->
<svg version="1.1" id="Calque_1" xmlns="http://www.w3.org/2000/svg" xmlns:xlink="http://www.w3.org/1999/xlink" x="0px" y="0px"
	 viewBox="0 0 20.4 21" style="enable-background:new 0 0 20.4 21;" xml:space="preserve">
<style type="text/css">
	.st0{fill:#D7D200;}
</style>
<title>ICONES_Fichier 30</title>
<g id="Calque_2_1_">
	<g id="Calque_1-2_1_">
		<circle class="st0" cx="5" cy="5.9" r="1.5"/>
		<circle class="st0" cx="4.1" cy="20.6" r="0.5"/>
		<circle class="st0" cx="6.3" cy="20.6" r="0.5"/>
		<circle class="st0" cx="14.1" cy="20.6" r="0.5"/>
		<circle class="st0" cx="16.2" cy="20.6" r="0.5"/>
		<path class="st0" d="M5.2,8h-2C3,8,2.7,8.1,2.6,8.3L2.3,8.8C2.2,9,2.1,9.1,2.1,9.2v5.2h0.8V10l0,0l0.7-1v11.7h0.9v-5.9h0.6L5.2,8z
			"/>
		<path class="st0" d="M7.8,8.3C7.6,8.1,7.4,8,7.2,8h-2v6.7h0.6v5.9h0.9V8.9l0.7,0.9h0.9L8.2,9.3"/>
		<path class="st0" d="M7.3,9.6c0,0,0.9,1.7,1.3,1.7h1.7v-1H9c-0.1,0-0.2-0.1-0.3-0.2L8.1,9L7.9,8.5L7.3,9.2L7.3,9.6z"/>
		<circle class="st0" cx="15.3" cy="5.9" r="1.5"/>
		<path class="st0" d="M15.1,8h2c0.2,0,0.5,0.1,0.6,0.3l0.3,0.5c0.1,0.1,0.1,0.3,0.1,0.4v5.2h-0.8V10l0,0l-0.7-1v11.7h-1v-5.9h-0.6
			L15.1,8z"/>
		<path class="st0" d="M12.5,8.3C12.7,8.1,12.9,8,13.2,8h2v6.7h-0.6v5.9h-1V8.9l-0.7,0.9h-0.9l0.1-0.5"/>
		<path class="st0" d="M13.1,9.6c0,0-0.9,1.7-1.3,1.7h-1.7v-1h1.2c0.1,0,0.2-0.1,0.3-0.2L12.2,9l0.2-0.6L13,9.2L13.1,9.6z"/>
		<circle class="st0" cx="2.5" cy="14.4" r="0.4"/>
		<circle class="st0" cx="17.8" cy="14.4" r="0.4"/>
	</g>
</g>
</svg>
