<svg xmlns="http://www.w3.org/2000/svg" viewBox="0 0 20.36 21.02"><title>ICONES_Fichier 30</title><g id="Calque_2" data-name="Calque 2"><g id="Calque_1-2" data-name="Calque 1"><circle cx="3.63" cy="1.88" r="1.88" style="fill:#d7d200"/><circle cx="2.53" cy="20.43" r="0.59" style="fill:#d7d200"/><circle cx="5.24" cy="20.43" r="0.59" style="fill:#d7d200"/><circle cx="15.12" cy="20.43" r="0.59" style="fill:#d7d200"/><circle cx="17.83" cy="20.43" r="0.59" style="fill:#d7d200"/><path d="M3.88,4.5H1.38a1,1,0,0,0-.79.42l-.44.66A.94.94,0,0,0,0,6.1v6.53H1V7a.06.06,0,0,1,0,0l.93-1.3v14.8H3.13V13h.76Z" style="fill:#d7d200"/><path d="M7.17,4.92a1,1,0,0,0-.79-.42H3.88V13h.76v7.46H5.83V5.63l.85,1.19H7.77l-.11-.68" style="fill:#d7d200"/><path d="M6.52,6.6s1.1,2.2,1.66,2.2h2.11V7.56H8.76a.4.4,0,0,1-.35-.2L7.55,5.84l-.3-.74-.72,1Z" style="fill:#d7d200"/><circle cx="16.73" cy="1.88" r="1.88" style="fill:#d7d200"/><path d="M16.48,4.5H19a1,1,0,0,1,.79.42l.44.66a.94.94,0,0,1,.16.52v6.53h-1V7a.06.06,0,0,0,0,0l-.93-1.3v14.8H17.23V13h-.76Z" style="fill:#d7d200"/><path d="M13.18,4.92A1,1,0,0,1,14,4.5h2.5V13h-.76v7.46H14.53V5.63l-.85,1.19H12.59l.11-.68" style="fill:#d7d200"/><path d="M13.84,6.6s-1.1,2.2-1.66,2.2H10.07V7.56H11.6a.4.4,0,0,0,.35-.2l.86-1.52.3-.74.72,1Z" style="fill:#d7d200"/><circle cx="0.5" cy="12.61" r="0.5" style="fill:#d7d200"/><circle cx="19.86" cy="12.61" r="0.5" style="fill:#d7d200"/></g></g></svg>