<?xml version="1.0" encoding="utf-8"?>
<!-- Generator: Adobe Illustrator 21.1.0, SVG Export Plug-In . SVG Version: 6.00 Build 0)  -->
<svg version="1.1" id="Calque_1" xmlns="http://www.w3.org/2000/svg" xmlns:xlink="http://www.w3.org/1999/xlink" x="0px" y="0px"
	 viewBox="0 0 20.4 21" style="enable-background:new 0 0 20.4 21;" xml:space="preserve">
<title>ICONES_Fichier 30</title>
<g id="Calque_2">
	<g id="Calque_1-2">
		<circle cx="3.6" cy="1.9" r="1.9"/>
		<circle cx="2.5" cy="20.4" r="0.6"/>
		<circle cx="5.2" cy="20.4" r="0.6"/>
		<circle cx="15.1" cy="20.4" r="0.6"/>
		<circle cx="17.8" cy="20.4" r="0.6"/>
		<path d="M3.9,4.5H1.4c-0.3,0-0.6,0.2-0.8,0.4L0.1,5.6C0.1,5.7,0,5.9,0,6.1v6.5h1V7l0,0l0.9-1.3v14.8h1.2V13h0.8L3.9,4.5z"/>
		<path d="M7.2,4.9C7,4.7,6.7,4.5,6.4,4.5H3.9V13h0.8v7.5h1.2V5.6l0.8,1.2h1.1L7.7,6.1"/>
		<path d="M6.5,6.6c0,0,1.1,2.2,1.7,2.2h2.1V7.6H8.8c-0.1,0-0.3-0.1-0.4-0.2L7.6,5.8L7.2,5.1l-0.7,1L6.5,6.6z"/>
		<circle cx="16.7" cy="1.9" r="1.9"/>
		<path d="M16.5,4.5H19c0.3,0,0.6,0.2,0.8,0.4l0.4,0.7c0.1,0.2,0.2,0.3,0.2,0.5v6.5h-1V7l0,0l-0.9-1.3v14.8h-1.2V13h-0.8L16.5,4.5z"
			/>
		<path d="M13.2,4.9c0.2-0.3,0.5-0.4,0.8-0.4h2.5V13h-0.8v7.5h-1.2V5.6l-0.9,1.2h-1.1l0.1-0.7"/>
		<path d="M13.8,6.6c0,0-1.1,2.2-1.7,2.2h-2.1V7.6h1.5c0.1,0,0.3-0.1,0.4-0.2l0.9-1.5l0.3-0.7l0.7,1L13.8,6.6z"/>
		<circle cx="0.5" cy="12.6" r="0.5"/>
		<circle cx="19.9" cy="12.6" r="0.5"/>
	</g>
</g>
</svg>
