<?xml version="1.0" encoding="utf-8"?>
<!-- Generator: Adobe Illustrator 21.1.0, SVG Export Plug-In . SVG Version: 6.00 Build 0)  -->
<svg version="1.1" id="Calque_1" xmlns="http://www.w3.org/2000/svg" xmlns:xlink="http://www.w3.org/1999/xlink" x="0px" y="0px"
	 viewBox="0 0 27.2 22.4" style="enable-background:new 0 0 27.2 22.4;" xml:space="preserve">
<title>ICONES_Fichier 29</title>
<g id="Calque_2">
	<g id="Calque_1-2">
		<circle cx="5.3" cy="2.6" r="2.6"/>
		<circle cx="21.1" cy="2.6" r="2.6"/>
		<circle cx="13.2" cy="5.4" r="1.9"/>
		<path d="M5.4,6.7H1.3C0.5,6.7,0,7.3,0,8c0,0,0,0,0,0v6.3c0,0.4,0.3,0.7,0.7,0.7c0,0,0,0,0,0l0,0c0.4,0,0.7-0.3,0.7-0.7
			c0,0,0,0,0,0V8.4h1.4v12.7c0,0.5,0.3,1,0.9,1c0,0,0,0,0.1,0H4c0.5,0,0.9-0.4,0.9-0.9c0,0,0,0,0-0.1v-5.4h0.5L5.4,6.7z"/>
		<path d="M5.3,6.7h4.1c0.7,0,1.3,0.6,1.3,1.3c0,0,0,0,0,0v6.3c0,0.4-0.3,0.7-0.7,0.7c0,0,0,0,0,0l0,0c-0.4,0-0.7-0.3-0.7-0.7
			c0,0,0,0,0,0V8.4H7.8v12.7c0,0.5-0.3,1-0.9,1c0,0,0,0-0.1,0H6.7c-0.5,0-0.9-0.4-0.9-0.9c0,0,0,0,0-0.1v-5.4H5.3L5.3,6.7z"/>
		<path d="M19.7,8.4c0,0.2-2.9,8.4-2.9,8.4h8.6l-2.6-8.2L19.7,8.4z"/>
		<path d="M19.8,15.9L19.8,15.9c0.4,0,0.8,0.3,0.8,0.8v5c0,0.4-0.3,0.8-0.8,0.8h0c-0.4,0-0.8-0.3-0.8-0.8v-5
			C19,16.2,19.4,15.9,19.8,15.9z"/>
		<path d="M11.7,15.9L11.7,15.9c0.4,0,0.8,0.3,0.8,0.8v5c0,0.4-0.3,0.8-0.8,0.8h0c-0.4,0-0.8-0.3-0.8-0.8v-5
			C11,16.2,11.3,15.9,11.7,15.9z"/>
		<path d="M14.6,15.9L14.6,15.9c0.4,0,0.8,0.3,0.8,0.8v5c0,0.4-0.3,0.8-0.8,0.8h0c-0.4,0-0.8-0.3-0.8-0.8v-5
			C13.8,16.2,14.2,15.9,14.6,15.9z"/>
		<path d="M22.5,15.9L22.5,15.9c0.4,0,0.8,0.3,0.8,0.8v5c0,0.4-0.3,0.8-0.8,0.8h0c-0.4,0-0.8-0.3-0.8-0.8v-5
			C21.7,16.2,22.1,15.9,22.5,15.9z"/>
		<path d="M16.3,8.4l1.4-1.5c0.3-0.3,0.7-0.5,1.2-0.5h4.2c0.6,0,1.2,0.4,1.5,0.9l2.6,5.5c0.2,0.4,0,0.9-0.4,1.1l0,0
			c-0.4,0.2-0.9,0-1.1-0.4c0,0,0,0,0,0l-1.8-4.1c-0.1-0.2-0.3-0.4-0.6-0.4h-4.8c-0.2,0-0.3,0.1-0.4,0.2l-1.6,1.5L16.3,8.4z"/>
		<path d="M15.8,8.2h-3.4v7.4h2.1v-6h1.2v4.9c0,0.3,0.2,0.6,0.5,0.7c0.3,0,0.6-0.2,0.7-0.5c0-0.1,0-0.1,0-0.2V9.3
			C16.8,8.7,16.3,8.2,15.8,8.2z"/>
		<path d="M10.6,8.2H14v7.4h-2.1v-6h-1.2v4.9c0,0.3-0.2,0.6-0.5,0.7c-0.3,0-0.6-0.2-0.7-0.5c0-0.1,0-0.1,0-0.2V9.3
			C9.5,8.7,10,8.2,10.6,8.2C10.6,8.2,10.6,8.2,10.6,8.2z"/>
		<rect x="11" y="9.5" width="4.4" height="7"/>
	</g>
</g>
</svg>
