<?xml version="1.0" encoding="utf-8"?>
<!-- Generator: Adobe Illustrator 21.1.0, SVG Export Plug-In . SVG Version: 6.00 Build 0)  -->
<svg version="1.1" id="Calque_1" xmlns="http://www.w3.org/2000/svg" xmlns:xlink="http://www.w3.org/1999/xlink" x="0px" y="0px"
	 viewBox="0 0 20.4 21" style="enable-background:new 0 0 20.4 21;" xml:space="preserve">
<style type="text/css">
	.st0{fill:#E2DD00;}
</style>
<title>ICONES_Fichier 30</title>
<g id="Calque_2">
	<g id="Calque_1-2">
		<circle class="st0" cx="4" cy="6.3" r="1.9"/>
		<circle class="st0" cx="15.7" cy="6.3" r="1.9"/>
		<circle class="st0" cx="9.9" cy="8.4" r="1.4"/>
		<path class="st0" d="M4.1,9.6H1c-0.5,0-0.9,0.4-0.9,1c0,0,0,0,0,0v4.7c0,0.3,0.2,0.5,0.5,0.6c0,0,0,0,0,0l0,0
			c0.3,0,0.5-0.3,0.5-0.6c0,0,0,0,0,0v-4.4h1.1v9.4c0,0.4,0.3,0.7,0.6,0.7c0,0,0,0,0,0h0.2c0.4,0,0.7-0.3,0.7-0.7c0,0,0,0,0,0v-4
			h0.4L4.1,9.6z"/>
		<path class="st0" d="M4,9.6h3.1c0.5,0,0.9,0.4,0.9,1c0,0,0,0,0,0v4.7c0,0.3-0.2,0.5-0.5,0.6c0,0,0,0,0,0l0,0
			c-0.3,0-0.5-0.3-0.5-0.6c0,0,0,0,0,0v-4.4H5.9v9.4c0,0.4-0.3,0.7-0.6,0.7c0,0,0,0,0,0H5.1c-0.4,0-0.7-0.3-0.7-0.7c0,0,0,0,0,0v-4
			H4.1L4,9.6z"/>
		<path class="st0" d="M14.7,10.6c0,0.1-2.2,6.2-2.2,6.2h6.4L17,10.8L14.7,10.6z"/>
		<path class="st0" d="M14.7,16.2L14.7,16.2c0.3,0,0.6,0.3,0.6,0.6v3.7c0,0.3-0.3,0.6-0.6,0.6h0c-0.3,0-0.6-0.3-0.6-0.6v-3.7
			C14.2,16.4,14.4,16.2,14.7,16.2z"/>
		<path class="st0" d="M8.8,16.2L8.8,16.2c0.3,0,0.6,0.3,0.6,0.6v3.7c0,0.3-0.3,0.6-0.6,0.6h0c-0.3,0-0.6-0.3-0.6-0.6v-3.7
			C8.2,16.4,8.5,16.2,8.8,16.2z"/>
		<path class="st0" d="M10.9,16.2L10.9,16.2c0.3,0,0.6,0.3,0.6,0.6v3.7c0,0.3-0.3,0.6-0.6,0.6l0,0c-0.3,0-0.6-0.3-0.6-0.6v-3.7
			C10.3,16.4,10.6,16.2,10.9,16.2z"/>
		<path class="st0" d="M16.7,16.2L16.7,16.2c0.3,0,0.6,0.3,0.6,0.6v3.7c0,0.3-0.3,0.6-0.6,0.6h0c-0.3,0-0.6-0.3-0.6-0.6v-3.7
			C16.2,16.4,16.4,16.2,16.7,16.2z"/>
		<path class="st0" d="M12.2,10.7l1.1-1.1c0.2-0.2,0.5-0.4,0.9-0.4h3.1c0.5,0,0.9,0.3,1.1,0.7l1.9,4.1c0.1,0.3,0,0.7-0.3,0.8l0,0
			c-0.3,0.1-0.7,0-0.8-0.3c0,0,0,0,0,0l-1.3-3.1c-0.1-0.2-0.2-0.3-0.4-0.3h-3.6c-0.1,0-0.2,0-0.3,0.1l-1.2,1.1L12.2,10.7z"/>
		<path class="st0" d="M11.8,10.5H9.3V16h1.5v-4.4h0.9v3.6c0,0.2,0.1,0.5,0.4,0.5c0.2,0,0.5-0.1,0.5-0.4c0,0,0-0.1,0-0.1v-3.8
			C12.5,10.9,12.2,10.5,11.8,10.5z"/>
		<path class="st0" d="M7.9,10.5h2.5V16H8.9v-4.4H8v3.6c0,0.2-0.1,0.5-0.4,0.5c-0.2,0-0.5-0.1-0.5-0.4c0,0,0-0.1,0-0.1v-3.8
			C7.2,10.9,7.5,10.5,7.9,10.5C7.9,10.5,7.9,10.5,7.9,10.5z"/>
		<rect x="8.2" y="11.5" class="st0" width="3.2" height="5.2"/>
	</g>
</g>
</svg>
