<svg xmlns="http://www.w3.org/2000/svg" viewBox="0 0 27.23 22.42"><title>ICONES_Fichier 29</title><g id="Calque_2" data-name="Calque 2"><g id="Calque_1-2" data-name="Calque 1"><circle cx="5.31" cy="2.59" r="2.59" style="fill:#e2dd00"/><circle cx="21.13" cy="2.59" r="2.59" style="fill:#e2dd00"/><circle cx="13.17" cy="5.42" r="1.88" style="fill:#e2dd00"/><path d="M5.4,6.67H1.26A1.29,1.29,0,0,0,0,8v6.34a.73.73,0,0,0,.71.75h0a.73.73,0,0,0,.71-.75V8.42H2.85V21.13a.93.93,0,0,0,.91,1H4a.93.93,0,0,0,.91-1V15.72h.48Z" style="fill:#e2dd00"/><path d="M5.29,6.67H9.43A1.29,1.29,0,0,1,10.69,8v6.34a.73.73,0,0,1-.71.75h0a.73.73,0,0,1-.71-.75V8.42H7.84V21.13a.93.93,0,0,1-.91,1H6.72a.93.93,0,0,1-.91-1V15.72H5.33Z" style="fill:#e2dd00"/><path d="M19.72,8.38c0,.19-2.91,8.39-2.91,8.39h8.63L22.85,8.58Z" style="fill:#e2dd00"/><rect x="19.02" y="15.86" width="1.53" height="6.57" rx="0.77" ry="0.77" style="fill:#e2dd00"/><rect x="10.98" y="15.86" width="1.53" height="6.57" rx="0.77" ry="0.77" style="fill:#e2dd00"/><rect x="13.83" y="15.86" width="1.53" height="6.57" rx="0.77" ry="0.77" style="fill:#e2dd00"/><rect x="21.71" y="15.86" width="1.53" height="6.57" rx="0.77" ry="0.77" style="fill:#e2dd00"/><path d="M16.29,8.42l1.42-1.54a1.61,1.61,0,0,1,1.18-.52h4.21a1.61,1.61,0,0,1,1.45.92l2.59,5.49a.83.83,0,0,1-.4,1.1h0a.83.83,0,0,1-1.11-.43L23.88,9.3a.61.61,0,0,0-.56-.37h-4.8a.61.61,0,0,0-.42.16l-1.64,1.52Z" style="fill:#e2dd00"/><path d="M15.77,8.2h-3.4l0,7.42h2.06v-6h1.17v4.86a.59.59,0,1,0,1.17,0V9.28A1.06,1.06,0,0,0,15.77,8.2Z" style="fill:#e2dd00"/><path d="M10.57,8.2H14l0,7.42H11.87v-6H10.7v4.86a.59.59,0,1,1-1.17,0V9.28A1.06,1.06,0,0,1,10.57,8.2Z" style="fill:#e2dd00"/><rect x="10.99" y="9.53" width="4.37" height="7" style="fill:#e2dd00"/></g></g></svg>