<?xml version="1.0" encoding="utf-8"?>
<!-- Generator: Adobe Illustrator 21.1.0, SVG Export Plug-In . SVG Version: 6.00 Build 0)  -->
<svg version="1.1" id="Calque_1" xmlns="http://www.w3.org/2000/svg" xmlns:xlink="http://www.w3.org/1999/xlink" x="0px" y="0px"
	 viewBox="0 0 20.4 21" style="enable-background:new 0 0 20.4 21;" xml:space="preserve">
<style type="text/css">
	.st0{fill:#D7D200;}
</style>
<title>ICONES_Fichier 30</title>
<g id="Calque_2_1_">
	<g id="Calque_1-2_1_">
		<path class="st0" d="M9.5,17.6c0.3-3.9,0.2-7.9-0.3-11.8l0.5-0.1c0,0,1.9,3.3,1.4,11.5L9.5,17.6z"/>
		<path class="st0" d="M9.8,16.7c0,0-6.1,2.3-6.3,2.8C3.4,20.1,4.4,21,6.3,21h8.1c0,0,3.5-0.3,2.4-1.1c-1.1-0.8-5.3-3-5.5-3.2
			C10.8,16.7,10.3,16.7,9.8,16.7z"/>
		<path class="st0" d="M7.5,4.7c0,0-1.8,0.8-1.9,1.6c-0.1,1-0.1,1.9,0,2.9C5.8,9.5,7.5,6,8.1,6c0.4,0,0.9,0,1.3,0.1L9.8,6
			c0,0,0.5-1.5,0.9-1.3c0.5,0.3,2,0.9,2.2,1.6c0,0,0.9-1.1,0-1.7C12,4,10.8,3.8,9.6,3.9c0,0,0.1-3.4,2.1-3.6
			C11-0.1,10.1-0.1,9.4,0.5C8.5,1.4,8.1,2.7,8.4,4c0,0-3.9-0.6-4.6,0.2C3.6,4.5,3.4,4.9,3.3,5.2C3.3,5.2,6.6,4.4,7.5,4.7z"/>
	</g>
</g>
</svg>
