<?xml version="1.0" encoding="utf-8"?>
<!-- Generator: Adobe Illustrator 21.1.0, SVG Export Plug-In . SVG Version: 6.00 Build 0)  -->
<svg version="1.1" id="Calque_1" xmlns="http://www.w3.org/2000/svg" xmlns:xlink="http://www.w3.org/1999/xlink" x="0px" y="0px"
	 viewBox="0 0 13.1 20" style="enable-background:new 0 0 13.1 20;" xml:space="preserve">
<title>ICONES_Fichier 27</title>
<g id="Calque_2">
	<g id="Calque_1-2">
		<path d="M5.9,16.7C6.2,13,6.1,9.2,5.6,5.5l0.5-0.1c0,0,1.8,3.1,1.3,10.9L5.9,16.7z"/>
		<path d="M6.2,15.9c0,0-5.8,2.1-6,2.7S1,20,2.9,20h7.7c0,0,3.3-0.3,2.3-1s-5-2.9-5.3-3C7.1,15.9,6.7,15.9,6.2,15.9z"/>
		<path d="M4,4.5c0,0-1.7,0.8-1.8,1.5c-0.1,0.9-0.1,1.8,0,2.8c0.1,0.3,1.8-3,2.3-3c0.4,0,0.8,0,1.3,0.1l0.4-0.1c0,0,0.5-1.5,0.9-1.2
			S9,5.4,9.2,6c0,0,0.9-1,0-1.6C8.2,3.8,7.1,3.6,6,3.7c0,0,0.1-3.3,2-3.4C7.3-0.1,6.4-0.1,5.8,0.4c-0.9,0.9-1.3,2.2-1,3.4
			c0,0-3.7-0.6-4.4,0.1C0.2,4.3,0.1,4.7,0,5C0,5,3.1,4.2,4,4.5z"/>
	</g>
</g>
</svg>
