<?xml version="1.0" encoding="utf-8"?>
<!-- Generator: Adobe Illustrator 21.1.0, SVG Export Plug-In . SVG Version: 6.00 Build 0)  -->
<svg version="1.1" id="Calque_1" xmlns="http://www.w3.org/2000/svg" xmlns:xlink="http://www.w3.org/1999/xlink" x="0px" y="0px"
	 viewBox="0 0 19.9 17.9" style="enable-background:new 0 0 19.9 17.9;" xml:space="preserve">
<title>ICONES_Fichier 26</title>
<g id="Calque_2">
	<g id="Calque_1-2">
		<path d="M18.5,4.1H1.3C0.6,4.1,0,4.7,0,5.4l0,0v4.7l8,1.2l0.5,0.1c0.3-0.7,1.2-1,1.9-0.7c0.3,0.1,0.5,0.4,0.7,0.7l0.6-0.1l8.1-1.2
			V5.4C19.8,4.7,19.2,4.2,18.5,4.1z"/>
		<path d="M11.3,12.5L11.3,12.5c-0.2,0.8-1,1.2-1.8,1c-0.5-0.1-0.8-0.5-1-1L0,11.1v5c0,1,0.8,1.8,1.8,1.8h16.3c1,0,1.8-0.8,1.8-1.8
			v-5L11.3,12.5z"/>
		<path d="M13,0.2H6.8c-1.4-0.1-2.6,1-2.7,2.4v1.2h1.3V2.7C5.4,2,6,1.5,6.7,1.5H13c0.7,0,1.3,0.5,1.4,1.2v1.2h1.4V2.7
			C15.6,1.3,14.4,0.2,13,0.2z"/>
		<path d="M16,4.1h-1.9V2.7c0-0.6-0.4-1-1-1H13H6.8C6.2,1.6,5.7,2,5.7,2.6v0.1v1.5H3.8V2.7C3.9,1.1,5.2,0,6.8,0H13
			c1.6-0.1,2.9,1.1,3,2.6l0,0V4.1z M14.6,3.6h0.9v-1c-0.1-1.3-1.2-2.2-2.5-2.1l0,0H6.8C5.5,0.4,4.4,1.4,4.3,2.7v1h0.8v-1
			c0-0.8,0.8-1.5,1.6-1.5H13c0.8,0,1.6,0.6,1.6,1.5V3.6z"/>
	</g>
</g>
</svg>
