<svg xmlns="http://www.w3.org/2000/svg" viewBox="0 0 54.92 84.85"><title>ICONES_Fichier 52</title><g id="Calque_2" data-name="Calque 2"><g id="Calque_1-2" data-name="Calque 1"><path d="M11,13.69a12.5,12.5,0,0,0,6.83-6.83s8.17,3.5,14,3.42,9.67.42,12,3.42c0,0-1.67-13.69-16.42-13.69S11,13.69,11,13.69Z" style="fill:#dfda00"/><path d="M27.46,48.73s-7.15-4.87-7.15-9.94V34.23s-8.12-5.94-8.12-11.37,7.19-10.31,7.19-10.31A68.19,68.19,0,0,0,37.5,15.1a6.06,6.06,0,0,1,6.11,4.17c.67,2.12.08,4.14-.76,6.2C41.71,28.26,39,32.86,34.94,34v4.75S33.11,45.85,27.46,48.73Z" style="fill:#dfda00"/><path d="M11.29,59.35H27.46a0,0,0,0,1,0,0V80.44a0,0,0,0,1,0,0H11.29a1.83,1.83,0,0,1-1.83-1.83V61.18a1.83,1.83,0,0,1,1.83-1.83Z" style="fill:#dfda00"/><rect x="9.44" y="83.29" width="18.02" height="1.56" style="fill:#dfda00"/><path d="M27.58,53.57c-.1-.05-10.17-5.28-10.17-10.93v-.25h-.25C17,42.39,0,42.85,0,64.22c0,.06-.29,6.21,4.75,8.06l.34.12V61.55a6.39,6.39,0,0,1,6.38-6.38h.14V52.85H13v2.31H27.71V53.64Z" style="fill:#dfda00"/><path d="M29.29,59.35H45.46a0,0,0,0,1,0,0V80.44a0,0,0,0,1,0,0H29.29a1.83,1.83,0,0,1-1.83-1.83V61.18A1.83,1.83,0,0,1,29.29,59.35Z" transform="translate(72.92 139.79) rotate(-180)" style="fill:#dfda00"/><rect x="27.46" y="83.29" width="18.02" height="1.56" transform="translate(72.94 168.15) rotate(-180)" style="fill:#dfda00"/><path d="M54.92,64.23c0-21.37-17-21.84-17.15-21.84h-.25v.25c0,5.65-10.06,10.88-10.17,10.93l-.14.07v1.53H42V52.85h1.35v2.31h.14a6.39,6.39,0,0,1,6.38,6.38V72.4l.34-.12C55.2,70.42,54.92,64.28,54.92,64.23Z" style="fill:#dfda00"/></g></g></svg>