<?xml version="1.0" encoding="utf-8"?>
<!-- Generator: Adobe Illustrator 21.1.0, SVG Export Plug-In . SVG Version: 6.00 Build 0)  -->
<svg version="1.1" id="Calque_1" xmlns="http://www.w3.org/2000/svg" xmlns:xlink="http://www.w3.org/1999/xlink" x="0px" y="0px"
	 viewBox="0 0 54.9 84.8" style="enable-background:new 0 0 54.9 84.8;" xml:space="preserve">
<style type="text/css">
	.st0{fill:#D5D4D4;}
</style>
<title>ICONES_Fichier 52</title>
<g id="Calque_2">
	<g id="Calque_1-2">
		<path class="st0" d="M11,13.7c3.1-1.3,5.6-3.7,6.8-6.8c0,0,8.2,3.5,14,3.4s9.7,0.4,12,3.4c0,0-1.7-13.7-16.4-13.7S11,13.7,11,13.7
			z"/>
		<path class="st0" d="M27.5,48.7c0,0-7.1-4.9-7.1-9.9v-4.6c0,0-8.1-5.9-8.1-11.4s7.2-10.3,7.2-10.3c5.9,1.7,12,2.5,18.1,2.6
			c2.7-0.2,5.3,1.6,6.1,4.2c0.7,2.1,0.1,4.1-0.8,6.2c-1.1,2.8-3.9,7.4-7.9,8.5v4.8C34.9,38.7,33.1,45.8,27.5,48.7z"/>
		<path class="st0" d="M11.3,59.3h16.2l0,0v21.1l0,0H11.3c-1,0-1.8-0.8-1.8-1.8l0,0V61.2C9.5,60.2,10.3,59.3,11.3,59.3
			C11.3,59.3,11.3,59.3,11.3,59.3z"/>
		<rect x="9.4" y="83.3" class="st0" width="18" height="1.6"/>
		<path class="st0" d="M27.6,53.6c-0.1,0-10.2-5.3-10.2-10.9v-0.2h-0.2C17,42.4,0,42.8,0,64.2c0,0.1-0.3,6.2,4.8,8.1l0.3,0.1V61.5
			c0-3.5,2.9-6.4,6.4-6.4h0.1v-2.3H13v2.3h14.7v-1.5L27.6,53.6z"/>
		<path class="st0" d="M43.6,80.4H27.5l0,0V59.3l0,0h16.2c1,0,1.8,0.8,1.8,1.8l0,0v17.4C45.5,79.6,44.6,80.4,43.6,80.4L43.6,80.4z"
			/>
		<rect x="27.5" y="83.3" class="st0" width="18" height="1.6"/>
		<path class="st0" d="M54.9,64.2c0-21.4-17-21.8-17.2-21.8h-0.2v0.2c0,5.7-10.1,10.9-10.2,10.9l-0.1,0.1v1.5H42v-2.3h1.3v2.3h0.1
			c3.5,0,6.4,2.9,6.4,6.4v10.9l0.3-0.1C55.2,70.4,54.9,64.3,54.9,64.2z"/>
	</g>
</g>
</svg>
