<svg xmlns="http://www.w3.org/2000/svg" viewBox="0 0 60.29 60.66"><title>ICONES_Fichier 57</title><g id="Calque_2" data-name="Calque 2"><g id="Calque_1-2" data-name="Calque 1"><path d="M48.93,26.09A11.36,11.36,0,1,0,60.29,37.45,11.36,11.36,0,0,0,48.93,26.09Zm0,19a7.65,7.65,0,1,1,7.65-7.65A7.65,7.65,0,0,1,48.93,45.1Z" style="fill:#eae402"/><rect x="32.46" y="41.8" width="3.6" height="20.61" transform="translate(46.88 -8.97) rotate(45)" style="fill:#eae402"/><polygon points="7.56 30.08 3.78 30.08 3.78 3.8 41.37 3.8 41.37 7.44 45.11 7.44 45.11 0 0 0 0 33.9 7.56 33.9 7.56 30.08" style="fill:#eae402"/><polygon points="33.78 37.52 11.34 37.52 11.34 11.23 48.93 11.23 48.93 22.42 52.67 22.42 52.67 7.44 7.56 7.44 7.56 41.34 33.78 41.34 33.78 37.52" style="fill:#eae402"/></g></g></svg>