<?xml version="1.0" encoding="utf-8"?>
<!-- Generator: Adobe Illustrator 21.1.0, SVG Export Plug-In . SVG Version: 6.00 Build 0)  -->
<svg version="1.1" id="Calque_1" xmlns="http://www.w3.org/2000/svg" xmlns:xlink="http://www.w3.org/1999/xlink" x="0px" y="0px"
	 viewBox="0 0 60.3 60.7" style="enable-background:new 0 0 60.3 60.7;" xml:space="preserve">
<style type="text/css">
	.st0{fill:#D5D4D4;}
</style>
<title>ICONES_Fichier 57</title>
<g id="Calque_2">
	<g id="Calque_1-2">
		<path class="st0" d="M48.9,26.1c-6.3,0-11.4,5.1-11.4,11.4s5.1,11.4,11.4,11.4s11.4-5.1,11.4-11.4S55.2,26.1,48.9,26.1
			C48.9,26.1,48.9,26.1,48.9,26.1z M48.9,45.1c-4.2,0-7.6-3.4-7.6-7.7s3.4-7.6,7.7-7.6c4.2,0,7.6,3.4,7.6,7.6
			C56.6,41.7,53.2,45.1,48.9,45.1C48.9,45.1,48.9,45.1,48.9,45.1L48.9,45.1z"/>
		
			<rect x="24" y="50.3" transform="matrix(0.7071 -0.7071 0.7071 0.7071 -26.8047 39.4862)" class="st0" width="20.6" height="3.6"/>
		<polygon class="st0" points="7.6,30.1 3.8,30.1 3.8,3.8 41.4,3.8 41.4,7.4 45.1,7.4 45.1,0 0,0 0,33.9 7.6,33.9 		"/>
		<polygon class="st0" points="33.8,37.5 11.3,37.5 11.3,11.2 48.9,11.2 48.9,22.4 52.7,22.4 52.7,7.4 7.6,7.4 7.6,41.3 33.8,41.3 
					"/>
	</g>
</g>
</svg>
