<svg xmlns="http://www.w3.org/2000/svg" viewBox="0 0 75.19 47.61"><title>ICONES_Fichier 56</title><g id="Calque_2" data-name="Calque 2"><g id="Calque_1-2" data-name="Calque 1"><path d="M46.52,19.35l-2.94-7.82a.54.54,0,0,0-.6-.33l-6.21,1.31A17.17,17.17,0,0,0,35.4,11l1.71-6.11a.54.54,0,0,0-.29-.62L29.21.87a.55.55,0,0,0-.66.19h0L25.09,6.36a17.17,17.17,0,0,0-2-.06L20,.77a.54.54,0,0,0-.64-.24L11.52,3.47a.54.54,0,0,0-.33.6l1.31,6.21a17.1,17.1,0,0,0-1.45,1.37L4.93,9.93a.54.54,0,0,0-.62.29L.86,17.84a.54.54,0,0,0,.19.64L6.38,22a16.89,16.89,0,0,0-.08,2L.76,27.06a.54.54,0,0,0-.23.63l2.94,7.82a.54.54,0,0,0,.6.33l6.21-1.31A17.16,17.16,0,0,0,11.64,36L9.93,42.1a.54.54,0,0,0,.29.63l7.61,3.45a.54.54,0,0,0,.66-.2L22,40.68a17.16,17.16,0,0,0,2,.06l3.1,5.53a.54.54,0,0,0,.64.24l7.82-2.94a.54.54,0,0,0,.32-.59l-1.3-6.22A16.91,16.91,0,0,0,36,35.39l6.12,1.72a.54.54,0,0,0,.61-.28l3.45-7.61a.54.54,0,0,0-.19-.66l-5.33-3.47a17.11,17.11,0,0,0,.08-2L46.28,20A.54.54,0,0,0,46.52,19.35Zm-6.55,3a.53.53,0,0,0-.27.47,16.24,16.24,0,0,1-.07,2.52.53.53,0,0,0,.23.48L45,29.19,42,36l-6-1.67a.53.53,0,0,0-.52.16,16,16,0,0,1-1.84,1.69.53.53,0,0,0-.18.53l1.27,6.06-7,2.61-3-5.39a.53.53,0,0,0-.49-.27,16,16,0,0,1-2.49-.07.53.53,0,0,0-.5.24L17.84,45,11.06,42l1.67-6a.53.53,0,0,0-.15-.53,16,16,0,0,1-1.7-1.83.53.53,0,0,0-.53-.18L4.29,34.72l-2.61-7,5.39-3a.53.53,0,0,0,.27-.49,16,16,0,0,1,.06-2.5.53.53,0,0,0-.22-.5L2,17.85l3.08-6.79,6,1.67a.53.53,0,0,0,.51-.14,16.23,16.23,0,0,1,1.85-1.71.53.53,0,0,0,.18-.51L12.31,4.3l7-2.62,3,5.39a.53.53,0,0,0,.49.27,16,16,0,0,1,2.49.07.53.53,0,0,0,.5-.24L29.2,2,36,5.08l-1.66,6a.53.53,0,0,0,.15.53,16,16,0,0,1,1.7,1.83.53.53,0,0,0,.53.18l6.06-1.27,2.62,7Z" style="fill:#e2dd00;stroke:#e2dd00;stroke-miterlimit:10"/><circle cx="23.49" cy="23.52" r="7.81" style="fill:none;stroke:#e2dd00;stroke-miterlimit:10;stroke-width:2px"/><path d="M74.88,31.35l-1.73-4.59a.32.32,0,0,0-.35-.19l-3.64.77a10.08,10.08,0,0,0-.8-.86l1-3.59a.32.32,0,0,0-.17-.36l-4.47-2a.33.33,0,0,0-.39.11h0l-2,3.12a10.08,10.08,0,0,0-1.17,0L59.3,20.44a.32.32,0,0,0-.38-.14L54.33,22a.32.32,0,0,0-.19.35L54.9,26a10,10,0,0,0-.85.8l-3.59-1a.32.32,0,0,0-.36.17l-2,4.47a.32.32,0,0,0,.11.38l3.13,2a9.92,9.92,0,0,0,0,1.17L48,35.88a.32.32,0,0,0-.14.37l1.73,4.59A.32.32,0,0,0,50,41l3.64-.77a10.07,10.07,0,0,0,.8.86l-1,3.59a.32.32,0,0,0,.17.37l4.47,2a.32.32,0,0,0,.39-.12l2-3.12a10.08,10.08,0,0,0,1.17,0l1.82,3.25a.32.32,0,0,0,.38.14l4.59-1.73a.32.32,0,0,0,.19-.35l-.76-3.65a9.93,9.93,0,0,0,.85-.8l3.59,1a.32.32,0,0,0,.36-.16l2-4.47a.32.32,0,0,0-.11-.39l-3.13-2a10,10,0,0,0,0-1.17l3.25-1.82A.32.32,0,0,0,74.88,31.35ZM71,33.1a.31.31,0,0,0-.16.28,9.53,9.53,0,0,1,0,1.48.31.31,0,0,0,.14.28l3,2-1.81,4-3.5-1a.31.31,0,0,0-.31.09,9.42,9.42,0,0,1-1.08,1,.31.31,0,0,0-.11.31l.74,3.56-4.09,1.54-1.78-3.17a.31.31,0,0,0-.28-.16,9.37,9.37,0,0,1-1.46,0,.31.31,0,0,0-.3.14l-2,3-4-1.81,1-3.5a.31.31,0,0,0-.09-.31,9.37,9.37,0,0,1-1-1.07.31.31,0,0,0-.31-.11l-3.56.74-1.54-4.09,3.17-1.78a.31.31,0,0,0,.16-.28,9.42,9.42,0,0,1,0-1.47.31.31,0,0,0-.13-.29l-3-2,1.81-4,3.5,1a.31.31,0,0,0,.3-.08,9.53,9.53,0,0,1,1.09-1,.31.31,0,0,0,.1-.3l-.75-3.56L58.89,21l1.78,3.17a.31.31,0,0,0,.28.16,9.37,9.37,0,0,1,1.46,0,.31.31,0,0,0,.3-.14l2-3,4,1.81-1,3.49a.31.31,0,0,0,.09.31,9.37,9.37,0,0,1,1,1.07.31.31,0,0,0,.31.11l3.56-.74,1.54,4.1Z" style="fill:#e2dd00"/><path d="M63.73,47.61a.61.61,0,0,1-.53-.31l-1.73-3.09c-.28,0-.56,0-.85,0l-1.94,3a.61.61,0,0,1-.76.22l-4.47-2a.61.61,0,0,1-.33-.73l1-3.41c-.2-.2-.4-.41-.58-.62L50,41.32a.61.61,0,0,1-.69-.38L47.6,36.35a.61.61,0,0,1,.27-.73L51,33.88c0-.26,0-.53,0-.85l-3-1.94a.61.61,0,0,1-.22-.74l2-4.47a.61.61,0,0,1,.71-.33l3.43,1c.22-.23.42-.42.62-.58l-.73-3.47a.61.61,0,0,1,.38-.69L58.82,20a.61.61,0,0,1,.74.28l1.73,3.09c.28,0,.57,0,.85,0l1.94-3a.63.63,0,0,1,.75-.22l4.47,2a.61.61,0,0,1,.33.71l-1,3.42c.2.2.4.41.58.62l3.47-.73a.61.61,0,0,1,.69.38l1.73,4.59a.61.61,0,0,1-.27.74l-3.09,1.73c0,.26,0,.53,0,.85l3,1.94a.61.61,0,0,1,.21.76l-2,4.47a.61.61,0,0,1-.7.33l-3.43-1c-.22.22-.42.42-.62.58l.73,3.48a.61.61,0,0,1-.37.68l-4.6,1.73A.58.58,0,0,1,63.73,47.61Zm-1.93-4L63.71,47l4.61-1.72-.8-3.84.14-.11a9.53,9.53,0,0,0,.82-.78l.12-.13,3.76,1.06,2-4.47-3.28-2.16,0-.18a9.59,9.59,0,0,0,0-1.13v-.18l3.41-1.93-1.73-4.59-3.84.8-.11-.14a9.75,9.75,0,0,0-.78-.83L68,26.57l1.05-3.76-4.48-2L62.44,24l-.18,0a9.88,9.88,0,0,0-1.14,0H61L59,20.59,54.43,22.3l.8,3.84-.14.11a9.7,9.7,0,0,0-.82.78l-.12.13L50.38,26.1l-2,4.48,3.28,2.15,0,.18a9.57,9.57,0,0,0,0,1.13v.18l-3.41,1.92,1.72,4.61,3.84-.8.11.14a9.75,9.75,0,0,0,.78.83l.13.12-1.05,3.76,4.48,2.05,2.16-3.28.18,0a9.92,9.92,0,0,0,1.14,0ZM63.73,47l-1.91-3.39a11.14,11.14,0,0,1-1.53-.06l-2.15,3.26-4.44-2,1-3.75a11.21,11.21,0,0,1-1-1.13l-3.82.79-1.71-4.56,3.39-1.91a11.19,11.19,0,0,1,0-1.53l-3.25-2.14,2-4.45,3.75,1a10.37,10.37,0,0,1,1.13-1l-.8-3.82L59,20.61,60.93,24a11.37,11.37,0,0,1,1.53.06L64.6,20.8l4.44,2-1,3.74a11.18,11.18,0,0,1,1,1.13l3.82-.79,1.72,4.57-3.4,1.9a10.7,10.7,0,0,1,0,1.53L74.39,37l-2,4.45-3.75-1a9.8,9.8,0,0,1-1.13,1l.79,3.82Zm-1.92-4a.61.61,0,0,1,.53.32L64,46.27l3.62-1.36-.69-3.31a.61.61,0,0,1,.21-.6,9,9,0,0,0,1-1,.61.61,0,0,1,.6-.18l3.27.91,1.6-3.53-2.83-1.85a.61.61,0,0,1-.27-.55,9.13,9.13,0,0,0,0-1.44.61.61,0,0,1,.31-.55l3-1.66-1.36-3.63-3.31.69a.6.6,0,0,1-.6-.21,9,9,0,0,0-1-1,.6.6,0,0,1-.17-.61l.91-3.25-3.52-1.6L63,24.37a.6.6,0,0,1-.58.27,9,9,0,0,0-1.42,0,.6.6,0,0,1-.56-.32l-1.66-2.94L55.13,22.7l.7,3.32a.61.61,0,0,1-.2.59,9.22,9.22,0,0,0-1.06,1,.61.61,0,0,1-.59.17l-3.26-.91-1.6,3.53,2.83,1.85a.61.61,0,0,1,.26.57,9,9,0,0,0,0,1.42.61.61,0,0,1-.32.56l-2.94,1.66L50.27,40l3.31-.69a.61.61,0,0,1,.6.21,9,9,0,0,0,1,1,.6.6,0,0,1,.17.61l-.91,3.26,3.52,1.6,1.85-2.83a.61.61,0,0,1,.58-.27,9.18,9.18,0,0,0,1.42,0Z" style="fill:#e2dd00"/><path d="M61.36,39a5.17,5.17,0,1,1,5.17-5.17A5.18,5.18,0,0,1,61.36,39Zm0-9.17a4,4,0,1,0,4,4A4,4,0,0,0,61.36,29.8Z" style="fill:#e2dd00"/></g></g></svg>