<?xml version="1.0" encoding="utf-8"?>
<!-- Generator: Adobe Illustrator 21.1.0, SVG Export Plug-In . SVG Version: 6.00 Build 0)  -->
<svg version="1.1" id="Calque_1" xmlns="http://www.w3.org/2000/svg" xmlns:xlink="http://www.w3.org/1999/xlink" x="0px" y="0px"
	 viewBox="0 0 75.2 47.6" style="enable-background:new 0 0 75.2 47.6;" xml:space="preserve">
<style type="text/css">
	.st0{fill:#D8D8D8;stroke:#D8D8D8;stroke-miterlimit:10;}
	.st1{fill:none;stroke:#D8D8D8;stroke-width:2;stroke-miterlimit:10;}
	.st2{fill:#E2DD00;}
	.st3{fill:#D8D8D8;}
</style>
<title>ICONES_Fichier 56</title>
<g id="Calque_2">
	<g id="Calque_1-2">
		<path class="st0" d="M46.5,19.3l-2.9-7.8c-0.1-0.2-0.3-0.4-0.6-0.3l-6.2,1.3c-0.4-0.5-0.9-1-1.4-1.5l1.7-6.1
			c0.1-0.2-0.1-0.5-0.3-0.6l-7.6-3.4c-0.2-0.1-0.5,0-0.7,0.2l0,0l-3.5,5.3c-0.7-0.1-1.3-0.1-2-0.1L20,0.8c-0.1-0.2-0.4-0.3-0.6-0.2
			l-7.8,2.9c-0.2,0.1-0.4,0.3-0.3,0.6l1.3,6.2c-0.5,0.4-1,0.9-1.4,1.4L4.9,9.9C4.7,9.9,4.4,10,4.3,10.2l-3.4,7.6
			c-0.1,0.2,0,0.5,0.2,0.6L6.4,22c-0.1,0.7-0.1,1.3-0.1,2l-5.5,3.1c-0.2,0.1-0.3,0.4-0.2,0.6l2.9,7.8c0.1,0.2,0.3,0.4,0.6,0.3
			l6.2-1.3c0.4,0.5,0.9,1,1.4,1.5l-1.7,6.1c-0.1,0.3,0.1,0.5,0.3,0.6l7.6,3.5c0.2,0.1,0.5,0,0.7-0.2l3.5-5.3c0.7,0.1,1.3,0.1,2,0.1
			l3.1,5.5c0.1,0.2,0.4,0.3,0.6,0.2l7.8-2.9c0.2-0.1,0.4-0.3,0.3-0.6l-1.3-6.2c0.5-0.4,1-0.9,1.4-1.4l6.1,1.7
			c0.2,0.1,0.5-0.1,0.6-0.3l3.5-7.6c0.1-0.2,0-0.5-0.2-0.7l-5.3-3.5c0.1-0.7,0.1-1.3,0.1-2l5.5-3.1C46.5,19.9,46.6,19.6,46.5,19.3z
			 M40,22.3c-0.2,0.1-0.3,0.3-0.3,0.5c0,0.8,0,1.7-0.1,2.5c0,0.2,0.1,0.4,0.2,0.5l5.1,3.4L42,36l-6-1.7c-0.2,0-0.4,0-0.5,0.2
			c-0.6,0.6-1.2,1.2-1.8,1.7c-0.2,0.1-0.2,0.3-0.2,0.5l1.3,6.1l-7,2.6l-3-5.4c-0.1-0.2-0.3-0.3-0.5-0.3c-0.8,0-1.7,0-2.5-0.1
			c-0.2,0-0.4,0.1-0.5,0.2L17.8,45l-6.8-3l1.7-6c0.1-0.2,0-0.4-0.1-0.5c-0.6-0.6-1.2-1.2-1.7-1.8c-0.1-0.2-0.3-0.2-0.5-0.2l-6.1,1.3
			l-2.6-7l5.4-3c0.2-0.1,0.3-0.3,0.3-0.5c0-0.8,0-1.7,0.1-2.5c0-0.2-0.1-0.4-0.2-0.5L2,17.8l3.1-6.8l6,1.7c0.2,0,0.4,0,0.5-0.1
			c0.6-0.6,1.2-1.2,1.9-1.7c0.1-0.1,0.2-0.3,0.2-0.5l-1.3-6.1l7-2.6l3,5.4c0.1,0.2,0.3,0.3,0.5,0.3c0.8,0,1.7,0,2.5,0.1
			c0.2,0,0.4-0.1,0.5-0.2L29.2,2L36,5.1l-1.7,6c-0.1,0.2,0,0.4,0.2,0.5c0.6,0.6,1.2,1.2,1.7,1.8c0.1,0.2,0.3,0.2,0.5,0.2l6.1-1.3
			l2.6,7L40,22.3z"/>
		<circle class="st1" cx="23.5" cy="23.5" r="7.8"/>
		<path class="st2" d="M74.9,31.3l-1.7-4.6c-0.1-0.1-0.2-0.2-0.3-0.2l-3.6,0.8c-0.2-0.3-0.5-0.6-0.8-0.9l1-3.6c0-0.1,0-0.3-0.2-0.4
			l-4.5-2c-0.1-0.1-0.3,0-0.4,0.1l0,0l-2,3.1c-0.4,0-0.8,0-1.2,0l-1.9-3.3c-0.1-0.1-0.2-0.2-0.4-0.1L54.3,22
			c-0.1,0.1-0.2,0.2-0.2,0.4l0.8,3.6c-0.3,0.2-0.6,0.5-0.8,0.8l-3.6-1c-0.1,0-0.3,0-0.4,0.2l-2,4.5c-0.1,0.1,0,0.3,0.1,0.4l3.1,2
			c0,0.4,0,0.8,0,1.2L48,35.9c-0.1,0.1-0.2,0.2-0.1,0.4l1.7,4.6c0.1,0.2,0.3,0.2,0.4,0.2l3.6-0.8c0.2,0.3,0.5,0.6,0.8,0.9l-1,3.6
			c0,0.1,0,0.3,0.2,0.4l4.5,2c0.1,0.1,0.3,0,0.4-0.1l2-3.1c0.4,0,0.8,0,1.2,0l1.8,3.2c0.1,0.1,0.2,0.2,0.4,0.1l4.6-1.7
			c0.1-0.1,0.2-0.2,0.2-0.3l-0.8-3.7c0.3-0.2,0.6-0.5,0.8-0.8l3.6,1c0.1,0,0.3,0,0.4-0.2l2-4.5c0.1-0.1,0-0.3-0.1-0.4l-3.1-2
			c0-0.4,0-0.8,0-1.2l3.2-1.8C74.8,31.6,74.9,31.5,74.9,31.3z M71,33.1c-0.1,0.1-0.2,0.2-0.2,0.3c0,0.5,0,1,0,1.5
			c0,0.1,0,0.2,0.1,0.3l3,2l-1.8,4l-3.5-1c-0.1,0-0.2,0-0.3,0.1c-0.3,0.4-0.7,0.7-1.1,1c-0.1,0.1-0.1,0.2-0.1,0.3l0.7,3.6l-4.1,1.5
			L62,43.5c-0.1-0.1-0.2-0.2-0.3-0.2c-0.5,0-1,0-1.5,0c-0.1,0-0.2,0-0.3,0.1l-2,3l-4-1.8l1-3.5c0-0.1,0-0.2-0.1-0.3
			c-0.4-0.3-0.7-0.7-1-1.1c-0.1-0.1-0.2-0.1-0.3-0.1L50,40.4l-1.5-4.1l3.2-1.8c0.1-0.1,0.2-0.2,0.2-0.3c0-0.5,0-1,0-1.5
			c0-0.1,0-0.2-0.1-0.3l-3-2l1.8-4l3.5,1c0.1,0,0.2,0,0.3-0.1c0.3-0.4,0.7-0.7,1.1-1c0.1-0.1,0.1-0.2,0.1-0.3l-0.8-3.6l4.1-1.5
			l1.8,3.2c0.1,0.1,0.2,0.2,0.3,0.2c0.5,0,1,0,1.5,0c0.1,0,0.2,0,0.3-0.1l2-3l4,1.8l-1,3.5c0,0.1,0,0.2,0.1,0.3
			c0.4,0.3,0.7,0.7,1,1.1C68.9,28,69,28,69.1,28l3.6-0.7l1.5,4.1L71,33.1z"/>
		<path class="st3" d="M63.7,47.6c-0.2,0-0.4-0.1-0.5-0.3l-1.7-3.1c-0.3,0-0.6,0-0.8,0l-1.9,3c-0.2,0.2-0.5,0.3-0.8,0.2l-4.5-2
			c-0.3-0.1-0.4-0.4-0.3-0.7l1-3.4c-0.2-0.2-0.4-0.4-0.6-0.6L50,41.3c-0.3,0.1-0.6-0.1-0.7-0.4l-1.7-4.6c-0.1-0.3,0-0.6,0.3-0.7
			l3.1-1.7c0-0.3,0-0.5,0-0.8l-3-1.9c-0.2-0.2-0.3-0.5-0.2-0.7l2-4.5c0.1-0.3,0.4-0.4,0.7-0.3l3.4,1c0.2-0.2,0.4-0.4,0.6-0.6
			l-0.7-3.5c-0.1-0.3,0.1-0.6,0.4-0.7l4.6-1.8c0.3-0.1,0.6,0,0.7,0.3l1.7,3.1c0.3,0,0.6,0,0.8,0l1.9-3c0.2-0.2,0.5-0.3,0.8-0.2
			l4.5,2c0.3,0.1,0.4,0.4,0.3,0.7l-1,3.4c0.2,0.2,0.4,0.4,0.6,0.6l3.5-0.7c0.3-0.1,0.6,0.1,0.7,0.4l1.7,4.6c0.1,0.3,0,0.6-0.3,0.7
			l-3.1,1.7c0,0.3,0,0.5,0,0.8l3,1.9c0.2,0.2,0.3,0.5,0.2,0.8l-2,4.5c-0.1,0.3-0.4,0.4-0.7,0.3l-3.4-1c-0.2,0.2-0.4,0.4-0.6,0.6
			l0.7,3.5c0.1,0.3-0.1,0.6-0.4,0.7L64,47.4C63.9,47.5,63.8,47.6,63.7,47.6z M61.8,43.6l1.9,3.4l4.6-1.7l-0.8-3.8l0.1-0.1
			c0.3-0.2,0.6-0.5,0.8-0.8l0.1-0.1l3.8,1.1l2-4.5l-3.3-2.2v-0.2c0-0.4,0-0.8,0-1.1v-0.2l3.4-1.9l-1.7-4.6l-3.8,0.8l-0.1-0.1
			c-0.2-0.3-0.5-0.6-0.8-0.8l0-0.1l1.1-3.8l-4.5-2L62.4,24h-0.2c-0.4,0-0.8,0-1.1,0H61l-2-3.4l-4.6,1.7l0.8,3.8l-0.1,0.1
			c-0.3,0.2-0.6,0.5-0.8,0.8l-0.1,0.1l-3.8-1.1l-2,4.5l3.3,2.1v0.2c0,0.4,0,0.8,0,1.1v0.2l-3.4,1.9l1.7,4.6l3.8-0.8l0.1,0.1
			c0.2,0.3,0.5,0.6,0.8,0.8l0.1,0.1l-1,3.8l4.5,2l2.2-3.3h0.2C61,43.6,61.4,43.6,61.8,43.6L61.8,43.6z M63.7,47l-1.9-3.4
			c-0.5,0-1,0-1.5-0.1l-2.2,3.3l-4.4-2l1-3.8c-0.4-0.4-0.7-0.7-1-1.1l-3.8,0.8l-1.7-4.6l3.4-1.9c0-0.5,0-1,0-1.5l-3.2-2.1l2-4.5
			l3.8,1c0.4-0.4,0.7-0.7,1.1-1l-0.8-3.8l4.6-1.7l1.9,3.4c0.5,0,1,0,1.5,0.1l2.1-3.3l4.4,2l-1,3.7c0.4,0.4,0.7,0.7,1,1.1l3.8-0.8
			l1.7,4.6l-3.4,1.9c0,0.5,0,1,0,1.5l3.2,2.1l-2,4.5l-3.8-1c-0.4,0.4-0.7,0.7-1.1,1l0.8,3.8L63.7,47z M61.8,43
			c0.2,0,0.4,0.1,0.5,0.3l1.7,3l3.6-1.4l-0.7-3.3c0-0.2,0-0.5,0.2-0.6c0.4-0.3,0.7-0.6,1-1c0.2-0.2,0.4-0.2,0.6-0.2l3.3,0.9l1.6-3.5
			l-2.8-1.8c-0.2-0.1-0.3-0.3-0.3-0.5c0-0.5,0-1,0-1.4c0-0.2,0.1-0.4,0.3-0.5l3-1.7l-1.4-3.6l-3.3,0.7c-0.2,0.1-0.5,0-0.6-0.2
			c-0.3-0.4-0.6-0.7-1-1c-0.2-0.2-0.2-0.4-0.2-0.6l0.9-3.2l-3.5-1.6L63,24.4c-0.1,0.2-0.4,0.3-0.6,0.3c-0.5,0-0.9,0-1.4,0
			c-0.2,0-0.5-0.1-0.6-0.3l-1.7-2.9l-3.6,1.3l0.7,3.3c0,0.2,0,0.4-0.2,0.6c-0.4,0.3-0.7,0.6-1.1,1c-0.2,0.2-0.4,0.2-0.6,0.2
			l-3.3-0.9l-1.6,3.5l2.8,1.8c0.2,0.1,0.3,0.3,0.3,0.6c0,0.5,0,0.9,0,1.4c0,0.2-0.1,0.4-0.3,0.6L49,36.5l1.3,3.5l3.3-0.7
			c0.2,0,0.5,0,0.6,0.2c0.3,0.4,0.6,0.7,1,1c0.2,0.2,0.2,0.4,0.2,0.6l-0.9,3.3L58,46l1.8-2.8c0.1-0.2,0.4-0.3,0.6-0.3
			c0.5,0,0.9,0,1.4,0L61.8,43z"/>
		<path class="st3" d="M61.4,39c-2.9,0-5.2-2.3-5.2-5.2s2.3-5.2,5.2-5.2s5.2,2.3,5.2,5.2v0C66.5,36.7,64.2,39,61.4,39z M61.4,29.8
			c-2.2,0-4,1.8-4,4c0,2.2,1.8,4,4,4c2.2,0,4-1.8,4-4C65.4,31.6,63.6,29.8,61.4,29.8C61.4,29.8,61.4,29.8,61.4,29.8L61.4,29.8z"/>
	</g>
</g>
</svg>
