<svg xmlns="http://www.w3.org/2000/svg" viewBox="0 0 117.52 78.63"><title>ICONES_Fichier 58</title><g id="Calque_2" data-name="Calque 2"><g id="Calque_1-2" data-name="Calque 1"><rect x="0.5" y="40.73" width="54.08" height="8.02" rx="3.58" ry="3.58" style="fill:none;stroke:#d5d4d4;stroke-miterlimit:10"/><circle cx="74.83" cy="8.33" r="8.33" style="fill:#d5d4d4"/><path d="M25.89,15.83a14.62,14.62,0,0,1-7.83-2.15,8.33,8.33,0,1,0,15.57.06A14.67,14.67,0,0,1,25.89,15.83Z" style="fill:#d5d4d4"/><circle cx="48.1" cy="32.96" r="4.92" style="fill:#d5d4d4"/><circle cx="71.42" cy="73.71" r="4.92" style="fill:#d5d4d4"/><circle cx="81.25" cy="73.71" r="4.92" style="fill:#d5d4d4"/><circle cx="85.02" cy="46.13" r="4.92" style="fill:#d5d4d4"/><path d="M70.13,16.67h12.4a3.63,3.63,0,0,1,3.63,3.63V73.71a0,0,0,0,1,0,0H66.5a0,0,0,0,1,0,0V20.3a3.63,3.63,0,0,1,3.63-3.63Z" style="fill:#d5d4d4"/><path d="M66.5,33.87V28.33l2.69,2.75,5.12-14.41H68.58A5.21,5.21,0,0,0,64.26,19l-5.53,8.19A2,2,0,0,1,57,28H48.1v9.83H60.67S66.5,37.92,66.5,33.87Z" style="fill:#d5d4d4"/><rect x="6.63" y="48.75" width="43.75" height="29.29" style="fill:none;stroke:#d5d4d4;stroke-miterlimit:10;stroke-width:0.75px"/><text transform="translate(19.42 60.62) scale(0.82 1)" style="font-size:9.139690399169922px;fill:#d5d4d4;font-family:OpenSans, Open Sans;letter-spacing:0.07498920662362603em">VISA<tspan x="-12.81" y="10.97">CONTROL</tspan></text><path d="M25.56,2,13.63,5.92l4.63,5.75H32.88L37.5,5.92Zm0,7.45a2.63,2.63,0,1,1,2.63-2.62A2.63,2.63,0,0,1,25.56,9.49Z" style="fill:#d5d4d4"/><path d="M17.09,25a4,4,0,0,0-3.95,4V40.73h12.5Z" style="fill:#d5d4d4"/><polygon points="21.34 25 19.39 25 27.94 40.73 29.9 40.73 21.34 25" style="fill:#d5d4d4"/><path d="M34,25H23.64l8.56,15.73H38V29A4,4,0,0,0,34,25Z" style="fill:#d5d4d4"/><path d="M85.82,18.76l-7.13,4.66V46.12H89.94V32.21C89.94,26.15,85.82,18.76,85.82,18.76Z" style="fill:#d5d4d4"/><circle cx="110.81" cy="75.54" r="2.69" style="fill:#d5d4d4"/><rect x="96.64" y="45.91" width="1.56" height="29.85" transform="translate(-15.25 83.15) rotate(-43.19)" style="fill:#d5d4d4"/><path d="M117.52,67.81V65.08L103.2,49.83a1.75,1.75,0,0,0-2.48-.08l-7.08,6.64,14.2,15.13a3.05,3.05,0,0,1,5.06.77h.32a1.5,1.5,0,0,1,2.56-.51l1.39-1.31a1.52,1.52,0,0,1,.34-2.67Z" style="fill:#d5d4d4"/></g></g></svg>