<?xml version="1.0" encoding="utf-8"?>
<!-- Generator: Adobe Illustrator 21.1.0, SVG Export Plug-In . SVG Version: 6.00 Build 0)  -->
<svg version="1.1" id="Calque_1" xmlns="http://www.w3.org/2000/svg" xmlns:xlink="http://www.w3.org/1999/xlink" x="0px" y="0px"
	 viewBox="0 0 88.4 59.6" style="enable-background:new 0 0 88.4 59.6;" xml:space="preserve">
<style type="text/css">
	.st0{fill:#D8D8D8;}
	.st1{fill:none;stroke:#D8D8D8;stroke-width:0.5;stroke-miterlimit:10;}
</style>
<title>ICONES_Fichier 54</title>
<g id="Calque_2">
	<g id="Calque_1-2">
		<rect x="19.7" y="17.2" class="st0" width="3.8" height="42.3"/>
		
			<rect x="27.5" y="16.4" transform="matrix(0.7071 -0.7071 0.7071 0.7071 -10.237 28.5977)" class="st0" width="3.8" height="20.4"/>
		<rect x="5.4" y="29" class="st0" width="11.4" height="1.4"/>
		<rect y="23" class="st0" width="16.8" height="1.4"/>
		<rect x="7.9" y="35.7" class="st0" width="8.9" height="1.4"/>
		<rect x="35.3" y="31.4" class="st0" width="21" height="3.8"/>
		<rect x="19.7" y="55.7" class="st0" width="34.3" height="3.8"/>
		<rect x="84.6" y="17.2" class="st0" width="3.8" height="42.3"/>
		<rect x="68.5" y="24.7" transform="matrix(0.7071 -0.7071 0.7071 0.7071 4.2194 63.493)" class="st0" width="20.4" height="3.8"/>
		<rect x="54.1" y="31.4" class="st0" width="18.8" height="3.8"/>
		<rect x="54.1" y="55.7" class="st0" width="34.3" height="3.8"/>
		<path class="st0" d="M34.8,5.7v26.6h38.9V5.7H34.8z M71.7,30.4H36.3V7h35.4V30.4z"/>
		<polygon class="st0" points="68.1,7 54.1,0 54.1,4.3 59.6,7 		"/>
		<polygon class="st0" points="71.7,8.8 71.7,13.1 86.7,20.6 88.4,17.2 		"/>
		<polygon class="st0" points="48.6,7 54.1,4.3 54.1,0 40,7 		"/>
		<polygon class="st0" points="36.3,8.9 19.7,17.2 21.4,20.6 36.3,13.2 		"/>
		<ellipse class="st0" cx="45.5" cy="17.2" rx="3.8" ry="4.4"/>
		<path class="st0" d="M52.6,25.9c-0.1-0.7-0.3-1.4-0.6-2c-0.5-1.2-1.6-2-2.9-2h-0.3c-0.7,1.8-2.7,2.8-4.6,2.1
			c-1-0.4-1.8-1.1-2.1-2.1c-1.2-0.2-2.4,0.3-3.1,1.3l0,0c-0.5,0.8-0.9,1.7-1,2.6L52.6,25.9z"/>
		<path class="st1" d="M68.5,20.6c0,3.5-2.8,6.4-6.3,6.4c0,0,0,0,0,0c-0.5,0-1.1-0.1-1.6-0.2c-3.4-0.9-5.4-4.3-4.5-7.7
			c0.6-2.2,2.3-4,4.5-4.5c0.5-0.1,1.1-0.2,1.6-0.2C65.6,14.3,68.5,17.2,68.5,20.6L68.5,20.6z"/>
		<path class="st1" d="M65.2,20.6c0.1,2-0.6,4-2,5.5c-0.3,0.3-0.6,0.5-1,0.6c-1.8-0.7-3.1-3.2-3.1-6.1s1.3-5.4,3.1-6.1
			c0.4,0.2,0.7,0.4,1,0.6C64.6,16.6,65.3,18.6,65.2,20.6z"/>
		<line class="st1" x1="56.3" y1="18.2" x2="68" y2="18.2"/>
		<line class="st1" x1="56.7" y1="23.9" x2="67.5" y2="23.9"/>
		<line class="st1" x1="55.8" y1="21.2" x2="68.5" y2="21.2"/>
	</g>
</g>
</svg>
