<svg xmlns="http://www.w3.org/2000/svg" viewBox="0 0 88.43 59.57"><title>ICONES_Fichier 54</title><g id="Calque_2" data-name="Calque 2"><g id="Calque_1-2" data-name="Calque 1"><rect x="0.49" y="36.43" width="42.29" height="3.83" transform="translate(59.98 16.71) rotate(90)" style="fill:#dbd600"/><rect x="19.2" y="24.74" width="20.42" height="3.83" transform="translate(31.35 66.3) rotate(-135)" style="fill:#dbd600"/><rect x="5.42" y="29.03" width="11.38" height="1.37" style="fill:#dbd600"/><rect y="23.03" width="16.8" height="1.37" style="fill:#dbd600"/><rect x="7.9" y="35.7" width="8.9" height="1.37" style="fill:#dbd600"/><rect x="35.26" y="31.41" width="21.03" height="3.83" style="fill:#dbd600"/><rect x="19.72" y="55.74" width="34.29" height="3.83" style="fill:#dbd600"/><rect x="65.37" y="36.43" width="42.29" height="3.83" transform="translate(124.86 -48.17) rotate(90)" style="fill:#dbd600"/><rect x="68.54" y="24.74" width="20.42" height="3.83" transform="translate(4.22 63.49) rotate(-45)" style="fill:#dbd600"/><rect x="54.14" y="31.41" width="18.75" height="3.83" style="fill:#dbd600"/><rect x="54.14" y="55.74" width="34.29" height="3.83" style="fill:#dbd600"/><path d="M34.76,5.66V32.28H73.64V5.66ZM71.7,30.41H36.33V7H71.7Z" style="fill:#dbd600"/><polygon points="68.12 7.03 54.08 0 54.08 4.29 59.56 7.03 68.12 7.03" style="fill:#dbd600"/><polygon points="71.7 8.83 71.7 13.11 86.71 20.63 88.42 17.2 71.7 8.83" style="fill:#dbd600"/><polygon points="48.59 7.03 54.08 4.29 54.08 0 40.03 7.03 48.59 7.03" style="fill:#dbd600"/><polygon points="36.34 8.88 19.73 17.2 21.44 20.63 36.34 13.17 36.34 8.88" style="fill:#dbd600"/><ellipse cx="45.46" cy="17.2" rx="3.82" ry="4.44" style="fill:#dbd600"/><path d="M52.62,25.92a9.06,9.06,0,0,0-.61-2,3.11,3.11,0,0,0-2.9-2l-.3,0a3.56,3.56,0,0,1-6.69,0,3.08,3.08,0,0,0-3.06,1.33h0a6.28,6.28,0,0,0-1,2.61Z" style="fill:#dbd600"/><path d="M68.46,20.63A6.34,6.34,0,0,1,62.12,27a6,6,0,0,1-1.59-.21,6.32,6.32,0,0,1,0-12.24,6,6,0,0,1,1.59-.21,6.34,6.34,0,0,1,6.34,6.33Z" style="fill:none;stroke:#dbd600;stroke-miterlimit:10;stroke-width:0.5px"/><path d="M65.2,20.63a7.45,7.45,0,0,1-2,5.48,3.42,3.42,0,0,1-1,.64c-1.76-.7-3.06-3.17-3.06-6.12s1.31-5.42,3.06-6.12a3.42,3.42,0,0,1,1,.64A7.45,7.45,0,0,1,65.2,20.63Z" style="fill:none;stroke:#dbd600;stroke-miterlimit:10;stroke-width:0.5px"/><line x1="56.29" y1="18.17" x2="67.99" y2="18.17" style="fill:none;stroke:#dbd600;stroke-miterlimit:10;stroke-width:0.5px"/><line x1="56.72" y1="23.93" x2="67.53" y2="23.93" style="fill:none;stroke:#dbd600;stroke-miterlimit:10;stroke-width:0.5px"/><line x1="55.79" y1="21.24" x2="68.46" y2="21.24" style="fill:none;stroke:#dbd600;stroke-miterlimit:10;stroke-width:0.5px"/></g></g></svg>