<?xml version="1.0" encoding="utf-8"?>
<!-- Generator: Adobe Illustrator 21.1.0, SVG Export Plug-In . SVG Version: 6.00 Build 0)  -->
<svg version="1.1" id="Calque_1" xmlns="http://www.w3.org/2000/svg" xmlns:xlink="http://www.w3.org/1999/xlink" x="0px" y="0px"
	 viewBox="0 0 115 101" style="enable-background:new 0 0 115 101;" xml:space="preserve">
<style type="text/css">
	.st0{fill:#D9D9D9;}
	.st1{fill:none;stroke:#D9D9D9;stroke-miterlimit:10;}
	.st2{enable-background:new    ;}
</style>
<title>VISAAPPROVEDFichier 106</title>
<g id="Calque_2">
	<g id="Calque_1-2">
		<path class="st0" d="M13.5,35.4C21.7,11.2,47.9-1.7,72.1,6.5c13.6,4.6,24.3,15.3,28.9,28.9h4.1C97,9,69.1-5.8,42.7,2.3
			C26.8,7.1,14.4,19.6,9.5,35.4H13.5z"/>
		<path class="st1" d="M86.9,34.8C78.6,17.9,58.2,11,41.4,19.3c-6.7,3.3-12.2,8.8-15.5,15.5H86.9z"/>
		<path class="st0" d="M101.1,65.6c-8.2,24.2-34.5,37.1-58.6,28.9c-13.6-4.6-24.3-15.3-28.9-28.9H9.5C17.6,92,45.6,106.8,72,98.7
			c15.9-4.9,28.3-17.3,33.1-33.1H101.1z"/>
		<path class="st1" d="M27.7,66.2C36,83.1,56.4,90,73.2,81.7c6.7-3.3,12.2-8.8,15.5-15.5H27.7z"/>
		<g class="st2">
			<path class="st0" d="M7.1,44.5H6.3v-1.3H9v1.3H8.5L5.9,58.4H3.5L0.9,44.5H0.1v-1.3H5v1.3H4.2l1.5,9.2L7.1,44.5z"/>
			<path class="st0" d="M14.3,57.1v1.3H9.7v-1.3h0.8V44.5H9.7v-1.3h4.6v1.3h-0.8v12.6H14.3z"/>
			<path class="st0" d="M21.3,43.2h1v4.3h-2c0-2.1-0.4-3.2-1.2-3.2c-0.5,0-1,0.4-1,1.1c0,0.7,0.5,1.7,1.4,2.8l1.2,1.5
				c1.3,1.7,2,3.4,2,5c0,2.5-1.5,3.9-3.5,3.9c-0.6,0-1.1-0.2-1.9-0.8l-0.6,0.6h-1.2v-5.1h2c0,2.9,0.6,3.8,1.5,3.8
				c0.6,0,1.1-0.6,1.1-1.2c0-0.8-0.7-2.2-1.6-3.2l-0.8-1c-1.4-1.7-2.2-3.5-2.2-5c0-2.2,1.1-3.9,3.3-3.9c0.6,0,1.2,0.2,2,0.8
				L21.3,43.2z"/>
			<path class="st0" d="M25.8,53.9l-0.5,3.2h0.9v1.3h-2.8v-1.3h0.7l2.1-13.9h3.6l1.9,13.9h0.7v1.3h-4.6v-1.3h0.9l-0.4-3.2H25.8z
				 M26,52.5h2l-0.9-6.9h-0.1L26,52.5z"/>
			<path class="st0" d="M40.9,53.9l-0.5,3.2h0.9v1.3h-2.8v-1.3h0.7l2.1-13.9H45l1.9,13.9h0.7v1.3h-4.6v-1.3h0.9l-0.4-3.2H40.9z
				 M41.1,52.5h2l-0.9-6.9h-0.1L41.1,52.5z"/>
			<path class="st0" d="M56.9,47.6c0,3.3-1.6,4.4-4.4,4.4H52v5.1h1v1.3h-4.9v-1.3h0.8V44.5h-0.8v-1.3h4.4
				C55.4,43.2,56.9,44.2,56.9,47.6z M52,50.7c1.3,0,1.7-0.2,1.7-1.6v-3c0-1.3-0.4-1.6-1.7-1.6V50.7z"/>
			<path class="st0" d="M66.8,47.6c0,3.3-1.6,4.4-4.4,4.4H62v5.1h1v1.3h-4.9v-1.3h0.8V44.5h-0.8v-1.3h4.4
				C65.4,43.2,66.8,44.2,66.8,47.6z M62,50.7c1.3,0,1.7-0.2,1.7-1.6v-3c0-1.3-0.4-1.6-1.7-1.6V50.7z"/>
			<path class="st0" d="M76.5,53.5v3.6h0.7v1.3h-3.9V54c0-2.1-0.3-2.4-1-2.4h-0.5v5.5h0.8v1.3H68v-1.3h0.8V44.5H68v-1.3h4.4
				c2.9,0,4.4,1,4.4,4c0,1.8-0.8,3.1-2.1,3.5C76.3,51.6,76.5,52,76.5,53.5z M71.9,50.2c1.3,0,1.7-0.2,1.7-1.6v-2.6
				c0-1.3-0.4-1.6-1.7-1.6V50.2z"/>
			<path class="st0" d="M86.9,50.8c0,5.4-1.3,7.8-4.2,7.8c-2.9,0-4.2-2.5-4.2-7.8c0-5.4,1.3-7.8,4.2-7.8
				C85.6,43,86.9,45.4,86.9,50.8z M81.8,56.5c0,0.5,0.4,0.9,0.9,0.9c0.5,0,0.9-0.4,0.9-0.9V45.1c0-0.5-0.4-0.9-0.9-0.9
				c-0.5,0-0.9,0.4-0.9,0.9V56.5z"/>
			<path class="st0" d="M94.6,44.5h-0.8v-1.3h2.7v1.3h-0.6l-2.5,13.9h-2.5l-2.6-13.9h-0.7v-1.3h4.8v1.3h-0.8l1.5,9.2L94.6,44.5z"/>
			<path class="st0" d="M97.1,57.1h0.8V44.5h-0.8v-1.3h7.7v4.2h-1.9v-2.9H101V50h1v-1.5h1.5v4.3H102v-1.5h-1v5.8h1.9V54h1.9v4.4
				h-7.7V57.1z"/>
			<path class="st0" d="M106.1,57.1h0.8V44.5h-0.8v-1.3h4.7c3,0,4.3,2.3,4.3,7.6c0,5.4-1.3,7.6-4.3,7.6h-4.7V57.1z M110.5,44.5h-0.6
				v12.6h0.6c0.8,0,1.2-0.5,1.2-1.7v-9.3C111.8,45,111.3,44.5,110.5,44.5z"/>
		</g>
	</g>
</g>
</svg>
