<svg xmlns="http://www.w3.org/2000/svg" viewBox="0 0 17.15 16.93"><defs><style>.cls-1{fill:#fff;}</style></defs><title>Fichier 1</title><g id="Calque_2" data-name="Calque 2"><g id="Calque_1-2" data-name="Calque 1"><g id="Calque_2-2" data-name="Calque 2"><g id="Calque_1-2-2" data-name="Calque 1-2"><path class="cls-1" d="M16.78,2.5l-.14-.34L13.91,4.84l-1.6-1.63L15,.54,14.7.39A4.19,4.19,0,0,0,8.95,5.48L.54,13.74a1.9,1.9,0,0,0,0,2.65,1.9,1.9,0,0,0,2.65,0L11.6,8.13a4.19,4.19,0,0,0,5.2-5.65ZM1.94,16.05a1,1,0,1,1,1-1A1,1,0,0,1,1.94,16.05Z"/></g></g></g></g></svg>