<svg xmlns="http://www.w3.org/2000/svg" viewBox="0 0 506.53 509.02"><title>PERSROUEFichier 165</title><g id="Calque_2" data-name="Calque 2"><g id="Calque_1-2" data-name="Calque 1"><path d="M476.25,399.17a79.35,79.35,0,0,0-1.44-15l31.72-12.37-12.43-31.87-32.93,12.84a79.42,79.42,0,0,0-19-18.58l13-33.23-31.87-12.43-12.77,32.76a78.46,78.46,0,0,0-27.8.23l-12.86-33L338,301l13.26,34a79.42,79.42,0,0,0-18.72,19l-32.68-12.74-12.43,31.87,32.05,12.5a78.28,78.28,0,0,0,0,27.19l-32,12.49,12.43,31.87,32.67-12.74a79.42,79.42,0,0,0,18.17,18.57L338,495.5l31.87,12.43L382,476.68a78.68,78.68,0,0,0,28.76.31l12.49,32,31.87-12.43L442.41,464a79.42,79.42,0,0,0,20-20.2l31.66,12.34,12.43-31.87L475.19,412A79.48,79.48,0,0,0,476.25,399.17Zm-79,49.5a49.5,49.5,0,1,1,49.5-49.5A49.5,49.5,0,0,1,397.25,448.67Z"/><path d="M314.89,274.54a188,188,0,0,0-64-39.28A126.94,126.94,0,0,0,311.7,126.62C311.7,56.8,256.46,0,188.57,0S65.44,56.8,65.44,126.62A126.93,126.93,0,0,0,126.3,235.26C65.3,257.34,18.54,310.7,4.5,376.65c0,0-4.5,14.52-4.5,35.19H29.33S28,402,35.64,376.65c18-69.89,79.4-121.82,152.93-121.82,40.76,0,77.8,16,105.79,42.1A112.3,112.3,0,0,1,314.89,274.54ZM95.73,153.26a101,101,0,0,1,30-101.73l.89-.77.72-.62a95,95,0,0,1,61.87-22.91c53.54,0,96.94,44.56,96.94,99.53s-43.4,99.53-96.94,99.53C144.59,226.29,107,195.36,95.73,153.26Z"/></g></g></svg>