<svg xmlns="http://www.w3.org/2000/svg" viewBox="0 0 38.35 38.53"><title>ICONES_Fichier 42</title><g id="Calque_2" data-name="Calque 2"><g id="Calque_1-2" data-name="Calque 1"><path d="M3.51,29.47a2.66,2.66,0,0,1,.38-1.61l6.73-11.68L13.76,18l-2.53-5.86-6.34.73L8,14.69,4.68,20.5s0,.08-.06.12L.72,27.41A5,5,0,0,0,0,30.47,4.74,4.74,0,0,0,2.49,34,2.86,2.86,0,0,0,4,34.45h9.5V31.84H6A2.41,2.41,0,0,1,3.51,29.47Z"/><path d="M20.68,3.91a2.66,2.66,0,0,1,1.16,1.17L28.18,17,25,18.68l6.31,1L34,13.87l-3.21,1.7L27.66,9.65l-.07-.11L23.9,2.63A5,5,0,0,0,21.68.43a4.74,4.74,0,0,0-4.33.2,2.86,2.86,0,0,0-1.13,1l-5,8.06L13.4,11.1l4-6.36A2.41,2.41,0,0,1,20.68,3.91Z"/><path d="M33.91,31.23a2.66,2.66,0,0,1-1.57.5l-13.48.19,0-3.63-3.74,5.17,3.87,5.07,0-3.63,6.71-.09h.13l7.83-.12a5,5,0,0,0,3-1,4.74,4.74,0,0,0,1.8-3.94,2.86,2.86,0,0,0-.4-1.48l-4.86-8.16-2.24,1.33,3.83,6.44A2.41,2.41,0,0,1,33.91,31.23Z"/></g></g></svg>