<svg xmlns="http://www.w3.org/2000/svg" viewBox="0 0 26.17 18.9"><title>ICONES_Fichier 41</title><g id="Calque_2" data-name="Calque 2"><g id="Calque_1-2" data-name="Calque 1"><path d="M13.67,4.56,11.33,6.9H2.17v9.67H24V7.06H19.33l2.33-2.5H25a1.21,1.21,0,0,1,1.21,1.21V17.69A1.21,1.21,0,0,1,25,18.9H1.21A1.21,1.21,0,0,1,0,17.69V5.77A1.21,1.21,0,0,1,1.21,4.56Z"/><path d="M9.13,12.95h0c-.39-.39-.18-.69.1-1L20.83.18a1,1,0,0,1,1.3.2h0a1,1,0,0,1,.22,1.3L10.22,13.18C9.93,13.44,9.52,13.34,9.13,12.95Z"/><polygon points="9.37 13.98 9.38 13.98 8.42 12.98 8.08 14.34 9.37 13.98 9.37 13.98"/></g></g></svg>