<svg xmlns="http://www.w3.org/2000/svg" viewBox="0 0 35.38 35.13"><title>ICONES_Fichier 40</title><g id="Calque_2" data-name="Calque 2"><g id="Calque_1-2" data-name="Calque 1"><path d="M12.08,17.79h0c-.39-.39-.08-.79.31-1.19L28.41.32a1.07,1.07,0,0,1,1.51,0h0a1.07,1.07,0,0,1,0,1.51l-16.6,16A.83.83,0,0,1,12.08,17.79Z"/><rect x="10.26" y="31.84" width="15.33" height="3.29"/><rect x="16.26" y="28.25" width="3.29" height="4.29"/><path d="M33.69,5.85H30L27.89,8.34h5v18H2.48v-18h14l2-2.48H1.69A1.69,1.69,0,0,0,0,7.54V27.08a1.69,1.69,0,0,0,1.69,1.69h32a1.69,1.69,0,0,0,1.69-1.69V7.54A1.69,1.69,0,0,0,33.69,5.85Z"/><polygon points="12.31 18.82 12.32 18.82 11.37 17.82 11.03 19.18 12.31 18.82 12.31 18.82"/></g></g></svg>